<?xml version="1.0" encoding="UTF-8" standalone="no"?>
<!DOCTYPE svg PUBLIC "-//W3C//DTD SVG 1.1//EN" "http://www.w3.org/Graphics/SVG/1.1/DTD/svg11.dtd">
<svg width="100%" height="100%" viewBox="0 0 4000 4000" version="1.1" xmlns="http://www.w3.org/2000/svg" xmlns:xlink="http://www.w3.org/1999/xlink" xml:space="preserve" xmlns:serif="http://www.serif.com/" style="fill-rule:evenodd;clip-rule:evenodd;stroke-linecap:round;stroke-linejoin:round;stroke-miterlimit:1.5;">
    <rect id="Artboard1" x="0" y="0" width="4000" height="4000" style="fill:none;"/>
    <g id="Artboard11" serif:id="Artboard1">
        <g transform="matrix(0.895007,0,0,0.725405,-320.116,-225.545)">
            <path d="M1140.12,1832.06L1140.12,1958.42C1129.86,1952.2 1119.58,1946 1119.58,1946L1119.58,1819.82L1140.12,1832.06Z" style="fill:rgb(77,126,231);"/>
        </g>
        <g transform="matrix(0.895007,0,0,0.725405,-320.116,-225.545)">
            <path d="M1140.12,1958.42L1140.12,1983.41L1119.58,1971.18L1119.58,1946C1119.58,1946 1129.86,1952.2 1140.12,1958.42Z" style="fill:rgb(185,232,224);"/>
        </g>
        <g transform="matrix(0.895007,0,0,0.725405,-320.116,-225.545)">
            <path d="M1119.58,1794.65C1119.58,1794.65 1129.86,1800.85 1140.12,1807.06L1140.12,1832.06L1119.58,1819.82L1119.58,1794.65Z" style="fill:rgb(185,232,224);"/>
        </g>
        <g transform="matrix(0.895007,0,0,0.725405,-320.116,-225.545)">
            <path d="M1140.12,1807.06C1150.33,1813.25 1160.52,1819.46 1160.52,1819.58C1160.51,1819.99 1161.01,1844.51 1161.01,1844.51L1140.12,1832.06L1140.12,1807.06Z" style="fill:rgb(185,232,224);"/>
        </g>
        <g transform="matrix(0.895007,0,0,0.725405,-320.116,-225.545)">
            <path d="M1052.22,1713.93L1119.58,1755.69L1119.58,2041.65L1051.51,2000L1052.22,1713.93Z" style="fill:rgb(185,232,224);"/>
        </g>
        <g transform="matrix(0.895007,0,0,0.725405,-320.116,-225.545)">
            <path d="M1160.52,1819.58L1160.29,1799.1L1140.29,1787.11" style="fill:none;stroke:black;stroke-width:7.43px;"/>
        </g>
        <g transform="matrix(0.895007,0,0,0.725405,-320.116,-225.545)">
            <path d="M1119.58,1794.65C1119.58,1794.65 1129.86,1800.85 1140.12,1807.06" style="fill:none;stroke:black;stroke-width:7.43px;"/>
        </g>
        <g transform="matrix(0.895007,0,0,0.725405,-320.116,-225.545)">
            <path d="M1140.12,1807.06C1150.33,1813.25 1160.52,1819.46 1160.52,1819.58" style="fill:none;stroke:black;stroke-width:7.43px;"/>
        </g>
        <g transform="matrix(0.895007,0,0,0.725405,-320.116,-225.545)">
            <path d="M1160.52,1819.58C1160.51,1819.99 1161.01,1844.51 1161.01,1844.51L1140.12,1832.06" style="fill:none;stroke:black;stroke-width:7.43px;"/>
        </g>
        <g transform="matrix(0.895007,0,0,0.725405,-320.116,-225.545)">
            <path d="M1140.12,1832.06L1119.58,1819.82" style="fill:none;stroke:black;stroke-width:7.43px;"/>
        </g>
        <g transform="matrix(0.895007,0,0,0.725405,-320.116,-225.545)">
            <path d="M1140.12,1744.09L1140.12,1807.06" style="fill:none;stroke:black;stroke-width:7.43px;"/>
        </g>
        <g transform="matrix(0.895007,0,0,0.725405,-320.116,-225.545)">
            <path d="M1140.12,1807.06L1140.12,1832.06" style="fill:none;stroke:black;stroke-width:7.43px;"/>
        </g>
        <g transform="matrix(0.895007,0,0,0.725405,-320.116,-225.545)">
            <path d="M1140.12,1832.06L1140.12,1938.25" style="fill:none;stroke:black;stroke-width:7.43px;"/>
        </g>
        <g transform="matrix(0.895007,0,0,0.725405,-320.116,-225.545)">
            <path d="M1140.12,1938.25L1140.12,1958.42" style="fill:none;stroke:black;stroke-width:7.43px;"/>
        </g>
        <g transform="matrix(0.895007,0,0,0.725405,-320.116,-225.545)">
            <path d="M1140.12,1958.42L1140.12,1983.41" style="fill:none;stroke:black;stroke-width:7.43px;"/>
        </g>
        <g transform="matrix(0.895007,0,0,0.725405,-320.116,-225.545)">
            <path d="M1140.12,1983.41L1140.12,2032L1119.58,2041.65" style="fill:none;stroke:black;stroke-width:7.43px;"/>
        </g>
        <g transform="matrix(0.895007,0,0,0.725405,-320.116,-225.545)">
            <path d="M1052.22,1713.93L1067.74,1702.34L1140.12,1744.09" style="fill:none;stroke:black;stroke-width:7.43px;"/>
        </g>
        <g transform="matrix(0.895007,0,0,0.725405,-320.116,-225.545)">
            <path d="M1140.12,1744.09L1119.58,1755.69" style="fill:none;stroke:black;stroke-width:7.43px;"/>
        </g>
        <g transform="matrix(0.576886,0,0,0.576886,-107.846,183.259)">
            <path d="M1272.65,683.156L1274.11,824.893" style="fill:none;stroke:black;stroke-width:10.5px;"/>
            <path d="M1182.93,733.494L1180.36,879.624" style="fill:none;stroke:black;stroke-width:10.5px;"/>
            <path d="M984.073,703.9L908.573,761.72L905.338,764.311" style="fill:none;stroke:black;stroke-width:10.5px;"/>
            <path d="M942.8,680.073L865.076,739.064" style="fill:none;stroke:black;stroke-width:10.5px;"/>
            <path d="M923.509,668.935L865.266,711.485" style="fill:none;stroke:black;stroke-width:10.5px;"/>
            <path d="M890.528,649.894L865.743,667.852" style="fill:none;stroke:black;stroke-width:10.5px;"/>
            <path d="M865.787,635.611L865.06,741.451L995.312,815.377L996.81,711.254L865.787,635.611Z" style="fill:none;stroke:black;stroke-width:10.5px;"/>
            <path d="M856.095,618.365L853.869,747.359L1005.59,835.15L1008.42,705.508L856.095,618.365Z" style="fill:none;stroke:black;stroke-width:10.5px;"/>
            <path d="M1349.19,608.375C1350.23,600.072 1350.45,590.304 1349.54,578.688L1349.28,578.422L1412.25,542.236C1412.76,546.928 1415.99,585.28 1390.88,615.733C1364.08,648.224 1349.19,608.375 1349.19,608.375Z" style="fill:rgb(185,232,224);"/>
            <path d="M1226.51,686.611C1228.78,675.054 1228.6,662.567 1227.07,648.842L1226.79,648.562L1288.95,612.969C1289.5,617.193 1291.38,630.663 1287.74,647.832C1285.45,658.617 1280.98,670.861 1272.63,683.19C1250.08,716.488 1226.51,686.611 1226.51,686.611Z" style="fill:rgb(185,232,224);"/>
            <path d="M1051.78,667.852L1355.09,489.17L1412.2,541.758C1412.2,541.758 1412.22,541.922 1412.25,542.236L1349.28,578.422L1104.58,718.538L1051.78,667.852Z" style="fill:rgb(75,177,189);"/>
            <path d="M1287.74,647.832C1291.38,630.663 1289.5,617.193 1288.95,612.969L1349.28,578.422L1349.54,578.688C1350.45,590.304 1350.23,600.072 1349.19,608.375C1345.39,638.452 1330.67,649.313 1318.92,659.181C1303.92,671.773 1287.74,647.832 1287.74,647.832Z" style="fill:rgb(75,177,189);"/>
            <path d="M1164.75,724.699C1167.92,707.895 1165.87,691.444 1165.74,683.516L1226.79,648.562L1227.07,648.842C1228.6,662.567 1228.78,675.054 1226.51,686.611C1223.84,700.212 1217.77,712.524 1206.51,724.047C1186.08,744.963 1165.51,725.44 1164.75,724.699Z" style="fill:rgb(75,177,189);"/>
            <path d="M1104.58,718.538L1165.74,683.516C1165.87,691.444 1167.92,707.895 1164.75,724.699C1161.66,741.028 1153.63,757.69 1134.08,767.189C1094.43,786.463 1104.58,718.538 1104.58,718.538Z" style="fill:rgb(185,232,224);"/>
            <path d="M1104.58,718.538L1165.74,683.516" style="fill:none;stroke:black;stroke-width:10.5px;"/>
            <path d="M1165.74,683.516L1226.79,648.562" style="fill:none;stroke:black;stroke-width:10.5px;"/>
            <path d="M1226.79,648.562L1288.95,612.969" style="fill:none;stroke:black;stroke-width:10.5px;"/>
            <path d="M1288.95,612.969L1349.28,578.422" style="fill:none;stroke:black;stroke-width:10.5px;"/>
            <path d="M1349.28,578.422L1412.25,542.236" style="fill:none;stroke:black;stroke-width:10.5px;"/>
            <path d="M1349.19,608.375C1349.19,608.375 1364.08,648.224 1390.88,615.733C1417.67,583.242 1412.2,541.758 1412.2,541.758L1355.09,489.17" style="fill:none;stroke:black;stroke-width:10.5px;"/>
            <path d="M1287.74,647.832C1287.74,647.832 1303.92,671.773 1318.92,659.181C1330.67,649.313 1345.39,638.452 1349.19,608.375" style="fill:none;stroke:black;stroke-width:10.5px;"/>
            <path d="M1349.19,608.375C1350.23,600.072 1350.45,590.304 1349.54,578.688L1349.28,578.422" style="fill:none;stroke:black;stroke-width:10.5px;"/>
            <path d="M1349.28,578.422L1297.3,523.933" style="fill:none;stroke:black;stroke-width:10.5px;"/>
            <path d="M1226.51,686.611C1226.51,686.611 1250.08,716.488 1272.63,683.19C1280.98,670.861 1285.45,658.617 1287.74,647.832" style="fill:none;stroke:black;stroke-width:10.5px;"/>
            <path d="M1287.74,647.832C1291.38,630.663 1289.5,617.193 1288.95,612.969" style="fill:none;stroke:black;stroke-width:10.5px;"/>
            <path d="M1288.95,612.969C1288.91,612.68 1288.88,612.434 1288.85,612.233L1236.09,559.815" style="fill:none;stroke:black;stroke-width:10.5px;"/>
            <path d="M1164.72,724.677C1164.72,724.677 1164.73,724.685 1164.75,724.699" style="fill:none;stroke:black;stroke-width:10.5px;"/>
            <path d="M1164.75,724.699C1165.51,725.44 1186.08,744.963 1206.51,724.047C1217.77,712.524 1223.84,700.212 1226.51,686.611" style="fill:none;stroke:black;stroke-width:10.5px;"/>
            <path d="M1226.51,686.611C1228.78,675.054 1228.6,662.567 1227.07,648.842L1226.79,648.562" style="fill:none;stroke:black;stroke-width:10.5px;"/>
            <path d="M1226.79,648.562L1174.13,596.132" style="fill:none;stroke:black;stroke-width:10.5px;"/>
            <path d="M1051.78,667.852L1104.58,718.538" style="fill:none;stroke:black;stroke-width:10.5px;"/>
            <path d="M1104.58,718.538C1104.58,718.538 1094.43,786.463 1134.08,767.189C1153.63,757.69 1161.66,741.028 1164.75,724.699" style="fill:none;stroke:black;stroke-width:10.5px;"/>
            <path d="M1164.75,724.699C1167.92,707.895 1165.87,691.444 1165.74,683.516" style="fill:none;stroke:black;stroke-width:10.5px;"/>
            <path d="M1165.74,683.516L1113.31,631.787" style="fill:none;stroke:black;stroke-width:10.5px;"/>
            <path d="M1051.78,667.852L1355.09,489.17" style="fill:none;stroke:black;stroke-width:10.5px;"/>
            <path d="M1355.09,489.17L1355.4,463.639" style="fill:none;stroke:black;stroke-width:10.5px;"/>
            <path d="M917.155,528.979L1146.75,400.173L1268.54,471.942" style="fill:none;stroke:black;stroke-width:10.5px;"/>
            <path d="M891.05,513.306L1141.72,372.293L1288.98,460.022L1042.09,603.988L891.05,513.306Z" style="fill:none;stroke:black;stroke-width:10.5px;"/>
            <path d="M1052.18,954.451L1354.38,778.033L1355.09,489.17" style="fill:none;stroke:black;stroke-width:10.5px;"/>
            <path d="M826.586,513.174L1141.32,337.315L1355.09,463.507L1051.78,641.025" style="fill:none;stroke:black;stroke-width:10.5px;"/>
            <path d="M826.586,513.174L826.502,825.722L1052.18,954.451L1051.78,641.025L826.586,513.174Z" style="fill:none;stroke:black;stroke-width:10.5px;"/>
            <path d="M826.578,542.19L1051.78,667.847" style="fill:none;stroke:black;stroke-width:10.5px;"/>
            <path d="M1228.22,688.525L1230.04,850.623" style="fill:none;stroke:black;stroke-width:10.5px;"/>
        </g>
        <g transform="matrix(0.895007,0,0,0.725405,-320.116,-225.545)">
            <path d="M1052.22,1713.93L1051.51,2000L1119.58,2041.65" style="fill:none;stroke:black;stroke-width:7.43px;"/>
        </g>
        <g transform="matrix(0.895007,0,0,0.725405,-320.116,-225.545)">
            <path d="M1119.58,2041.65L1119.58,1971.18" style="fill:none;stroke:black;stroke-width:7.43px;"/>
        </g>
        <g transform="matrix(0.895007,0,0,0.725405,-320.116,-225.545)">
            <path d="M1119.58,1971.18L1119.58,1946" style="fill:none;stroke:black;stroke-width:7.43px;"/>
        </g>
        <g transform="matrix(0.895007,0,0,0.725405,-320.116,-225.545)">
            <path d="M1119.58,1946L1119.58,1819.82" style="fill:none;stroke:black;stroke-width:7.43px;"/>
        </g>
        <g transform="matrix(0.895007,0,0,0.725405,-320.116,-225.545)">
            <path d="M1119.58,1819.82L1119.58,1794.65" style="fill:none;stroke:black;stroke-width:7.43px;"/>
        </g>
        <g transform="matrix(0.895007,0,0,0.725405,-320.116,-225.545)">
            <path d="M1119.58,1794.65L1119.58,1755.69" style="fill:none;stroke:black;stroke-width:7.43px;"/>
        </g>
        <g transform="matrix(0.895007,0,0,0.725405,-320.116,-225.545)">
            <path d="M1119.58,1755.69L1052.22,1713.93" style="fill:none;stroke:black;stroke-width:7.43px;"/>
        </g>
        <g transform="matrix(0.895007,0,0,0.725405,-320.116,-115.751)">
            <path d="M1160.52,1819.58L1160.29,1799.1L1140.12,1786.89" style="fill:rgb(77,126,231);stroke:black;stroke-width:7.43px;"/>
        </g>
        <g transform="matrix(0.895007,0,0,0.725405,-320.116,-115.751)">
            <path d="M1119.58,1794.65C1119.58,1794.65 1129.86,1800.85 1140.12,1807.06" style="fill:none;stroke:black;stroke-width:7.43px;"/>
        </g>
        <g transform="matrix(0.895007,0,0,0.725405,-320.116,-115.751)">
            <path d="M1140.12,1807.06C1150.33,1813.25 1160.52,1819.46 1160.52,1819.58" style="fill:none;stroke:black;stroke-width:7.43px;"/>
        </g>
        <g transform="matrix(0.895007,0,0,0.725405,-320.116,-115.751)">
            <path d="M1160.52,1819.58C1160.51,1819.99 1161.01,1844.51 1161.01,1844.51L1140.12,1832.06" style="fill:none;stroke:black;stroke-width:7.43px;"/>
        </g>
        <g transform="matrix(0.895007,0,0,0.725405,-320.116,-115.751)">
            <path d="M1140.12,1832.06L1119.58,1819.82" style="fill:none;stroke:black;stroke-width:7.43px;"/>
        </g>
    </g>
</svg>
