<svg viewBox="0 0 964 717" xmlns="http://www.w3.org/2000/svg" xml:space="preserve" style="fill-rule:evenodd;clip-rule:evenodd;stroke-linejoin:round;stroke-miterlimit:2"><path d="M496.558 2951.78c34.316 29.64 77.358 29.71 111.717.17 103.272-88.78 324.222-278.73 442.785-380.65 16.36-14.07 26.23-39.47 25.91-66.67-.32-27.21-10.79-52.12-27.48-65.39-131.717-104.75-387.536-308.19-478.903-380.85-20.69-16.45-45.975-15.95-66.337 1.31-87.939 74.55-330.025 279.79-452.335 383.49-15.349 13.01-24.783 36.52-24.857 61.95-.074 25.43 9.223 49.06 24.497 62.25 115.882 100.1 340.597 294.21 445.003 384.39Z" style="fill:#ed6e4a" transform="matrix(1,0,0,1,-4151.88,1486.54) matrix(0.837525,0,0,0.588434,4169.32,-2534.85)"/><path d="M496.271 2951.53c34.503 29.81 77.744 29.87 112.292.17 63.966-54.99 349.126-300.13 441.717-379.73 16.51-14.19 26.47-39.84 26.14-67.33-.33-27.49-10.89-52.65-27.72-66.03-131.861-104.86-386.612-307.45-477.943-380.08-20.802-16.54-46.203-16.04-66.676 1.31-87.908 74.53-328.995 278.92-451.453 382.74-15.48 13.13-24.998 36.88-25.072 62.57-.074 25.69 9.306 49.55 24.71 62.85 115.981 100.19 339.688 293.42 444.005 383.53Z" style="fill:#fc9972" transform="matrix(1,0,0,1,-4151.88,1486.54) matrix(0.831825,0,0,0.583074,4172.13,-2529.84)"/><path d="m2371.99 413.218-8.01 2.568-8.01-2.145 8.01-2.991 8.01 2.568Z" style="fill:#52082a" transform="matrix(1,0,0,1,-4151.88,1486.54) matrix(1.32201,0,0,1.3619,1847.23,-1833.82)"/><path d="M2355.97 477.874v-64.233l8.01 2.145V574.51l-8.01-2.898v-71.959l6.3-3.643-.16-16.76-3.46-2.922-2.68 1.546Z" style="fill:#75254a" transform="matrix(1,0,0,1,-4151.88,1486.54) matrix(1.32201,0,0,1.3619,1847.23,-1833.82)"/><path d="M2371.99 413.218v23.006l-2.07-1.206-4.07 2.783.4 17.877 5.74 3.412v112.522l-8.01 2.898V415.786l8.01-2.568Z" style="fill:#af3e67" transform="matrix(1,0,0,1,-4151.88,1486.54) matrix(1.32201,0,0,1.3619,1847.23,-1833.82)"/><path d="m2362.11 479.25.16 16.76-6.3 3.643v-16.881l6.14-3.522ZM2355.97 499.653l-46.71 27.007-14.55-.218 14.33-16.731 46.93-26.939v16.881ZM2365.85 437.801l6.14 3.488v17.801l-5.74-3.412-.4-17.877Z" style="fill:#e090ad" transform="matrix(1,0,0,1,-4151.88,1486.54) matrix(1.32201,0,0,1.3619,1847.23,-1833.82)"/><path d="M2371.99 459.09v-17.801l46.99 26.64 13.6 17.463-13.83 1.483-46.76-27.785ZM2429.06 396.86l-12.58 18.08-40.57 23.554-3.92-2.27v-14.573l45.81-26.653 11.26 1.862Z" style="fill:#e090ad" transform="matrix(1,0,0,1,-4151.88,1486.54) matrix(1.32201,0,0,1.3619,1847.23,-1833.82)"/><path d="m2414.92 392.227 14.14 4.633-11.26-1.862-2.88-2.771ZM2421.98 465.238l13.93 17.386-3.33 2.768-13.6-17.463 3-2.691ZM2305.87 506.848l3.17 2.863-14.33 16.731-2.88-3.127 14.04-16.467Z" style="fill:#b75c7d" transform="matrix(1,0,0,1,-4151.88,1486.54) matrix(1.32201,0,0,1.3619,1847.23,-1833.82)"/><path d="m2362.11 479.25-6.14 3.522v-4.898l2.68-1.546 3.46 2.922ZM2355.97 477.874v4.898l-46.93 26.939-3.17-2.863 50.1-28.974ZM2371.99 416.877l42.93-24.65 2.88 2.771-45.81 26.653v-4.774ZM2365.85 437.801l4.07-2.783 2.07 1.206v5.065l-6.14-3.488Z" style="fill:#cb688c" transform="matrix(1,0,0,1,-4151.88,1486.54) matrix(1.32201,0,0,1.3619,1847.23,-1833.82)"/><path d="m2371.99 436.224 49.99 29.014-3 2.691-46.99-26.64v-5.065Z" style="fill:#cb688c" transform="matrix(1,0,0,1,-4151.88,1486.54) matrix(1.32201,0,0,1.3619,1847.23,-1833.82)"/><path d="m9380.16 2203.54 130.54 24.65 130.55-29.51-130.55-29.51-130.54 34.37ZM9380.16 4018.76V2203.54" style="fill:none" transform="matrix(1,0,0,1,-4151.88,1486.54) matrix(0.081134,0,0,0.11852,4200.8,-1531.65)"/><path d="m16465.2 19851.4 9.2 401.9 1180.4 701.5 311.1-33.3-305.9-392.7-1194.8-677.4Z" style="fill:none" transform="matrix(1,0,0,1,-4151.88,1486.54) matrix(0.0587921,0,0,0.0605659,4006.88,-2439.89)"/><path d="m16465.2 19851.4 91.6-62.6 1170.8 679.5 313 390.9-74.7 62.3M17660 20528.8l67.6-60.5M16381.2 20783.4l3.7 376.8-1192 689.2-327.2-4.9 322.2-376.2 1193.3-684.9Z" style="fill:none" transform="matrix(1,0,0,1,-4151.88,1486.54) matrix(0.0587921,0,0,0.0605659,4006.88,-2439.89)"/><path d="m16381.2 20783.4-77.8-65.7-1186.9 686.2-315.6 370.3 64.8 70.3M15116.5 21403.9l71.4 64.4M16603.5 19488.2l1030-599.3 253.2 41.8-282.9 406.6-912.3 529.6" style="fill:none" transform="matrix(1,0,0,1,-4151.88,1486.54) matrix(0.0587921,0,0,0.0605659,4006.88,-2439.89)"/><path d="m16603.5 19380.8 965.2-554.3 318 104.2M17568.7 18826.5l64.8 62.4" style="fill:none" transform="matrix(1,0,0,1,-4151.88,1486.54) matrix(0.0587921,0,0,0.0605659,4006.88,-2439.89)"/><path d="M14351.4 23053.2V24877M14481.9 23023.7v1820M14481.9 24843.7l-130.5 33.3M14351.4 24877l-130.6-33.3" style="fill:none" transform="matrix(1,0,0,1,-4151.88,1486.54) matrix(0.081134,0,0,0.11852,3808.06,-3999.82)"/><path d="M3785.89 4829.86s-11.17-8.67-15.04-13.52c0 0-19.4 1.64-25.12-11.89 1.53.37 3.15.7 4.85.97.1.02.15.03.15.02 0-.02 9.11 7.43 16.86 5.76 0 0 2.14-.18 2.58-5.04 1.44-.08 2.92-.2 4.44-.34l-.14 7.68c.83 2.07 11.45 8.08 11.45 8.08l-.03 8.28ZM3804.98 4839.6a65.85 65.85 0 0 1-4.21 2.06s-3.9-2.91-1.36-7.56c0 0 2.26-.72 5.61-2.37-.01 2.41-.03 5.05-.04 7.87Z" style="fill:#330c3c" transform="matrix(1,0,0,1,-4151.88,1486.54) matrix(0.7388,0,0,0.7388,1527.28,-4758.89)"/><path d="M3830.43 4816.34s-8.63 14.26-25.45 23.26c.01-2.82.03-5.46.04-7.87 4.97-2.45 12.37-6.96 18.39-14.19 2.25-.28 4.6-.67 7.02-1.2Z" style="fill:#330c3c" transform="matrix(1,0,0,1,-4151.88,1486.54) matrix(0.7388,0,0,0.7388,1527.28,-4758.89)"/><path d="M3805.26 4817.3c-7.76-1.25-13.81-3.84-18.1-6.3l4.21-5.71 14.35 4.03s-.22 6.35-.46 7.98Z" style="fill:#641c4e" transform="matrix(1,0,0,1,-4151.88,1486.54) matrix(0.7388,0,0,0.7388,1527.28,-4758.89)"/><path d="M3787.16 4811c4.29 2.46 10.34 5.05 18.1 6.3-.03.17-.05.29-.08.35-.06.14-.11 5.7-.16 14.08-3.35 1.65-5.61 2.37-5.61 2.37-2.54 4.65 1.36 7.56 1.36 7.56a65.85 65.85 0 0 0 4.21-2.06c-.11 28.29-.16 73.87-.16 73.87-11.95 7.27-19.26.19-19.26.19l.4-101.03 1.2-1.63Z" style="fill:#641c4e" transform="matrix(1,0,0,1,-4151.88,1486.54) matrix(0.7388,0,0,0.7388,1527.28,-4758.89)"/><path d="M3858.59 4674.54s18 55.96-29.64 61.69c0 0 11.71 16.37-10.07 19.69 0 0 15.04 39.78-33.32 27.51 0 0-29.63 36.64-67.61-7.93-.98-6.97.1-12.35.1-12.35-22.12-1.47-12.75-27.28-12.75-27.28-8.04-2.51-25.94-23.72-15.39-46.05s35.06-19.1 35.17-19.53c.11-.43 7.04-27 33.44-35.8 26.4-8.8 47.2 10.93 47.2 10.93 14.89-8.91 20.31 9.15 20.31 9.15 26.24-8.69 32.56 19.97 32.56 19.97Z" style="fill:#848949" transform="matrix(1,0,0,1,-4151.88,1486.54) matrix(0.738458,0,0,0.742345,1529.01,-4775.09)"/><path d="M3717.95 4775.5c37.98 44.57 67.61 7.93 67.61 7.93 48.36 12.27 33.32-27.51 33.32-27.51 21.78-3.32 10.07-19.69 10.07-19.69 47.64-5.73 29.64-61.69 29.64-61.69s19.89-10.98 35.09 18.91c15.21 29.88-9.55 59.23-9.55 59.23 6.26 28.91-25.47 52.61-25.47 52.61-10.4 5.76-19.82 9.21-28.23 11.05l-7.02 1.2c-6.83.85-12.89.61-18.15-.24.24-1.63.46-7.98.46-7.98l-14.35-4.03-4.21 5.71c-5.15-2.95-7.76-5.71-7.76-5.71-1.64.21-3.23.38-4.79.53-1.52.14-3 .26-4.44.34-7.48.45-13.91.15-19.44-.72-.05 0-.1-.01-.15-.02-.83-.15-4.85-.97-4.85-.97-20.44-4.99-26.35-18.69-27.78-28.95Z" style="fill:#62632a" transform="matrix(1,0,0,1,-4151.88,1486.54) matrix(0.7388,0,0,0.7388,1527.28,-4758.89)"/><path d="m4327 3613.52-.25 60.76s4.4 4.25 11.59-.12c0 0 .06-57.27.22-57.62.16-.35.32-5.01.32-5.01l-8.63-2.42-3.25 4.41Z" style="fill:none" transform="matrix(1,0,0,1,-4151.88,1486.54) matrix(1.22859,0,0,1.22859,-991.763,-5642.86)"/><path d="M4323.05 3609.11s16.39 17.29 47.67 0c0 0 19.07-14.25 15.31-31.64 0 0 14.89-17.65 5.74-35.62-9.14-17.97-21.1-11.37-21.1-11.37s-3.8-17.23-19.58-12c0 0-3.26-10.86-12.21-5.51 0 0-12.51-11.86-28.38-6.57-15.88 5.29-20.05 21.26-20.11 21.52-.07.26-14.81-1.68-21.15 11.75-6.34 13.43 4.42 26.19 9.25 27.69 0 0-5.63 15.52 7.67 16.4 0 0-6.2 30.81 36.89 25.35Z" style="fill:none" transform="matrix(1,0,0,1,-4151.88,1486.54) matrix(1.22859,0,0,1.22859,-991.763,-5642.86)"/><path d="M4370.67 3530.48s10.83 33.65-17.82 37.1c0 0 7.04 9.84-6.06 11.84 0 0 9.05 23.92-20.04 16.54 0 0-17.81 22.03-40.65-4.77" style="fill:none" transform="matrix(1,0,0,1,-4151.88,1486.54) matrix(1.15926,0,0,1.22859,-695.924,-5642.86)"/><path d="M4335.09 3626.43s8.37-2.68 14.43-9.96l4.22-.72s-6.06 10.01-17.84 15.23c0 0-2.34-1.75-.81-4.55ZM4326.97 3618.91s-6.38-3.62-6.88-4.87l.08-4.61" style="fill:none" transform="matrix(1,0,0,1,-4151.88,1486.54) matrix(1.22859,0,0,1.22859,-991.763,-5642.86)"/><path d="M4326.95 3623.89s-6.71-5.22-9.04-8.14c0 0-11.67.99-15.11-7.15 0 0 3.02.62 3.01.6 0-.01 5.48 4.46 10.14 3.46 0 0 1.29-.11 1.56-3.03" style="fill:none" transform="matrix(1,0,0,1,-4151.88,1486.54) matrix(1.22859,0,0,1.22859,-991.763,-5642.86)"/><path d="M409.371 278.758v-4.977h-.022c-.137-3.182-2.487-6.506-6.988-9.104l-51.983-30.013c-8.477-4.894-21.419-5.431-28.76-1.192l-18.637 10.965c-3.414 1.971-5.016 4.643-4.925 7.428l-.023-.004v4.737l.013.004c-.012 3.276 2.351 6.734 7.001 9.418l51.983 30.012c8.477 4.895 21.418 5.431 28.759 1.193l18.637-10.965c3.446-1.99 5.047-4.694 4.923-7.507l.022.005Z" style="fill:#460237;fill-rule:nonzero" transform="matrix(1,0,0,1,-4151.88,1486.54) matrix(1.56235,0,0,1.56235,4114.43,-1539.5)"/><path d="m385.789 292.246 18.637-10.966c7.341-4.238 6.412-11.71-2.065-16.603l-51.983-30.013c-8.477-4.894-21.419-5.431-28.76-1.192l-18.637 10.965c-7.34 4.238-6.411 11.71 2.066 16.604l51.983 30.013c8.477 4.894 21.418 5.43 28.759 1.192Z" style="fill:#5a1c4c;fill-rule:nonzero" transform="matrix(1,0,0,1,-4151.88,1486.54) matrix(1.56235,0,0,1.56235,4114.44,-1539.5)"/><path d="m343.856 256.193-25.617-14.79v-49.086l25.617 14.79v49.086Z" style="fill:#4c083d;fill-rule:nonzero" transform="matrix(1,0,0,1,-4151.88,1486.54) matrix(1.56235,0,0,1.56235,4114.44,-1539.5)"/><path d="m343.856 256.193 6.023-3.479v-49.086l-6.023 3.479v49.086Z" style="fill:#772855;fill-rule:nonzero" transform="matrix(1,0,0,1,-4151.88,1486.54) matrix(1.56235,0,0,1.56235,4114.44,-1539.5)"/><path d="m388.066 282.881-25.618-14.791v-49.086l25.618 14.79v49.087Z" style="fill:#4c083d;fill-rule:nonzero" transform="matrix(1,0,0,1,-4151.88,1486.54) matrix(1.56235,0,0,1.56235,4114.44,-1539.5)"/><path d="m388.066 282.881 6.022-3.48v-49.086l-6.022 3.479v49.087Z" style="fill:#772855;fill-rule:nonzero" transform="matrix(1,0,0,1,-4151.88,1486.54) matrix(1.56235,0,0,1.56235,4114.44,-1539.5)"/><path d="M451.838 286.095 262.496 176.778V37.082l189.342 109.316v139.697Z" style="fill:#b75c7d;fill-rule:nonzero" transform="matrix(1,0,0,1,-4151.88,1486.54) matrix(1.56235,0,0,1.56235,4114.44,-1539.5)"/><path d="M451.838 273.781 262.496 164.464V46.576l189.342 109.316v117.889Z" style="fill:#5a1c4c;fill-rule:nonzero" transform="matrix(1,0,0,1,-4151.88,1486.54) matrix(1.56235,0,0,1.56235,4114.44,-1539.5)"/><path d="M359.386 97.645c0 1.415-.993 1.988-2.219 1.281-1.226-.708-2.219-2.428-2.219-3.843s.993-1.988 2.219-1.28c1.226.707 2.219 2.427 2.219 3.842ZM363.692 100.131c0 .653-.458.917-1.023.591-.565-.326-1.023-1.119-1.023-1.772s.458-.917 1.023-.591c.565.327 1.023 1.12 1.023 1.772Z" style="fill:#fff;fill-rule:nonzero" transform="matrix(1,0,0,1,-4151.88,1486.54) matrix(1.56235,0,0,1.56235,4114.44,-1539.5)"/><path d="m457.348 143.17-5.51 3.181v139.744l5.51-3.181V143.17Z" style="fill:#a4416e;fill-rule:nonzero" transform="matrix(1,0,0,1,-4151.88,1486.54) matrix(1.56235,0,0,1.56235,4114.44,-1539.5)"/><path d="m457.348 143.17-5.51 3.181L262.495 37.08l5.511-3.181L457.348 143.17Z" style="fill:#ab4a76;fill-rule:nonzero" transform="matrix(1,0,0,1,-4151.88,1486.54) matrix(1.56235,0,0,1.56235,4114.44,-1539.5)"/><path d="M456.325 350.815c-18.048 10.42-47.31 10.42-65.359 0-7.594-4.383-11.979-9.915-13.183-15.627 1.204-5.71 5.589-11.242 13.183-15.625 18.049-10.421 47.311-10.421 65.36 0 7.593 4.383 11.979 9.914 13.183 15.625-1.204 5.712-5.59 11.243-13.184 15.627Zm23.52-21.727c-1.116-7.36-6.544-14.543-16.301-20.176-22.035-12.723-57.761-12.722-79.796 0-11.019 6.361-16.527 14.699-16.527 23.037v6.483c0 1.295.137 2.586.41 3.85.172.84.39 1.677.676 2.509l.008.034.006.006c2.106 6.095 7.243 11.91 15.426 16.634a58.01 58.01 0 0 0 4.633 2.392l.009.007.012.002c22.156 10.258 54.598 9.461 75.143-2.401 9.742-5.624 15.162-12.794 16.29-20.143a4.59 4.59 0 0 0 .049-.694l-.038-11.54Z" style="fill:#ac3e71;fill-rule:nonzero" transform="matrix(1,0,0,1,-4151.88,1486.54) matrix(1.56235,0,0,1.56235,4114.02,-1505.97)"/><path d="M456.325 354.055c-18.048 10.421-47.31 10.421-65.359 0-18.049-10.42-18.049-27.315 0-37.736 18.049-10.42 47.311-10.42 65.36 0 18.048 10.421 18.048 27.316-.001 37.736Z" style="fill:#ffd8e4;fill-rule:nonzero" transform="matrix(1,0,0,1,-4151.88,1486.54) matrix(1.56235,0,0,1.56235,4114.02,-1505.97)"/><path d="m461.038 319.503-42.218 42.218c5.87.353 11.835.06 17.548-.88l32.112-32.113c-1.403-3.261-3.877-6.4-7.442-9.225ZM467.253 344.038l-8.484 8.484c3.806-2.565 6.639-5.446 8.484-8.484Z" style="fill:#fff;fill-rule:nonzero" transform="matrix(1,0,0,1,-4151.88,1486.54) matrix(1.56235,0,0,1.56235,4114.02,-1505.97)"/><path d="m467.253 344.038-.252-.252-8.484 8.484.451.548c3.841-2.589 6.712-5.504 8.59-8.595l1.535-2.529-2.092 2.092.252.252-.305-.185c-1.812 2.985-4.606 5.832-8.379 8.374l.2.295.252.252 8.484-8.484-.252-.252-.305-.185.305.185Z" style="fill-rule:nonzero" transform="matrix(1,0,0,1,-4151.88,1486.54) matrix(1.56235,0,0,1.56235,4114.02,-1505.97)"/><path d="M456.325 350.815c-18.048 10.42-47.31 10.42-65.359 0-18.049-10.42-18.049-27.315 0-37.735 18.049-10.421 47.311-10.421 65.36-.001 18.048 10.421 18.048 27.316-.001 37.736Zm7.219-41.903c-22.035-12.723-57.761-12.722-79.796 0-22.036 12.722-22.036 33.349-.001 46.07 22.035 12.723 57.762 12.723 79.797 0 22.035-12.721 22.035-33.348 0-46.07Z" style="fill:#e385ab;fill-rule:nonzero" transform="matrix(1,0,0,1,-4151.88,1486.54) matrix(1.56235,0,0,1.56235,4114.02,-1505.97)"/><path d="M362.388 371.377a4.305 4.305 0 0 1 1.572-5.865l16.303-9.412a4.305 4.305 0 0 1 5.864 1.571 4.306 4.306 0 0 1-1.571 5.865l-16.303 9.412a4.306 4.306 0 0 1-5.865-1.571Z" style="fill:#35034e;fill-rule:nonzero" transform="matrix(1,0,0,1,-4151.88,1486.54) matrix(1.56235,0,0,1.56235,4114.02,-1505.97)"/><path d="M313.629 399.941c-2.895-5.014-1.161-11.486 3.854-14.381l39.98-23.082c5.015-2.896 11.486-1.162 14.382 3.853 2.895 5.015 1.161 11.487-3.854 14.383l-39.979 23.082c-5.015 2.894-11.488 1.161-14.383-3.855Z" style="fill:#e385ab;fill-rule:nonzero" transform="matrix(1,0,0,1,-4151.88,1486.54) matrix(1.56235,0,0,1.56235,4114.02,-1505.97)"/><path d="M313.749 389.232c-1.912 3.181-2.097 7.285-.12 10.709 2.046 3.544 5.878 5.44 9.72 5.231.335-2.467-.101-5.391-1.407-8.237-1.892-4.127-5.096-6.981-8.193-7.703Z" style="fill:#ac3e71;fill-rule:nonzero" transform="matrix(1,0,0,1,-4151.88,1486.54) matrix(1.56235,0,0,1.56235,4114.02,-1505.97)"/><path d="m356.71 335.693-82.793 47.801c-5.888 3.4-14.877 3.772-19.975.828l-46.414-26.798c-5.099-2.943-6.354-7.615-.666-12.75l84.893-46.582c5.888-3.399 14.876-3.772 19.974-.828l46.416 24.109c5.097 2.943 4.453 10.822-1.435 14.22Z" style="fill:#f0dea5;fill-rule:nonzero" transform="matrix(1,0,0,1,-4151.88,1486.54) matrix(1.56235,0,0,1.56235,4114.44,-1539.5)"/><path d="m356.71 333.005-82.793 47.801c-5.888 3.398-14.877 3.771-19.975.827l-46.414-26.797c-5.099-2.944-4.453-8.134 1.434-11.532l82.793-47.801c5.888-3.399 14.876-3.772 19.974-.828l46.416 26.798c5.097 2.943 4.453 8.132-1.435 11.532Z" style="fill:#fff2c8;fill-rule:nonzero" transform="matrix(1,0,0,1,-4151.88,1486.54) matrix(1.56235,0,0,1.56235,4114.44,-1539.5)"/><path d="m208.219 355.234 81.347-13.194 22.854-46.966 5.535 3.196-21.27 47.879-83.531 11.935-4.935-2.85Z" style="fill:#f0dea5;fill-rule:nonzero" transform="matrix(1,0,0,1,-4151.88,1486.54) matrix(1.56235,0,0,1.56235,4114.44,-1539.5)"/><path d="m272.705 344.774-5.18.841-14.273 35.619.69.399c1.763 1.018 3.995 1.63 6.4 1.867l12.363-38.726ZM294.303 332.306l1.455-2.992 61.695-8.241c2.004 1.157 3.268 2.585 3.805 4.084l-66.955 7.149Z" style="fill:#f0dea5;fill-rule:nonzero" transform="matrix(1,0,0,1,-4151.88,1486.54) matrix(1.56235,0,0,1.56235,4114.44,-1539.5)"/><path d="m4457.4-1220.4-17.35 10.01c-.07-.04-.13-.08-.19-.12-4.94-2.98-8.06-1.62-8.06-1.62 3.07-1.96 5.51-2.57 11.13-6.54 5.83-4.12 9.24-4.18 14.47-1.73Z" style="fill:#6e113c" transform="matrix(1,0,0,1,-4151.88,1486.54)"/><path d="m4532.15-1161.36-17.27 10.43v-.09c-.6-14.31-8.58-20.88-13.47-23.91l17.13-10c1.5 1.06 2.82 2.11 3.9 3.14 7 6.69 9 12.88 9.62 19.48l.09.95Z" style="fill:#af517c" transform="matrix(1,0,0,1,-4151.88,1486.54)"/><path d="M4511.99-1073.09c1.5-2.57 1.68-2.91 2.56-7.41.88-4.49.08-16.38.33-35 .25-18.16.74-17.55 0-35.43l17.27-10.43c.52 6.29.39 12.65.15 20.05-.24 7.77.13 35.44.17 45.25.04 9.81-.78 11.62-3.8 13.78-3.02 2.16-6.47 4.61-14.18 8.01-.96.42-1.78.82-2.5 1.18Z" style="fill:#922c5b" transform="matrix(1,0,0,1,-4151.88,1486.54)"/><path d="m4518.54-1184.93-17.13 10c-.03-.02-.07-.04-.1-.06-1.07-.66-1.98-1.14-2.63-1.5-3.62-2.01-22.19-12.82-26.95-15.7-4.71-2.85-26.39-15.03-31.68-18.2l17.35-10.01c.86.4 1.76.87 2.73 1.4 6.91 3.76 19.54 11.08 28.75 16.99 7.79 5 21.42 11.22 29.66 17.08Z" style="fill:#821d4c" transform="matrix(1,0,0,1,-4151.88,1486.54)"/><path d="m4442.98-1167.27 11.46 5.91-.38 43.27-11.48-6.64.4-42.54ZM4461.73-1156.17l10.89 6.04.24 6.09c2.33-2.51 3.17-2.29 6-2.49 2.82-.2 7.99 3.55 11.8 6.86 3.81 3.31 6.4 11.45 7.02 16.85.62 5.4-.25 30-.25 30l-11.12-6.77s-.49-16.96-.25-21.76c.23-4.81-.93-8.76-2.48-10.99-1.55-2.24-5.31-4.29-8.22-2.98-2.91 1.31-2.23 8.03-2.23 8.03l.07 20.25-11.73-6.68.26-42.45Z" style="fill:#fff" transform="matrix(1,0,0,1,-4151.88,1486.54)"/><path d="M4431.8-1212.13s3.12-1.36 8.06 1.62c.06.04.12.08.19.12 5.29 3.17 26.97 15.35 31.68 18.2 4.76 2.88 23.33 13.69 26.95 15.7.65.36 1.56.84 2.63 1.5 4.88 3 12.97 9.56 13.57 23.97.75 17.97.25 17.33 0 35.52-.25 18.62.55 30.51-.33 35-.88 4.5-1.06 4.84-2.56 7.41-4.98 2.52-4.74 3.31-12.01-.11-8.3-3.9-55.6-29.22-65.41-39.04-9.81-9.83-8.52-20.71-8.52-20.71l.08-69.53c.87-2.44-.58-4.93 3.64-8.22.73-.56 1.39-1.03 2.03-1.43Zm11.18 44.86-.4 42.54 11.48 6.64.38-43.27-11.46-5.91Zm18.75 11.1-.26 42.45 11.73 6.68-.07-20.25s-.68-6.72 2.23-8.03c2.91-1.31 6.67.74 8.22 2.98 1.55 2.23 2.71 6.18 2.48 10.99-.24 4.8.25 21.76.25 21.76l11.12 6.77s.87-24.6.25-30c-.62-5.4-3.21-13.54-7.02-16.85-3.81-3.31-8.98-7.06-11.8-6.86-2.83.2-3.67-.02-6 2.49l-.24-6.09-10.89-6.04Zm-18.09-30.1c-2.67 1.55-2.66 6.58.03 11.24 2.7 4.65 7.05 7.17 9.72 5.62 2.68-1.54 2.66-6.58-.03-11.23s-7.05-7.17-9.72-5.63Z" style="fill:#ac3e71" transform="matrix(1,0,0,1,-4151.88,1486.54)"/><path d="m4426.13-1202.48-.08 69.53s-1.29 10.88 8.52 20.71c9.81 9.82 57.11 35.14 65.41 39.04 8.31 3.91 6.8 2.32 14.51-1.07 7.71-3.4 11.16-5.85 14.18-8.01 3.02-2.16 3.84-3.97 3.8-13.78-.04-9.81-.41-37.48-.17-45.25.25-7.78.38-14.4-.24-21s-2.62-12.79-9.62-19.48c-7.01-6.7-24.35-14.31-33.56-20.22-9.21-5.91-21.84-13.23-28.75-16.99-6.91-3.76-10.42-4.46-17.2.33-6.78 4.79-8.93 4.69-13.16 7.97-4.22 3.29-2.77 5.78-3.64 8.22Z" style="fill:none" transform="matrix(1,0,0,1,-4151.88,1486.54)"/><path d="M4431.8-1212.13s3.12-1.36 8.06 1.62c4.93 2.98 27.1 15.43 31.87 18.32 4.76 2.88 23.33 13.69 26.95 15.7 3.61 2 15.47 7.9 16.2 25.47.75 17.97.25 17.33 0 35.52-.25 18.62.55 30.51-.33 35-.88 4.5-1.06 4.84-2.56 7.41M4440.05-1210.39l17.35-10.01M4501.41-1174.93l17.13-10M4514.88-1150.93l17.27-10.43M4442.98-1167.27l-.4 42.54 11.48 6.64.38-43.27-11.46-5.91Z" style="fill:none" transform="matrix(1,0,0,1,-4151.88,1486.54)"/><path d="m4461.73-1156.17-.26 42.45 11.73 6.68-.07-20.25s-.68-6.72 2.23-8.03c2.91-1.31 6.67.74 8.22 2.98 1.55 2.23 2.71 6.18 2.48 10.99-.24 4.8.25 21.76.25 21.76l11.12 6.77s.87-24.6.25-30c-.62-5.4-3.21-13.54-7.02-16.85-3.81-3.31-8.98-7.06-11.8-6.86-2.83.2-3.67-.02-6 2.49l-.24-6.09-10.89-6.04Z" style="fill:none" transform="matrix(1,0,0,1,-4151.88,1486.54)"/><ellipse cx="4448.49" cy="-1176.37" rx="6.306" ry="8.561" style="fill:#fff" transform="matrix(1,0,0,1,-4151.88,1486.54) matrix(0.767957,-0.444344,0.569712,0.98463,1702.46,1957.11)"/><path d="m321.139 1140.74 16.408-9.14-.09 38.57c-8.146 3.63-16.48-.59-16.48-.59l.162-28.84ZM243.938 1183.73l14.791-8.23-.581 41.9c-10.137 4.37-14.95-.83-14.95-.83l.74-32.84Z" style="fill:#330c3c" transform="matrix(1,0,0,1,-4151.88,1486.54) matrix(0.692849,0,0,0.692849,4164.42,-1857.84)"/><path d="m-4999.49 6749.06 17.77 11.57-.86 40.61-18.36-15.67 1.45-36.51Z" style="fill:#f2f2f2" transform="matrix(1,0,0,1,-4151.88,1486.54) matrix(0.370099,0,0,0.370099,6168.62,-3573.68)"/><path d="m-4999.49 6749.06 24.11-14.32c.24-.05 19.33 10.99 19.46 10.97l-25.8 14.92-17.77-11.57ZM-4930.93 6708.35l39.41-23.4 19.4 12.29-41.33 23.9-17.48-12.79ZM-4851.07 6660.94l44.36-26.34 17.27 14.82-42.7 24.7-18.93-13.18Z" style="fill:#f2f2f2" transform="matrix(1,0,0,1,-4151.88,1486.54) matrix(0.370099,0,0,0.370099,6168.62,-3573.68)"/><path d="M-4958.62 6852.18c-.14-.25-23.96-50.94-23.96-50.94l.86-40.61 25.8-14.92c.12-.02 37.93 83.85 37.93 83.85l-40.63 22.62ZM-4872.43 6804.18s0 .01 0 0c-.5-.3-41.02-83.04-41.02-83.04l41.33-23.9s39.5 84.17 39.68 84.68l-39.99 22.26ZM-4789.28 6757.88c-.23-.44-42.86-83.76-42.86-83.76l42.7-24.7 30.96 65.11.17 26.1-30.97 17.25Z" style="fill:#fff" transform="matrix(1,0,0,1,-4151.88,1486.54) matrix(0.370099,0,0,0.370099,6168.62,-3573.68)"/><path d="m-4891.52 6684.95 40.45-24.01 18.93 13.18-39.98 23.12-19.4-12.29ZM-4975.38 6734.74l44.45-26.39 17.48 12.79-42.47 24.57c-.13.02-19.22-11.02-19.46-10.97ZM-5000.94 6785.57l18.36 15.67-1.39 65.06-19.74-11.04 2.77-69.69Z" style="fill:#ae4854" transform="matrix(1,0,0,1,-4151.88,1486.54) matrix(0.370099,0,0,0.370099,6168.62,-3573.68)"/><path d="m-4983.97 6866.3 1.39-65.06s23.82 50.69 23.96 50.94l-25.35 14.12ZM-4758.48 6714.53l-30.96-65.11 30.42-17.6.54 82.71ZM-4832.44 6781.92c-.18-.51-39.68-84.68-39.68-84.68l39.98-23.12s42.63 83.32 42.86 83.76l-24.82 13.82-18.34 10.22ZM-4917.99 6829.56s-37.81-83.87-37.93-83.85l42.47-24.57s40.52 82.74 41.02 83.04l-45.56 25.38Z" style="fill:#e25969" transform="matrix(1,0,0,1,-4151.88,1486.54) matrix(0.370099,0,0,0.370099,6168.62,-3573.68)"/><path d="m-4981.72 6760.63-2.25 105.67 225.66-125.67-.71-108.81-222.7 128.81ZM-4981.72 6760.63l-17.77-11.57-4.22 106.2 19.74 11.04" style="fill:none" transform="matrix(1,0,0,1,-4151.88,1486.54) matrix(0.370099,0,0,0.370099,6168.62,-3573.68)"/><path d="m-4958.62 6852.18-1.39 61.48s9.01 9.72 27.99 1.55l1.09-78.45M-4814.1 6771.7l-.3 54s15.6 7.89 30.85 1.11l.17-72.22M-5000.94 6785.57l18.36 15.67s23.82 50.69 23.96 50.94M-4975.38 6734.74c.24-.05 19.33 10.99 19.46 10.97.12-.02 37.93 83.85 37.93 83.85M-4930.93 6708.35l17.48 12.79M-4913.45 6721.14s40.97 83.66 41.02 83.04M-4891.52 6684.95l19.4 12.29s39.96 85.15 39.68 84.68" style="fill:none" transform="matrix(1,0,0,1,-4151.88,1486.54) matrix(0.370099,0,0,0.370099,6168.62,-3573.68)"/><path d="m-4851.07 6660.94 18.93 13.18s42.63 83.32 42.86 83.76M-4806.71 6634.6l17.27 14.82 31.15 65.52" style="fill:none" transform="matrix(1,0,0,1,-4151.88,1486.54) matrix(0.370099,0,0,0.370099,6168.62,-3573.68)"/><path d="m-4806.71 6634.6 27.77-16.49 19.92 13.71-30.42 17.6-17.27-14.82Z" style="fill:#ae4854" transform="matrix(1,0,0,1,-4151.88,1486.54) matrix(0.370099,0,0,0.370099,6168.63,-3573.62)"/></svg>