<svg viewBox="0 0 181 146" xmlns="http://www.w3.org/2000/svg" xml:space="preserve" style="fill-rule:evenodd;clip-rule:evenodd;stroke-linejoin:round;stroke-miterlimit:2"><path d="M-1386.67 3326.54c23.87-61.95 110.32-106.41 212-103.86 118.64 2.97 213.375 68.82 211.419 146.96-.341 13.62-3.597 26.72-9.369 39.05-177.19-178-414.05-82.15-414.05-82.15Z" style="fill:#641c4c" transform="matrix(1,0,0,1,-2608.06,645.255) matrix(0.418622,0,0,0.418622,3191.29,-1968.41)"/><path d="M-972.62 3408.69c-27.346 58.42-111.17 99.6-209.14 97.15-118.64-2.97-213.37-68.82-211.42-146.96.28-11.18 2.52-22 6.51-32.34 0 0 236.86-95.85 414.05 82.15Z" style="fill:#330c3c" transform="matrix(1,0,0,1,-2608.06,645.255) matrix(0.418622,0,0,0.418622,3191.29,-1968.41)"/><path d="M-877.355 3051.32c21.889-65.25 105.557-113.89 205.307-113.89 116.394 0 210.892 66.22 210.892 147.79 0 14.22-2.871 27.97-8.227 40.98" style="fill:none" transform="matrix(1,0,0,1,-2608.06,645.255) matrix(0.418622,0,0,0.418622,3191.29,-1968.41) matrix(1.01931,0.0255108,-0.0239751,0.957946,-419.223,425.927)"/><path d="M-469.383 3126.2c-25.378 61.67-106.557 106.82-202.665 106.82-116.394 0-210.892-66.23-210.892-147.8 0-11.66 1.932-23.01 5.585-33.9" style="fill:none" transform="matrix(1,0,0,1,-2608.06,645.255) matrix(0.418622,0,0,0.418622,3191.29,-1968.41) matrix(1.01931,0.0255108,-0.0239751,0.957946,-419.223,425.927)"/><path d="M-884.532 3042.99s236.864-95.85 414.053 82.15" style="fill:none" transform="matrix(1,0,0,1,-2608.06,645.255) matrix(0.418622,0,0,0.418622,3191.29,-1968.41) matrix(1,0,0,1,-502.141,283.551)"/><path d="M2657.2-507.531s-41.47-16.309-8.62-101.742c32.86-85.433 145.96-5.343 97.92 100.509 0 0-42.67 19.5-89.3 1.233Z" style="fill:#fc9972" transform="matrix(1,0,0,1,-2608.06,645.255)"/><ellipse cx="2700.26" cy="-593.824" rx="27.751" ry="21.336" style="fill:#ff7c00" transform="matrix(1,0,0,1,-2608.06,645.255) matrix(0.399305,-0.20375,0.45451,0.890742,1912.83,471.423)"/><ellipse cx="2689.66" cy="-556.513" rx="16.771" ry="15.975" style="fill:#fff" transform="matrix(1,0,0,1,-2608.06,645.255) matrix(1,0,0,1,-14.3399,24.3504)"/><ellipse cx="2689.66" cy="-556.513" rx="16.771" ry="15.975" style="fill:#fff" transform="matrix(1,0,0,1,-2608.06,645.255) matrix(1,0,0,1,24.1781,24.3504)"/><ellipse cx="2756.78" cy="-691.85" rx="6.459" ry="6.766" style="fill:#330c3c" transform="matrix(1,0,0,1,-2608.06,645.255) matrix(1,0,0,1,-53.2526,159.687)"/><ellipse cx="2756.78" cy="-691.85" rx="6.459" ry="6.766" style="fill:none" transform="matrix(1,0,0,1,-2608.06,645.255) matrix(0.297649,0,0,0.484827,1884.9,-196.735)"/><ellipse cx="2756.78" cy="-691.85" rx="6.459" ry="6.766" style="fill:#330c3c" transform="matrix(1,0,0,1,-2608.06,645.255) matrix(1,0,0,1,-91.7706,159.687)"/></svg>