<?xml version="1.0" encoding="UTF-8" standalone="no"?>
<!DOCTYPE svg PUBLIC "-//W3C//DTD SVG 1.1//EN" "http://www.w3.org/Graphics/SVG/1.1/DTD/svg11.dtd">
<svg width="100%" height="100%" viewBox="0 0 184 166" version="1.1" xmlns="http://www.w3.org/2000/svg" xmlns:xlink="http://www.w3.org/1999/xlink" xml:space="preserve" xmlns:serif="http://www.serif.com/" style="fill-rule:evenodd;clip-rule:evenodd;stroke-linejoin:round;stroke-miterlimit:2;">
    <g transform="matrix(1,0,0,1,-1650.1,253.92)">
        <g transform="matrix(0.418622,0,0,0.418622,2233.32,-1556.49)">
            <path d="M-1386.67,3326.54C-1362.8,3264.59 -1276.35,3220.13 -1174.67,3222.68C-1056.03,3225.65 -961.295,3291.5 -963.251,3369.64C-963.592,3383.26 -966.848,3396.36 -972.62,3408.69C-1149.81,3230.69 -1386.67,3326.54 -1386.67,3326.54Z" style="fill:rgb(100,28,76);"/>
        </g>
        <g transform="matrix(0.418622,0,0,0.418622,2233.32,-1556.49)">
            <path d="M-972.62,3408.69C-999.966,3467.11 -1083.79,3508.29 -1181.76,3505.84C-1300.4,3502.87 -1395.13,3437.02 -1393.18,3358.88C-1392.9,3347.7 -1390.66,3336.88 -1386.67,3326.54C-1386.67,3326.54 -1149.81,3230.69 -972.62,3408.69Z" style="fill:rgb(51,12,60);"/>
        </g>
        <g transform="matrix(0.418622,0,0,0.418622,2233.32,-1556.49)">
            <g transform="matrix(1,0,0,1,-507.669,283.37)">
                <path d="M-667.278,3222.58C-667.278,3222.58 -600.458,3217.21 -638.817,3044.4C-677.177,2871.6 -557.026,2805.42 -492.544,2835.02C-428.063,2864.63 -441.719,2928.52 -484.178,2941.04C-484.178,2941.04 -471.49,2919.37 -475.934,2904.73C-480.378,2890.1 -501.515,2882.44 -520.364,2889.62C-539.213,2896.81 -552.979,2916.53 -556.051,2937.43C-559.122,2958.33 -562.173,2974.5 -538.053,3027.26C-513.934,3080.02 -506.193,3099.11 -498.48,3124.65C-490.767,3150.2 -491.614,3162.13 -492.867,3163.14C-493.978,3164.04 -501.098,3171.39 -514.335,3180.39C-523.607,3186.69 -535.924,3193.71 -551.086,3200.34C-579.66,3212.83 -618.793,3222.97 -667.278,3222.58Z" style="fill:rgb(252,153,114);"/>
            </g>
        </g>
        <g transform="matrix(0.418622,0,0,0.418622,2233.32,-1556.49)">
            <g transform="matrix(1,0,0,1,-505.04,285.144)">
                <ellipse cx="-596.411" cy="3123.55" rx="15.496" ry="21.866" style="fill:rgb(255,124,0);"/>
            </g>
        </g>
        <g transform="matrix(0.418622,0,0,0.418622,2233.32,-1556.49)">
            <g transform="matrix(1,0,0,1.12448,-513.961,-86.9188)">
                <ellipse cx="-587.872" cy="2920.57" rx="15.878" ry="10.548" style="fill:rgb(255,124,0);"/>
            </g>
        </g>
        <g transform="matrix(0.418622,0,0,0.418622,2233.32,-1556.49)">
            <path d="M-1064.12,3223.53C-1066.9,3242.45 -1068.65,3258.9 -1048.23,3305.06C-1055.2,3305.19 -1075.89,3311.03 -1092.05,3279.93C-1112.21,3241.1 -1064.12,3223.53 -1064.12,3223.53Z" style="fill:rgb(255,124,0);"/>
        </g>
        <g transform="matrix(0.418622,0,0,0.418622,2233.32,-1556.49)">
            <g transform="matrix(1,0,0,1,-507.727,285.149)">
                <path d="M-556.396,2938.38C-556.396,2938.38 -604.489,2955.95 -584.321,2994.78C-568.165,3025.88 -547.474,3020.04 -540.501,3019.91" style="fill:none;"/>
            </g>
        </g>
        <g transform="matrix(0.418622,0,0,0.418622,2233.32,-1556.49)">
            <g transform="matrix(1.01931,0.0255108,-0.0239751,0.957946,-419.223,425.927)">
                <path d="M-877.355,3051.32C-855.466,2986.07 -771.798,2937.43 -672.048,2937.43C-555.654,2937.43 -461.156,3003.65 -461.156,3085.22C-461.156,3099.44 -464.027,3113.19 -469.383,3126.2" style="fill:none;"/>
            </g>
        </g>
        <g transform="matrix(0.418622,0,0,0.418622,2233.32,-1556.49)">
            <g transform="matrix(1.01931,0.0255108,-0.0239751,0.957946,-419.223,425.927)">
                <path d="M-469.383,3126.2C-494.761,3187.87 -575.94,3233.02 -672.048,3233.02C-788.442,3233.02 -882.94,3166.79 -882.94,3085.22C-882.94,3073.56 -881.008,3062.21 -877.355,3051.32" style="fill:none;"/>
            </g>
        </g>
        <g transform="matrix(0.418622,0,0,0.418622,2233.32,-1556.49)">
            <g transform="matrix(1,0,0,1,-502.141,283.551)">
                <path d="M-884.532,3042.99C-884.532,3042.99 -647.668,2947.14 -470.479,3125.14" style="fill:none;"/>
            </g>
        </g>
    </g>
</svg>
