<?xml version="1.0" encoding="UTF-8" standalone="no"?>
<!DOCTYPE svg PUBLIC "-//W3C//DTD SVG 1.1//EN" "http://www.w3.org/Graphics/SVG/1.1/DTD/svg11.dtd">
<svg width="100%" height="100%" viewBox="0 0 4000 4000" version="1.1" xmlns="http://www.w3.org/2000/svg" xmlns:xlink="http://www.w3.org/1999/xlink" xml:space="preserve" xmlns:serif="http://www.serif.com/" style="fill-rule:evenodd;clip-rule:evenodd;stroke-linejoin:round;stroke-miterlimit:2;">
    <rect id="Artboard1" x="0" y="0" width="4000" height="4000" style="fill:none;"/>
    <clipPath id="_clip1">
        <rect id="Artboard11" serif:id="Artboard1" x="0" y="0" width="4000" height="4000"/>
    </clipPath>
    <g clip-path="url(#_clip1)">
        <rect x="0" y="0" width="4000" height="4000" style="fill:rgb(146,44,91);"/>
        <g transform="matrix(0.431394,0,0,0.431394,-15.5135,-4.64622e-14)">
            <path d="M720.102,818.321L698.664,830.795L837.994,914.411L857.526,899.393L720.102,818.321Z" style="fill:white;"/>
        </g>
        <g transform="matrix(0.417518,0,0,0.423087,-22.5493,18.0335)">
            <path d="M720.102,818.321L698.664,830.795L837.994,914.411L857.526,899.393L720.102,818.321Z" style="fill:white;"/>
        </g>
        <g transform="matrix(0.417518,0,0,0.423087,-40.0851,29.4414)">
            <path d="M720.102,818.321L698.664,830.795L837.994,914.411L857.526,899.393L720.102,818.321Z" style="fill:white;"/>
        </g>
        <g transform="matrix(0.431394,0,0,0.431394,-66.5096,31.9623)">
            <path d="M720.102,818.321L698.664,830.795L837.994,914.411L857.526,899.393L720.102,818.321Z" style="fill:white;"/>
        </g>
        <g transform="matrix(0.460562,0,0,0.454695,-106.741,23.9033)">
            <path d="M720.102,818.321L698.664,830.795L837.994,914.411L857.526,899.393L720.102,818.321Z" style="fill:white;"/>
        </g>
        <g id="street" transform="matrix(0.431394,0,0,0.431394,-15.5135,-4.64622e-14)">
            <g>
                <g transform="matrix(1.04699,0,0,1.05572,0,0)">
                    <path d="M208.04,0C208.04,0 205.905,99.824 204.469,166.931C203.674,204.117 184.093,238.42 152.352,258.234C92.165,295.803 0,353.333 0,353.333L0,0L208.04,0Z" style="fill:rgb(237,110,74);"/>
                </g>
                <g transform="matrix(0.994382,0,0,1,0,0)">
                    <path d="M208.04,0C208.04,0 205.976,96.501 204.542,163.525C203.701,202.831 183.034,239.081 149.547,259.984C89.347,297.562 -0,353.333 0,353.333L0,0L208.04,0Z" style="fill:rgb(252,153,114);"/>
                </g>
            </g>
            <g>
                <g transform="matrix(1.0031,0,0,1.02977,-6.00815,-8.17124e-14)">
                    <path d="M475.987,0C475.987,0 474.263,136.126 473.236,217.23C472.772,253.883 452.962,287.72 420.814,306.773C420.813,306.773 420.813,306.773 420.813,306.774C370.426,336.635 339.584,389.852 339.369,447.304C339.154,504.756 369.597,558.191 419.759,588.409C529.089,654.272 657.702,731.75 762.107,794.646C883.964,868.054 1037.93,868.149 1159.88,794.891C1305.53,707.396 1502.82,588.882 1651.21,499.745C1769.05,428.96 1808.47,280.169 1740.53,162.671C1691.58,78.004 1646.47,0 1646.47,0L475.987,0Z" style="fill:rgb(237,110,74);"/>
                </g>
                <path d="M471.455,0C471.455,0 468.421,139.697 466.69,219.377C465.958,253.065 448.204,284.087 419.529,301.783C419.527,301.784 419.526,301.785 419.524,301.786C369.575,332.611 339.291,387.23 339.606,445.924C339.92,504.618 370.788,558.909 421.065,589.196C531.219,655.555 660.718,733.567 765.267,796.549C885.648,869.068 1036.24,869.163 1156.71,796.794C1300.36,710.503 1495.48,593.295 1644.1,504.015C1765.12,431.319 1805.5,275.016 1734.83,152.803C1688.13,72.04 1646.47,0 1646.47,0L471.455,0Z" style="fill:rgb(252,153,114);"/>
            </g>
            <g>
                <g transform="matrix(1.03278,0,0,1.00538,0,-3.50111)">
                    <path d="M0,650.8C0,650.8 361.681,872.596 576.725,1004.47C609.818,1024.76 630.224,1061.31 630.571,1100.9C630.919,1140.49 611.157,1177.4 578.425,1198.3C527.261,1230.98 472.563,1265.91 430.067,1293.05C414.711,1302.86 405.679,1320.39 406.423,1338.95C407.168,1357.51 417.574,1374.22 433.663,1382.69C481.919,1408.12 544.58,1441.13 598.736,1469.66C624.933,1483.46 642.591,1509.89 645.696,1539.97C648.802,1570.04 636.938,1599.7 614.143,1618.84C614.141,1618.84 614.139,1618.84 614.137,1618.84C600.121,1630.61 592.943,1648.93 595.114,1667.39C597.284,1685.85 608.501,1701.89 624.842,1709.89C745.438,1768.95 985.574,1886.55 1154.6,1969.32C1195.63,1989.41 1223.93,2029.53 1229.75,2075.84C1235.57,2122.15 1218.12,2168.33 1183.39,2198.46C1120.6,2252.97 1048.94,2315.17 987.781,2368.26C901.774,2442.92 779.911,2455.51 681.155,2399.94C435.418,2261.67 0,2016.68 0,2016.68L0,650.8Z" style="fill:rgb(237,110,74);"/>
                </g>
                <path d="M0,650.8C0,650.8 366.415,866.454 586.574,996.03C620.947,1016.26 642.262,1052.97 642.792,1092.85C643.322,1132.73 622.989,1169.99 589.166,1191.13C541.373,1221 491.217,1252.34 451.702,1277.03C436.151,1286.75 426.893,1303.96 427.358,1322.29C427.823,1340.63 437.942,1357.35 453.966,1366.27C504.365,1394.31 571.152,1431.48 627.524,1462.85C652.494,1476.74 668.819,1502.25 670.983,1530.74C673.147,1559.23 660.86,1586.91 638.274,1604.42C638.271,1604.42 638.268,1604.42 638.264,1604.42C624.894,1614.79 617.773,1631.28 619.398,1648.12C621.024,1664.96 631.17,1679.79 646.275,1687.4C766.913,1748.21 1018.51,1875.02 1194.19,1963.57C1235.98,1984.64 1264.27,2025.4 1269.38,2071.92C1274.49,2118.43 1255.73,2164.37 1219.52,2194.01C1155.2,2246.63 1082.05,2306.5 1019.56,2357.63C930.83,2430.23 806.918,2441.72 706.353,2386.67C453.098,2248.04 0,2000 0,2000L0,650.8Z" style="fill:rgb(252,153,114);"/>
            </g>
            <g transform="matrix(1.40726,0,0,1.40726,0,3.32779e-14)">
                <g transform="matrix(1.00478,0,0,1.02067,156.617,-309.635)">
                    <path d="M2664.49,1521.33C2605.91,1488.68 2533.78,1490.6 2477.09,1526.33C2212.24,1693.22 1451.29,2172.73 1188.97,2338.03C1169.97,2350 1158.75,2370.91 1159.41,2393.11C1160.07,2415.3 1172.51,2435.53 1192.19,2446.38C1342.98,2529.6 1637.07,2691.9 1774.78,2767.9C1820.44,2793.1 1876.64,2790.82 1920.05,2762.02C2028.4,2690.12 2233.51,2554.01 2335.42,2486.39C2373.01,2461.44 2421.17,2457.85 2462.16,2476.92C2518.63,2503.21 2599.47,2540.84 2655.97,2567.14C2696.64,2586.07 2744.62,2581.16 2780.47,2554.4C2913.32,2455.22 3240.23,2211.16 3412.59,2082.48C3437.06,2064.22 3450.55,2035.07 3448.5,2004.91C3446.45,1974.75 3429.14,1947.63 3402.42,1932.74C3210.4,1825.68 2839.15,1618.71 2664.49,1521.33Z" style="fill:rgb(237,110,74);"/>
                </g>
                <g transform="matrix(1,0,0,1,161.908,-279.284)">
                    <path d="M2664.31,1521.24C2605.75,1488.59 2534.01,1490.68 2477.46,1526.68C2214.52,1694.07 1460.66,2174 1197.72,2341.39C1178.5,2353.62 1167.16,2375.09 1167.89,2397.86C1168.61,2420.63 1181.3,2441.33 1201.25,2452.31C1351.39,2534.95 1639.76,2693.68 1775.35,2768.32C1820.78,2793.32 1876.33,2791.03 1919.54,2762.36C2027.88,2690.46 2233.83,2553.8 2335.78,2486.15C2373.22,2461.3 2420.89,2457.72 2461.63,2476.68C2518.3,2503.06 2599.79,2540.99 2656.48,2567.38C2696.92,2586.2 2744.44,2581.3 2780.18,2554.61C2912.11,2456.12 3236.45,2213.98 3409.68,2084.65C3434.59,2066.06 3448.38,2036.11 3446.32,2005.1C3444.26,1974.09 3426.63,1946.23 3399.48,1931.1C3206.57,1823.55 2838.01,1618.08 2664.31,1521.24Z" style="fill:rgb(252,153,114);"/>
                </g>
            </g>
            <g transform="matrix(1.40726,0,0,1.40726,0,3.32779e-14)">
                <g transform="matrix(1.00198,0,0,1.02155,114.501,-266.959)">
                    <path d="M463.981,2945.59C517.02,2978.24 585.238,2974.74 634.521,2936.85C737.434,2857.74 912.917,2722.83 1017.25,2642.62C1036.47,2627.85 1047.01,2604.71 1045.4,2580.81C1043.79,2556.91 1030.25,2535.33 1009.21,2523.16C912.271,2467.07 763.885,2381.21 684.901,2335.51C652.44,2316.73 611.554,2319.42 581.943,2342.29C488.679,2414.3 285.264,2571.38 173.06,2658.02C155.145,2671.86 145.209,2693.37 146.423,2715.7C147.637,2738.04 159.849,2758.39 179.162,2770.28C260.054,2820.07 381.742,2894.97 463.981,2945.59Z" style="fill:rgb(237,110,74);"/>
                </g>
                <g transform="matrix(1,0,0,1,113.713,-221.857)">
                    <path d="M465.025,2946.23C517.619,2978.6 584.742,2975.12 633.704,2937.48C735.703,2859.07 909.901,2725.15 1014.8,2644.51C1034.38,2629.46 1045.17,2605.62 1043.55,2580.97C1041.93,2556.32 1028.13,2534.1 1006.75,2521.73C909.5,2465.46 762.397,2380.35 684.244,2335.13C652.073,2316.52 611.843,2319.2 582.426,2341.91C490.004,2413.28 288.176,2569.13 175.323,2656.28C157.063,2670.38 146.892,2692.54 148.112,2715.58C149.332,2738.62 161.788,2759.59 181.434,2771.68C262.665,2821.68 383.538,2896.08 465.025,2946.23Z" style="fill:rgb(252,153,114);"/>
                </g>
            </g>
            <g transform="matrix(1.40726,0,0,1.40726,0,3.32779e-14)">
                <g transform="matrix(1.01468,0,0,1.0299,-35.6178,-88.3561)">
                    <path d="M0,1690.74C6.117,1693.82 307.188,1865.36 479.052,1963.32C504.993,1977.91 521.695,2004.43 523.45,2033.81C525.204,2063.19 511.774,2091.45 487.749,2108.94C315.871,2234.06 0,2463.99 0,2463.99C0,2463.99 -8.57,1686.43 0,1690.74Z" style="fill:rgb(237,110,74);"/>
                </g>
                <g transform="matrix(1,0,0,1,-32.4585,-37.6855)">
                    <path d="M0,1690.74C6.071,1693.79 302.629,1862.76 475.112,1961.07C501.722,1976.04 518.891,2003.51 520.676,2033.98C522.462,2064.46 508.618,2093.75 483.937,2111.71C311.246,2237.43 0,2463.99 0,2463.99C0,2463.99 -8.57,1686.43 0,1690.74Z" style="fill:rgb(252,153,114);"/>
                </g>
            </g>
            <g transform="matrix(1.40726,0,0,1.40726,0,3.32779e-14)">
                <g transform="matrix(1.00888,0,0,1.02435,137.599,-364.686)">
                    <path d="M1373.26,2782.76C1312.43,2748.59 1236.48,2755.05 1182.49,2798.98C1081.93,2880.8 919.726,3012.8 818.332,3095.3C797.809,3112 787.084,3137.68 789.73,3163.77C792.377,3189.86 808.048,3212.93 831.52,3225.3C1051.57,3341.28 1557.47,3607.91 1758.81,3714.03C1811.02,3741.55 1874.42,3738.28 1923.43,3705.54C2015.16,3644.25 2167.59,3542.43 2279.88,3467.41C2310.55,3446.92 2328.31,3412.3 2326.87,3375.83C2325.44,3339.36 2305,3306.2 2272.81,3288.11C2034.85,3154.43 1576.36,2896.86 1373.26,2782.76Z" style="fill:rgb(237,110,74);"/>
                </g>
                <g transform="matrix(1,0,0,1,154.516,-297.847)">
                    <path d="M1373.01,2782.62C1312.17,2748.45 1236.62,2754.93 1182.49,2798.97C1082.85,2880.05 922.674,3010.4 821.115,3093.04C800.131,3110.11 789.116,3136.58 791.79,3163.5C794.464,3190.42 810.47,3214.21 834.403,3226.82C1056.05,3343.64 1558.76,3608.6 1759.06,3714.16C1811.23,3741.66 1874.27,3738.38 1923.31,3705.62C2013.9,3645.1 2163.8,3544.96 2275.72,3470.18C2307.03,3449.27 2325.22,3413.6 2323.77,3375.98C2322.32,3338.36 2301.43,3304.19 2268.61,3285.75C2029.39,3151.37 1574.8,2895.98 1373.01,2782.62Z" style="fill:rgb(252,153,114);"/>
                </g>
            </g>
        </g>
        <g transform="matrix(0.431394,0,0,0.431394,-15.5135,-4.64622e-14)">
            <path d="M851.032,640.262L963.379,709.705L785.919,808.966L873.932,862.062L887.917,869.945L1156.6,706.623L945.028,580.804L851.032,640.262Z" style="fill:rgb(253,185,165);"/>
        </g>
        <g transform="matrix(0.432933,0,0,0.461084,-10.0692,-25.2956)">
            <path d="M521.815,959.053L172.649,1150.14L181.055,1267.47L621.994,1014.59L521.815,959.053Z" style="fill:rgb(253,185,165);"/>
        </g>
        <g id="bakery" transform="matrix(0.431394,0,0,0.431394,-15.5135,-4.64622e-14)">
            <g transform="matrix(1,0,0,1,-322.879,-241.77)">
                <path d="M917.155,528.979L1146.75,400.173L1268.54,471.942L1042.09,603.988L917.155,528.979Z" style="fill:rgb(146,44,91);"/>
            </g>
            <g transform="matrix(1,0,0,1,-322.879,-241.77)">
                <path d="M1274.11,824.893L1272.65,683.156C1280.99,670.839 1285.45,658.607 1287.74,647.832C1287.74,647.832 1303.92,671.773 1318.92,659.181C1330.67,649.313 1345.39,638.452 1349.19,608.375C1349.19,608.375 1351.16,613.653 1354.96,618.801L1354.38,778.033L1274.11,824.893Z" style="fill:rgb(146,44,91);"/>
            </g>
            <g transform="matrix(1,0,0,1,-322.879,-241.77)">
                <path d="M1230.04,850.623L1228.22,688.525C1234.03,694.555 1253.69,711.16 1272.63,683.19L1272.65,683.156L1274.11,824.893L1230.04,850.623Z" style="fill:rgb(51,12,60);"/>
            </g>
            <g transform="matrix(1,0,0,1,-322.879,-241.77)">
                <path d="M1180.36,879.624L1182.93,733.494C1189.93,734.358 1198.23,732.523 1206.51,724.047C1217.77,712.524 1223.84,700.212 1226.51,686.611C1226.51,686.611 1227.11,687.376 1228.22,688.525L1230.04,850.623L1180.36,879.624Z" style="fill:rgb(51,12,60);"/>
            </g>
            <g transform="matrix(1,0,0,1,-322.879,-241.77)">
                <path d="M1355.09,489.17L1051.81,667.832L1051.78,641.025L1355.09,463.507L1355.09,489.17Z" style="fill:rgb(51,12,60);"/>
            </g>
            <g transform="matrix(1,0,0,1,-322.879,-241.77)">
                <path d="M1268.54,471.942L1146.75,400.173L917.155,528.979L891.05,513.306L1141.72,372.293L1288.98,460.022L1268.54,471.942Z" style="fill:rgb(99,27,75);"/>
            </g>
            <g transform="matrix(1,0,0,1,-322.879,-241.77)">
                <path d="M826.586,513.174L1141.32,337.315L1355.09,463.507L1051.78,641.025L826.586,513.174ZM1042.09,603.988L1288.98,460.022L1141.72,372.293L891.05,513.306L1042.09,603.988Z" style="fill:rgb(175,62,103);"/>
            </g>
            <g transform="matrix(1,0,0,1,-322.879,-241.77)">
                <path d="M1052.18,954.451L1051.81,667.885L1104.58,718.538C1104.58,718.538 1094.43,786.463 1134.08,767.189C1153.63,757.69 1161.66,741.028 1164.75,724.699C1165.2,725.14 1172.66,732.225 1182.93,733.494L1180.36,879.624L1052.18,954.451Z" style="fill:rgb(146,44,91);"/>
            </g>
            <g transform="matrix(1,0,0,1,-322.879,-241.77)">
                <path d="M1272.65,683.156L1274.11,824.893" style="fill:none;"/>
            </g>
            <g transform="matrix(1,0,0,1,-322.879,-241.77)">
                <path d="M1182.93,733.494L1180.36,879.624" style="fill:none;"/>
            </g>
            <g transform="matrix(1,0,0,1,-322.879,-241.77)">
                <path d="M984.073,703.9L908.573,761.72L905.338,764.311" style="fill:none;"/>
            </g>
            <g transform="matrix(1,0,0,1,-322.879,-241.77)">
                <path d="M942.8,680.073L865.076,739.064" style="fill:none;"/>
            </g>
            <g transform="matrix(1,0,0,1,-322.879,-241.77)">
                <path d="M923.509,668.935L865.266,711.485" style="fill:none;"/>
            </g>
            <g transform="matrix(1,0,0,1,-322.879,-241.77)">
                <path d="M890.528,649.894L865.564,668.145" style="fill:none;"/>
            </g>
            <g transform="matrix(1,0,0,1,-322.879,-241.77)">
                <path d="M1349.19,608.375C1350.23,600.072 1350.45,590.304 1349.54,578.688L1349.28,578.422L1412.25,542.236C1412.76,546.928 1415.99,585.28 1390.88,615.733C1364.08,648.224 1349.19,608.375 1349.19,608.375Z" style="fill:rgb(224,224,224);"/>
            </g>
            <g transform="matrix(1,0,0,1,-322.879,-241.77)">
                <path d="M1226.51,686.611C1228.78,675.054 1228.6,662.567 1227.07,648.842L1226.79,648.562L1288.95,612.969C1289.5,617.193 1291.38,630.663 1287.74,647.832C1285.45,658.617 1280.98,670.861 1272.63,683.19C1250.08,716.488 1226.51,686.611 1226.51,686.611Z" style="fill:rgb(224,224,224);"/>
            </g>
            <g transform="matrix(1,0,0,1,-322.879,-241.77)">
                <path d="M1051.78,667.852L1355.09,489.17L1412.2,541.758C1412.2,541.758 1412.22,541.922 1412.25,542.236L1349.28,578.422L1104.58,718.538L1051.78,667.852Z" style="fill:none;"/>
                <clipPath id="_clip2">
                    <path d="M1051.78,667.852L1355.09,489.17L1412.2,541.758C1412.2,541.758 1412.22,541.922 1412.25,542.236L1349.28,578.422L1104.58,718.538L1051.78,667.852Z"/>
                </clipPath>
                <g clip-path="url(#_clip2)">
                    <path d="M1104.58,718.538L1051.78,667.852L1113.17,631.684L1165.74,683.516L1104.58,718.538Z" style="fill:rgb(231,77,184);"/>
                    <g transform="matrix(1,0,0,1,322.879,241.77)">
                        <path d="M728.934,426.115L728.934,426.062L790.294,389.914L842.862,441.746L781.7,476.768L728.934,426.115Z" style="fill:white;"/>
                    </g>
                    <g transform="matrix(1,0,0,1,322.879,241.77)">
                        <path d="M851.009,354.147L912.888,317.694L965.975,370.463C965.998,370.664 966.03,370.91 966.068,371.199L903.907,406.792L851.009,354.147Z" style="fill:white;"/>
                    </g>
                    <g transform="matrix(1,0,0,1,322.879,241.77)">
                        <path d="M1032.21,247.4L1089.32,299.988C1089.32,299.988 1089.34,300.152 1089.37,300.466L1026.4,336.652L974.026,281.678L1032.21,247.4Z" style="fill:white;"/>
                    </g>
                    <g transform="matrix(1,0,0,1,322.879,241.77)">
                        <path d="M851.009,354.147L903.907,406.792L842.862,441.746L790.294,389.914L851.009,354.147Z" style="fill:rgb(226,89,105);"/>
                    </g>
                    <g transform="matrix(1,0,0,1,322.879,241.77)">
                        <path d="M1026.4,336.652L966.068,371.199C966.03,370.91 965.998,370.664 965.975,370.463L912.888,317.694L974.026,281.678L1026.4,336.652Z" style="fill:rgb(226,89,105);"/>
                    </g>
                </g>
            </g>
            <g transform="matrix(1,0,0,1,-322.879,-241.77)">
                <path d="M1287.74,647.832C1291.38,630.663 1289.5,617.193 1288.95,612.969L1349.28,578.422L1349.54,578.688C1350.45,590.304 1350.23,600.072 1349.19,608.375C1345.39,638.452 1330.67,649.313 1318.92,659.181C1303.92,671.773 1287.74,647.832 1287.74,647.832Z" style="fill:rgb(197,91,104);"/>
            </g>
            <g transform="matrix(1,0,0,1,-322.879,-241.77)">
                <path d="M1164.75,724.699C1167.92,707.895 1165.87,691.444 1165.74,683.516L1226.79,648.562L1227.07,648.842C1228.6,662.567 1228.78,675.054 1226.51,686.611C1223.84,700.212 1217.77,712.524 1206.51,724.047C1186.08,744.963 1165.51,725.44 1164.75,724.699Z" style="fill:rgb(197,91,104);"/>
            </g>
            <g transform="matrix(1,0,0,1,-322.879,-241.77)">
                <path d="M1104.58,718.538L1165.74,683.516C1165.87,691.444 1167.92,707.895 1164.75,724.699C1161.66,741.028 1153.63,757.69 1134.08,767.189C1094.43,786.463 1104.58,718.538 1104.58,718.538Z" style="fill:rgb(224,224,224);"/>
            </g>
            <g transform="matrix(1,0,0,1,-322.879,-241.77)">
                <path d="M1104.58,718.538L1165.74,683.516" style="fill:none;"/>
            </g>
            <g transform="matrix(1,0,0,1,-322.879,-241.77)">
                <path d="M1165.74,683.516L1226.79,648.562" style="fill:none;"/>
            </g>
            <g transform="matrix(1,0,0,1,-322.879,-241.77)">
                <path d="M1226.79,648.562L1288.95,612.969" style="fill:none;"/>
            </g>
            <g transform="matrix(1,0,0,1,-322.879,-241.77)">
                <path d="M1288.95,612.969L1349.28,578.422" style="fill:none;"/>
            </g>
            <g transform="matrix(1,0,0,1,-322.879,-241.77)">
                <path d="M1349.28,578.422L1412.25,542.236" style="fill:none;"/>
            </g>
            <g transform="matrix(1,0,0,1,-322.879,-241.77)">
                <path d="M1349.19,608.375C1349.19,608.375 1364.08,648.224 1390.88,615.733C1417.67,583.242 1412.2,541.758 1412.2,541.758L1355.09,489.17" style="fill:none;"/>
            </g>
            <g transform="matrix(1,0,0,1,-322.879,-241.77)">
                <path d="M1287.74,647.832C1287.74,647.832 1303.92,671.773 1318.92,659.181C1330.67,649.313 1345.39,638.452 1349.19,608.375" style="fill:none;"/>
            </g>
            <g transform="matrix(1,0,0,1,-322.879,-241.77)">
                <path d="M1349.19,608.375C1350.23,600.072 1350.45,590.304 1349.54,578.688L1349.28,578.422" style="fill:none;"/>
            </g>
            <g transform="matrix(1,0,0,1,-322.879,-241.77)">
                <path d="M1349.28,578.422L1296.9,523.448" style="fill:none;"/>
            </g>
            <g transform="matrix(1,0,0,1,-322.879,-241.77)">
                <path d="M1226.51,686.611C1226.51,686.611 1250.08,716.488 1272.63,683.19C1280.98,670.861 1285.45,658.617 1287.74,647.832" style="fill:none;"/>
            </g>
            <g transform="matrix(1,0,0,1,-322.879,-241.77)">
                <path d="M1287.74,647.832C1291.38,630.663 1289.5,617.193 1288.95,612.969" style="fill:none;"/>
            </g>
            <g transform="matrix(1,0,0,1,-322.879,-241.77)">
                <path d="M1288.95,612.969C1288.91,612.68 1288.88,612.434 1288.85,612.233L1235.77,559.464" style="fill:none;"/>
            </g>
            <g transform="matrix(1,0,0,1,-322.879,-241.77)">
                <path d="M1164.72,724.677C1164.72,724.677 1164.73,724.685 1164.75,724.699" style="fill:none;"/>
            </g>
            <g transform="matrix(1,0,0,1,-322.879,-241.77)">
                <path d="M1164.75,724.699C1165.51,725.44 1186.08,744.963 1206.51,724.047C1217.77,712.524 1223.84,700.212 1226.51,686.611" style="fill:none;"/>
            </g>
            <g transform="matrix(1,0,0,1,-322.879,-241.77)">
                <path d="M1226.51,686.611C1228.78,675.054 1228.6,662.567 1227.07,648.842L1226.79,648.562" style="fill:none;"/>
            </g>
            <g transform="matrix(1,0,0,1,-322.879,-241.77)">
                <path d="M1226.79,648.562L1173.89,595.917" style="fill:none;"/>
            </g>
            <g transform="matrix(1,0,0,1,-322.879,-241.77)">
                <path d="M1051.78,667.852L1104.58,718.538" style="fill:none;"/>
            </g>
            <g transform="matrix(1,0,0,1,-322.879,-241.77)">
                <path d="M1104.58,718.538C1104.58,718.538 1094.43,786.463 1134.08,767.189C1153.63,757.69 1161.66,741.028 1164.75,724.699" style="fill:none;"/>
            </g>
            <g transform="matrix(1,0,0,1,-322.879,-241.77)">
                <path d="M1164.75,724.699C1167.92,707.895 1165.87,691.444 1165.74,683.516" style="fill:none;"/>
            </g>
            <g transform="matrix(1,0,0,1,-322.879,-241.77)">
                <path d="M1165.74,683.516L1113.17,631.684" style="fill:none;"/>
            </g>
            <g transform="matrix(1,0,0,1,-322.879,-241.77)">
                <path d="M1051.78,667.852L1355.09,489.17" style="fill:none;"/>
            </g>
            <g transform="matrix(1,0,0,1,-322.879,-241.77)">
                <path d="M1355.09,489.17L1355.09,463.507" style="fill:none;"/>
            </g>
            <g transform="matrix(1,0,0,1,-322.879,-241.77)">
                <path d="M917.155,528.979L1146.75,400.173L1268.54,471.942" style="fill:none;"/>
            </g>
            <g transform="matrix(1,0,0,1,-322.879,-241.77)">
                <path d="M891.05,513.306L1141.72,372.293L1288.98,460.022L1042.09,603.988L891.05,513.306Z" style="fill:none;"/>
            </g>
            <g transform="matrix(1,0,0,1,-322.879,-241.77)">
                <path d="M1052.18,954.451L1354.38,778.033L1354.96,618.801" style="fill:none;"/>
            </g>
            <g transform="matrix(1,0,0,1,-322.879,-241.77)">
                <path d="M826.586,513.174L1141.32,337.315L1355.09,463.507L1051.78,641.025" style="fill:none;"/>
            </g>
            <g transform="matrix(1,0,0,1,-322.879,-241.77)">
                <path d="M826.586,513.174L826.502,825.722L1052.18,954.451L1051.78,641.025L826.586,513.174Z" style="fill:none;"/>
                <clipPath id="_clip3">
                    <path d="M826.586,513.174L826.502,825.722L1052.18,954.451L1051.78,641.025L826.586,513.174Z"/>
                </clipPath>
                <g clip-path="url(#_clip3)">
                    <g transform="matrix(1,0,0,1,322.879,241.77)">
                        <path d="M503.698,300.42L728.903,426.08L728.9,426.082L728.934,426.115L729.302,712.681L503.622,583.951L503.698,300.42ZM533.215,376.595L530.99,505.589L682.706,593.38L685.543,463.738L533.215,376.595Z" style="fill:rgb(99,27,75);"/>
                    </g>
                    <g transform="matrix(1,0,0,1,322.879,241.77)">
                        <path d="M542.197,497.294L619.921,438.303L661.193,462.13L585.694,519.95L582.459,522.541L542.18,499.681L542.197,497.294Z" style="fill:rgb(173,62,113);"/>
                    </g>
                    <g transform="matrix(1,0,0,1,322.879,241.77)">
                        <path d="M600.629,427.165L542.386,469.715L542.684,426.375L567.648,408.124L600.629,427.165Z" style="fill:rgb(173,62,113);"/>
                    </g>
                    <g transform="matrix(1,0,0,1,322.879,241.77)">
                        <path d="M582.459,522.541L661.193,462.13L673.931,469.484L672.433,573.607L582.459,522.541Z" style="fill:rgb(146,44,91);"/>
                    </g>
                    <g transform="matrix(1,0,0,1,322.879,241.77)">
                        <path d="M619.921,438.303L542.197,497.294L542.386,469.715L600.629,427.165L619.921,438.303Z" style="fill:rgb(146,44,91);"/>
                    </g>
                    <g transform="matrix(1,0,0,1,322.879,241.77)">
                        <path d="M567.648,408.124L542.684,426.375L542.908,393.841L567.648,408.124Z" style="fill:rgb(146,44,91);"/>
                    </g>
                    <g transform="matrix(1,0,0,1,322.879,241.77)">
                        <path d="M533.215,376.595L685.543,463.738L682.706,593.38L530.99,505.589L533.215,376.595ZM542.908,393.841L542.18,499.681L672.433,573.607L673.931,469.484L542.908,393.841Z" style="fill:rgb(51,12,60);"/>
                    </g>
                    <g transform="matrix(1,0,0,1,322.879,241.77)">
                        <path d="M503.706,271.404L728.9,399.255L728.934,426.062L728.903,426.08L503.698,300.42L503.706,271.404Z" style="fill:rgb(51,12,60);"/>
                    </g>
                </g>
            </g>
            <g transform="matrix(1.00012,6.51783e-05,6.51783e-05,1.00004,-323.011,-241.844)">
                <path d="M826.578,542.19L1051.78,667.847" style="fill:none;"/>
            </g>
        </g>
        <g transform="matrix(0.431394,0,0,0.431394,-15.5135,-4.64622e-14)">
            <path d="M0,1288.64C0,1288.64 202.169,1169.77 199.936,1170C197.702,1170.23 199.936,1509.61 199.936,1509.61L0,1634.07L0,1288.64Z" style="fill:rgb(51,12,60);"/>
        </g>
        <g transform="matrix(0.431394,0,0,0.431394,-15.5135,-4.64622e-14)">
            <path d="M0,1055.6L199.936,1170L0,1288.64L0,1055.6Z" style="fill:rgb(117,37,74);"/>
        </g>
        <g transform="matrix(0.39727,0.0308654,-0.0280825,0.36145,-968.995,368.944)">
            <path d="M2751.35,807.264L2781.02,788.611C2787.49,795.048 2794.48,801.427 2801.06,807.264L2781.69,819.721L2751.35,807.264Z" style="fill:rgb(226,89,105);"/>
            <path d="M2766.18,687.658C2810.06,655.97 2920.26,598.516 2920.26,598.516C2960.37,578.296 3041.05,617.326 3051.16,657.055L2875.24,763.008C2875.24,763.008 2872.46,727.825 2855.71,707.567C2836.94,684.87 2796.94,669.464 2768.67,686.072C2767.81,686.579 2766.98,687.108 2766.18,687.658Z" style="fill:rgb(226,89,105);"/>
            <path d="M2996.88,689.61C3026.59,707.086 3024.65,747.046 3025.83,785.172C3026.83,817.545 2950.25,861.162 2950.25,861.162L2863.63,902.531C2878.5,891.812 2883.42,869.274 2863.6,827.487C2854.45,808.209 2844.01,796.726 2836.63,788.611C2827.07,778.094 2820.78,773.233 2809.81,764.389C2790.36,748.722 2771.23,731.198 2791.57,719.664C2806.14,711.401 2823.12,737.678 2826.43,748.033C2829.73,758.387 2830.07,758.184 2830.07,758.184L2875.24,763.008L2996.88,689.61Z" style="fill:rgb(175,62,103);"/>
            <g transform="matrix(1,0,0,1,2.4252,-1.97715)">
                <g transform="matrix(1,0,0,1,-2.4252,1.97715)">
                    <path d="M2801.06,807.264C2805.47,811.18 2809.7,814.853 2813.48,818.136C2831.31,833.619 2843.85,863.889 2823.21,865.969C2802.57,868.049 2785.39,838.161 2781.69,819.721L2801.06,807.264Z" style="fill:rgb(175,62,103);"/>
                </g>
                <g transform="matrix(1,0,0,1,-2.4252,1.97715)">
                    <path d="M2781.02,788.611C2771.34,779 2762.79,769.259 2758.36,760.993C2749.27,744.012 2740.92,705.147 2766.18,687.658C2766.98,687.108 2767.81,686.579 2768.67,686.072C2796.94,669.464 2836.94,684.87 2855.71,707.567C2872.46,727.825 2875.24,763.008 2875.24,763.008L2830.07,758.184C2830.07,758.184 2829.73,758.387 2826.43,748.033C2823.12,737.678 2806.14,711.401 2791.57,719.664C2771.23,731.198 2790.36,748.722 2809.81,764.389C2820.78,773.233 2827.07,778.094 2836.63,788.611C2844.01,796.726 2854.45,808.209 2863.6,827.487C2883.42,869.274 2878.5,891.812 2863.63,902.531C2862.74,903.166 2861.83,903.759 2860.88,904.312C2843.94,914.211 2807.57,894.884 2780.27,869.637C2752.97,844.39 2751.35,807.264 2751.35,807.264L2781.69,819.721C2785.39,838.161 2802.57,868.049 2823.21,865.969C2843.85,863.889 2831.31,833.619 2813.48,818.136C2809.7,814.853 2805.47,811.18 2801.06,807.264C2794.48,801.427 2787.49,795.048 2781.02,788.611Z" style="fill:rgb(100,28,76);"/>
                </g>
            </g>
        </g>
        <g transform="matrix(1.08683,0,0,1.08683,-3424.7,-336.219)">
            <path d="M3315.98,1028.4L3322.01,1011.31L3325.84,1023.12C3325.84,1023.12 3325.84,1023.12 3325.84,1023.13C3325.8,1023.44 3315.98,1028.4 3315.98,1028.4Z" style="fill:rgb(175,62,103);"/>
            <path d="M3402.51,952.818L3421.44,1023.12L3350.49,1069.8L3328.15,992.549L3402.51,952.818Z" style="fill:rgb(175,62,103);"/>
            <path d="M3306.85,1045.72L3293.52,1040.48L3315.98,986.996L3328.15,992.549L3350.49,1069.8L3337.09,1064.6L3332.31,1048.52L3310.78,1037.52L3306.85,1045.72ZM3315.98,1028.4L3322.01,1011.31L3325.84,1023.12C3325.84,1023.12 3325.84,1023.12 3325.84,1023.13L3329.67,1034.93L3315.98,1028.4Z" style="fill:rgb(100,28,76);"/>
            <g transform="matrix(-1.14818,0,0,1.08458,5600.16,-1582.1)">
                <g transform="matrix(-0.870947,0,0,0.922016,4877.45,1458.72)">
                    <path d="M3315.98,1028.4L3329.67,1034.93L3325.84,1023.13C3325.8,1023.44 3315.98,1028.4 3315.98,1028.4Z" style="fill:rgb(226,89,105);"/>
                </g>
                <g transform="matrix(-0.870947,0,0,0.922016,4877.45,1458.72)">
                    <path d="M3315.98,986.996L3389.32,945.888L3402.51,952.818L3328.15,992.549L3315.98,986.996Z" style="fill:rgb(226,89,105);"/>
                </g>
                <g transform="matrix(-0.870947,0,0,0.922016,4877.45,1458.72)">
                    <path d="M3315.98,1040.17L3306.85,1045.72L3310.78,1037.52L3315.98,1040.17Z" style="fill:rgb(175,62,103);"/>
                </g>
            </g>
        </g>
        <g transform="matrix(1.08683,0,0,1.08683,-3716.61,-506.008)">
            <path d="M3635.39,1175.04L3711.1,1130.69L3721.6,1137.41L3647.46,1181.97L3635.39,1175.04Z" style="fill:rgb(226,89,105);"/>
            <path d="M3730.33,1156.33L3742.05,1148.7L3753.66,1156.33L3679.05,1199.58L3667.91,1192.1L3730.33,1156.33Z" style="fill:rgb(226,89,105);"/>
            <path d="M3753.66,1156.33L3753.66,1217.38L3677.8,1259.71L3679.05,1199.58L3753.66,1156.33Z" style="fill:rgb(175,62,103);"/>
            <path d="M3721.6,1137.41L3730.33,1156.33L3667.91,1192.1L3667.04,1230.63L3647.46,1181.97L3721.6,1137.41Z" style="fill:rgb(175,62,103);"/>
            <path d="M3677.8,1259.71L3665.58,1251.25L3646.98,1203.94L3646.75,1240.76L3634.78,1235.48L3635.39,1175.04L3647.46,1181.97L3667.04,1230.63L3667.91,1192.1L3679.05,1199.58L3677.8,1259.71Z" style="fill:rgb(100,28,76);"/>
        </g>
        <g transform="matrix(1.08683,0,0,1.08683,-3652.01,-469.732)">
            <path d="M3635.39,1175.04L3711.1,1130.69L3721.6,1137.41L3647.46,1181.97L3635.39,1175.04Z" style="fill:rgb(226,89,105);"/>
            <path d="M3730.33,1156.33L3742.05,1148.7L3753.66,1156.33L3679.05,1199.58L3667.91,1192.1L3730.33,1156.33Z" style="fill:rgb(226,89,105);"/>
            <path d="M3753.66,1156.33L3753.66,1217.38L3677.8,1259.71L3679.05,1199.58L3753.66,1156.33Z" style="fill:rgb(175,62,103);"/>
            <path d="M3721.6,1137.41L3730.33,1156.33L3667.91,1192.1L3667.04,1230.63L3647.46,1181.97L3721.6,1137.41Z" style="fill:rgb(175,62,103);"/>
            <path d="M3677.8,1259.71L3665.58,1251.25L3646.98,1203.94L3646.75,1240.76L3634.78,1235.48L3635.39,1175.04L3647.46,1181.97L3667.04,1230.63L3667.91,1192.1L3679.05,1199.58L3677.8,1259.71Z" style="fill:rgb(100,28,76);"/>
        </g>
        <g transform="matrix(1.08683,0,0,1.08683,-3342.55,-635.851)">
            <path d="M3419.74,1420.45C3419.13,1420.09 3419.93,1405.55 3419.93,1405.55L3431.67,1411.92C3429.9,1413.38 3424.25,1416.82 3419.74,1420.45Z" style="fill:rgb(175,62,103);"/>
            <path d="M3498.11,1384.65C3498.89,1384.69 3512.6,1395.85 3512.6,1395.85L3442.93,1434.99C3442.93,1434.99 3420.36,1420.83 3419.74,1420.45C3424.25,1416.82 3429.9,1413.38 3431.67,1411.92L3439.93,1416.4L3498.11,1384.65Z" style="fill:rgb(226,89,105);"/>
            <path d="M3419.62,1395.87L3419.47,1381.35L3431.06,1388.52L3419.62,1395.87Z" style="fill:rgb(175,62,103);"/>
            <clipPath id="_clip4">
                <path d="M3419.62,1395.87L3419.47,1381.35L3431.06,1388.52L3419.62,1395.87Z"/>
            </clipPath>
            <g clip-path="url(#_clip4)">
                <path d="M3419.62,1395.87L3419.47,1381.35L3431.06,1388.52L3419.62,1395.87Z" style="fill:rgb(175,62,103);"/>
            </g>
            <path d="M3507.55,1358.88L3515.26,1364.98L3440.08,1407.21L3419.62,1395.87L3431.06,1388.52L3442.93,1395.85L3507.55,1358.88Z" style="fill:rgb(226,89,105);"/>
            <clipPath id="_clip5">
                <path d="M3507.55,1358.88L3515.26,1364.98L3440.08,1407.21L3419.62,1395.87L3431.06,1388.52L3442.93,1395.85L3507.55,1358.88Z"/>
            </clipPath>
            <g clip-path="url(#_clip5)">
                <path d="M3419.62,1395.87L3419.47,1381.35L3431.06,1388.52L3419.62,1395.87Z" style="fill:rgb(164,213,221);"/>
            </g>
            <path d="M3408.93,1364.98L3484.62,1320.94L3518.01,1341.53L3442.93,1384.65L3408.93,1364.98Z" style="fill:rgb(226,89,105);"/>
            <path d="M3512.6,1395.85L3512.64,1405.02L3442.93,1445.06L3442.93,1434.99L3512.6,1395.85Z" style="fill:rgb(175,62,103);"/>
            <path d="M3515.26,1364.98L3515.26,1375.28L3498.11,1384.65C3498.09,1384.64 3498.08,1384.65 3498.08,1384.66L3439.93,1416.4L3440.08,1407.21L3515.26,1364.98Z" style="fill:rgb(175,62,103);"/>
            <path d="M3518.01,1341.53L3518.01,1352.9L3442.93,1395.85L3442.93,1384.65L3518.01,1341.53Z" style="fill:rgb(175,62,103);"/>
            <path d="M3442.93,1445.06L3408.32,1424.62L3408.93,1364.98L3442.93,1384.65L3442.93,1395.85L3419.47,1381.35L3419.62,1395.87L3440.08,1407.21L3439.93,1416.4L3419.93,1405.55C3419.93,1405.55 3419.13,1420.09 3419.74,1420.45C3420.36,1420.83 3442.93,1434.99 3442.93,1434.99L3442.93,1445.06Z" style="fill:rgb(100,28,76);"/>
        </g>
        <g transform="matrix(0.607081,0,0,0.607081,-2131.05,-2332.49)">
            <path d="M3785.89,4829.86C3785.89,4829.86 3774.72,4821.19 3770.85,4816.34C3770.85,4816.34 3751.45,4817.98 3745.73,4804.45C3747.26,4804.82 3748.88,4805.15 3750.58,4805.42C3750.68,4805.44 3750.73,4805.45 3750.73,4805.44C3750.73,4805.42 3759.84,4812.87 3767.59,4811.2C3767.59,4811.2 3769.73,4811.02 3770.17,4806.16C3771.61,4806.08 3773.09,4805.96 3774.61,4805.82L3774.47,4813.5C3775.3,4815.57 3785.92,4821.58 3785.92,4821.58L3785.89,4829.86Z" style="fill:rgb(51,12,60);"/>
            <path d="M3804.98,4839.6C3803.63,4840.32 3802.23,4841.01 3800.77,4841.66C3800.77,4841.66 3796.87,4838.75 3799.41,4834.1C3799.41,4834.1 3801.67,4833.38 3805.02,4831.73C3805.01,4834.14 3804.99,4836.78 3804.98,4839.6Z" style="fill:rgb(51,12,60);"/>
            <path d="M3830.43,4816.34C3830.43,4816.34 3821.8,4830.6 3804.98,4839.6C3804.99,4836.78 3805.01,4834.14 3805.02,4831.73C3809.99,4829.28 3817.39,4824.77 3823.41,4817.54C3825.66,4817.26 3828.01,4816.87 3830.43,4816.34Z" style="fill:rgb(51,12,60);"/>
            <path d="M3805.26,4817.3C3797.5,4816.05 3791.45,4813.46 3787.16,4811L3791.37,4805.29L3805.72,4809.32C3805.72,4809.32 3805.5,4815.67 3805.26,4817.3Z" style="fill:rgb(100,28,78);"/>
            <path d="M3787.16,4811C3791.45,4813.46 3797.5,4816.05 3805.26,4817.3C3805.23,4817.47 3805.21,4817.59 3805.18,4817.65C3805.12,4817.79 3805.07,4823.35 3805.02,4831.73C3801.67,4833.38 3799.41,4834.1 3799.41,4834.1C3796.87,4838.75 3800.77,4841.66 3800.77,4841.66C3802.23,4841.01 3803.63,4840.32 3804.98,4839.6C3804.87,4867.89 3804.82,4913.47 3804.82,4913.47C3792.87,4920.74 3785.56,4913.66 3785.56,4913.66L3785.96,4812.63L3787.16,4811Z" style="fill:rgb(100,28,78);"/>
            <path d="M3858.59,4674.54C3858.59,4674.54 3876.59,4730.5 3828.95,4736.23C3828.95,4736.23 3840.66,4752.6 3818.88,4755.92C3818.88,4755.92 3833.92,4795.7 3785.56,4783.43C3785.56,4783.43 3755.93,4820.07 3717.95,4775.5C3716.97,4768.53 3718.05,4763.15 3718.05,4763.15C3695.93,4761.68 3705.3,4735.87 3705.3,4735.87C3697.26,4733.36 3679.36,4712.15 3689.91,4689.82C3700.46,4667.49 3724.97,4670.72 3725.08,4670.29C3725.19,4669.86 3732.12,4643.29 3758.52,4634.49C3784.92,4625.69 3805.72,4645.42 3805.72,4645.42C3820.61,4636.51 3826.03,4654.57 3826.03,4654.57C3852.27,4645.88 3858.59,4674.54 3858.59,4674.54Z" style="fill:rgb(132,137,73);"/>
            <path d="M3717.95,4775.5C3755.93,4820.07 3785.56,4783.43 3785.56,4783.43C3833.92,4795.7 3818.88,4755.92 3818.88,4755.92C3840.66,4752.6 3828.95,4736.23 3828.95,4736.23C3876.59,4730.5 3858.59,4674.54 3858.59,4674.54C3858.59,4674.54 3878.48,4663.56 3893.68,4693.45C3908.89,4723.33 3884.13,4752.68 3884.13,4752.68C3890.39,4781.59 3858.66,4805.29 3858.66,4805.29C3848.26,4811.05 3838.84,4814.5 3830.43,4816.34L3823.41,4817.54C3816.58,4818.39 3810.52,4818.15 3805.26,4817.3C3805.5,4815.67 3805.72,4809.32 3805.72,4809.32L3791.37,4805.29L3787.16,4811C3782.01,4808.05 3779.4,4805.29 3779.4,4805.29C3777.76,4805.5 3776.17,4805.67 3774.61,4805.82C3773.09,4805.96 3771.61,4806.08 3770.17,4806.16C3762.69,4806.61 3756.26,4806.31 3750.73,4805.44C3750.68,4805.44 3750.63,4805.43 3750.58,4805.42C3749.75,4805.27 3745.73,4804.45 3745.73,4804.45C3725.29,4799.46 3719.38,4785.76 3717.95,4775.5Z" style="fill:rgb(98,99,42);"/>
            <g transform="matrix(1.66295,0,0,1.66295,-3409.64,-1196.49)">
                <path d="M4327,3613.52L4326.75,3674.28C4326.75,3674.28 4331.15,3678.53 4338.34,3674.16C4338.34,3674.16 4338.4,3616.89 4338.56,3616.54C4338.72,3616.19 4338.88,3611.53 4338.88,3611.53L4330.25,3609.11L4327,3613.52Z" style="fill:none;"/>
            </g>
            <g transform="matrix(1.66295,0,0,1.66295,-3409.64,-1196.49)">
                <path d="M4323.05,3609.11C4323.05,3609.11 4339.44,3626.4 4370.72,3609.11C4370.72,3609.11 4389.79,3594.86 4386.03,3577.47C4386.03,3577.47 4400.92,3559.82 4391.77,3541.85C4382.63,3523.88 4370.67,3530.48 4370.67,3530.48C4370.67,3530.48 4366.87,3513.25 4351.09,3518.48C4351.09,3518.48 4347.83,3507.62 4338.88,3512.97C4338.88,3512.97 4326.37,3501.11 4310.5,3506.4C4294.62,3511.69 4290.45,3527.66 4290.39,3527.92C4290.32,3528.18 4275.58,3526.24 4269.24,3539.67C4262.9,3553.1 4273.66,3565.86 4278.49,3567.36C4278.49,3567.36 4272.86,3582.88 4286.16,3583.76C4286.16,3583.76 4279.96,3614.57 4323.05,3609.11Z" style="fill:none;"/>
            </g>
            <g transform="matrix(1.66295,0,0,1.66295,-3409.64,-1196.49)">
                <path d="M4370.67,3530.48C4370.67,3530.48 4381.5,3564.13 4352.85,3567.58C4352.85,3567.58 4359.89,3577.42 4346.79,3579.42C4346.79,3579.42 4355.84,3603.34 4326.75,3595.96C4326.75,3595.96 4308.94,3617.99 4286.1,3591.19" style="fill:none;"/>
            </g>
            <g transform="matrix(1.66295,0,0,1.66295,-3409.64,-1196.49)">
                <path d="M4335.09,3626.43C4335.09,3626.43 4343.46,3623.75 4349.52,3616.47L4353.74,3615.75C4353.74,3615.75 4347.68,3625.76 4335.9,3630.98C4335.9,3630.98 4333.56,3629.23 4335.09,3626.43Z" style="fill:none;"/>
            </g>
            <g transform="matrix(1.66295,0,0,1.66295,-3409.64,-1196.49)">
                <path d="M4326.97,3618.91C4326.97,3618.91 4320.59,3615.29 4320.09,3614.04L4320.17,3609.43" style="fill:none;"/>
            </g>
            <g transform="matrix(1.66295,0,0,1.66295,-3409.64,-1196.49)">
                <path d="M4326.95,3623.89C4326.95,3623.89 4320.24,3618.67 4317.91,3615.75C4317.91,3615.75 4306.24,3616.74 4302.8,3608.6C4302.8,3608.6 4305.82,3609.22 4305.81,3609.2C4305.81,3609.19 4311.29,3613.66 4315.95,3612.66C4315.95,3612.66 4317.24,3612.55 4317.51,3609.63" style="fill:none;"/>
            </g>
        </g>
    </g>
    <g id="Layer1">
    </g>
</svg>
