<?xml version="1.0" encoding="UTF-8" standalone="no"?>
<!DOCTYPE svg PUBLIC "-//W3C//DTD SVG 1.1//EN" "http://www.w3.org/Graphics/SVG/1.1/DTD/svg11.dtd">
<svg width="100%" height="100%" viewBox="0 0 301 224" version="1.1" xmlns="http://www.w3.org/2000/svg" xmlns:xlink="http://www.w3.org/1999/xlink" xml:space="preserve" xmlns:serif="http://www.serif.com/" style="fill-rule:evenodd;clip-rule:evenodd;stroke-linejoin:round;stroke-miterlimit:2;">
    <g transform="matrix(1,0,0,1,-3293.52,-945.888)">
        <rect id="Artboard1" x="0" y="0" width="4000" height="4000" style="fill:none;"/>
        <g id="Artboard11" serif:id="Artboard1">
            <g id="Layer1">
            </g>
            <g id="street">
            </g>
            <g id="bakery">
            </g>
            <g>
                <path d="M3315.98,1028.4L3322.01,1011.31L3325.84,1023.12C3325.84,1023.12 3325.84,1023.12 3325.84,1023.13C3325.8,1023.44 3315.98,1028.4 3315.98,1028.4Z" style="fill:rgb(164,213,221);"/>
                <path d="M3402.51,952.818L3421.44,1023.12L3350.49,1069.8L3328.15,992.549L3402.51,952.818Z" style="fill:rgb(164,213,221);"/>
                <path d="M3306.85,1045.72L3293.52,1040.48L3315.98,986.996L3328.15,992.549L3350.49,1069.8L3337.09,1064.6L3332.31,1048.52L3310.78,1037.52L3306.85,1045.72ZM3315.98,1028.4L3322.01,1011.31L3325.84,1023.12C3325.84,1023.12 3325.84,1023.12 3325.84,1023.13L3329.67,1034.93L3315.98,1028.4Z" style="fill:rgb(114,197,211);"/>
                <g transform="matrix(-1.14818,0,0,1.08458,5600.16,-1582.1)">
                    <g transform="matrix(-0.870947,0,0,0.922016,4877.45,1458.72)">
                        <path d="M3315.98,1028.4L3329.67,1034.93L3325.84,1023.13C3325.8,1023.44 3315.98,1028.4 3315.98,1028.4Z" style="fill:rgb(192,240,232);"/>
                    </g>
                    <g transform="matrix(-0.870947,0,0,0.922016,4877.45,1458.72)">
                        <path d="M3315.98,986.996L3389.32,945.888L3402.51,952.818L3328.15,992.549L3315.98,986.996Z" style="fill:rgb(192,240,232);"/>
                    </g>
                    <g transform="matrix(-0.870947,0,0,0.922016,4877.45,1458.72)">
                        <path d="M3315.98,1040.17L3306.85,1045.72L3310.78,1037.52L3315.98,1040.17Z" style="fill:rgb(164,213,221);"/>
                    </g>
                </g>
            </g>
            <g transform="matrix(1,0,0,1,-268.591,-156.223)">
                <path d="M3635.39,1175.04L3711.1,1130.69L3721.6,1137.41L3647.46,1181.97L3635.39,1175.04Z" style="fill:rgb(192,240,232);"/>
                <path d="M3730.33,1156.33L3742.05,1148.7L3753.66,1156.33L3679.05,1199.58L3667.91,1192.1L3730.33,1156.33Z" style="fill:rgb(192,240,232);"/>
                <path d="M3753.66,1156.33L3753.66,1217.38L3677.8,1259.71L3679.05,1199.58L3753.66,1156.33Z" style="fill:rgb(164,213,221);"/>
                <path d="M3721.6,1137.41L3730.33,1156.33L3667.91,1192.1L3667.04,1230.63L3647.46,1181.97L3721.6,1137.41Z" style="fill:rgb(164,213,221);"/>
                <path d="M3677.8,1259.71L3665.58,1251.25L3646.98,1203.94L3646.75,1240.76L3634.78,1235.48L3635.39,1175.04L3647.46,1181.97L3667.04,1230.63L3667.91,1192.1L3679.05,1199.58L3677.8,1259.71Z" style="fill:rgb(114,197,211);"/>
            </g>
            <g transform="matrix(1,0,0,1,-209.15,-122.846)">
                <path d="M3635.39,1175.04L3711.1,1130.69L3721.6,1137.41L3647.46,1181.97L3635.39,1175.04Z" style="fill:rgb(192,240,232);"/>
                <path d="M3730.33,1156.33L3742.05,1148.7L3753.66,1156.33L3679.05,1199.58L3667.91,1192.1L3730.33,1156.33Z" style="fill:rgb(192,240,232);"/>
                <path d="M3753.66,1156.33L3753.66,1217.38L3677.8,1259.71L3679.05,1199.58L3753.66,1156.33Z" style="fill:rgb(164,213,221);"/>
                <path d="M3721.6,1137.41L3730.33,1156.33L3667.91,1192.1L3667.04,1230.63L3647.46,1181.97L3721.6,1137.41Z" style="fill:rgb(164,213,221);"/>
                <path d="M3677.8,1259.71L3665.58,1251.25L3646.98,1203.94L3646.75,1240.76L3634.78,1235.48L3635.39,1175.04L3647.46,1181.97L3667.04,1230.63L3667.91,1192.1L3679.05,1199.58L3677.8,1259.71Z" style="fill:rgb(114,197,211);"/>
            </g>
            <g transform="matrix(1,0,0,1,75.5835,-275.692)">
                <path d="M3419.74,1420.45C3419.13,1420.09 3419.93,1405.55 3419.93,1405.55L3431.67,1411.92C3429.9,1413.38 3424.25,1416.82 3419.74,1420.45Z" style="fill:rgb(164,213,221);"/>
                <path d="M3498.11,1384.65C3498.89,1384.69 3512.6,1395.85 3512.6,1395.85L3442.93,1434.99C3442.93,1434.99 3420.36,1420.83 3419.74,1420.45C3424.25,1416.82 3429.9,1413.38 3431.67,1411.92L3439.93,1416.4L3498.11,1384.65Z" style="fill:rgb(192,240,232);"/>
                <path d="M3419.62,1395.87L3419.47,1381.35L3431.06,1388.52L3419.62,1395.87Z" style="fill:rgb(192,240,232);"/>
                <clipPath id="_clip1">
                    <path d="M3419.62,1395.87L3419.47,1381.35L3431.06,1388.52L3419.62,1395.87Z"/>
                </clipPath>
                <g clip-path="url(#_clip1)">
                    <path d="M3419.62,1395.87L3419.47,1381.35L3431.06,1388.52L3419.62,1395.87Z" style="fill:rgb(164,213,221);"/>
                </g>
                <path d="M3507.55,1358.88L3515.26,1364.98L3440.08,1407.21L3419.62,1395.87L3431.06,1388.52L3442.93,1395.85L3507.55,1358.88Z" style="fill:rgb(192,240,232);"/>
                <clipPath id="_clip2">
                    <path d="M3507.55,1358.88L3515.26,1364.98L3440.08,1407.21L3419.62,1395.87L3431.06,1388.52L3442.93,1395.85L3507.55,1358.88Z"/>
                </clipPath>
                <g clip-path="url(#_clip2)">
                    <path d="M3419.62,1395.87L3419.47,1381.35L3431.06,1388.52L3419.62,1395.87Z" style="fill:rgb(164,213,221);"/>
                </g>
                <path d="M3408.93,1364.98L3484.62,1320.94L3518.01,1341.53L3442.93,1384.65L3408.93,1364.98Z" style="fill:rgb(192,240,232);"/>
                <path d="M3512.6,1395.85L3512.64,1405.02L3442.93,1445.06L3442.93,1434.99L3512.6,1395.85Z" style="fill:rgb(164,213,221);"/>
                <path d="M3515.26,1364.98L3515.26,1375.28L3498.11,1384.65C3498.09,1384.64 3498.08,1384.65 3498.08,1384.66L3439.93,1416.4L3440.08,1407.21L3515.26,1364.98Z" style="fill:rgb(164,213,221);"/>
                <path d="M3518.01,1341.53L3518.01,1352.9L3442.93,1395.85L3442.93,1384.65L3518.01,1341.53Z" style="fill:rgb(164,213,221);"/>
                <path d="M3442.93,1445.06L3408.32,1424.62L3408.93,1364.98L3442.93,1384.65L3442.93,1395.85L3419.47,1381.35L3419.62,1395.87L3440.08,1407.21L3439.93,1416.4L3419.93,1405.55C3419.93,1405.55 3419.13,1420.09 3419.74,1420.45C3420.36,1420.83 3442.93,1434.99 3442.93,1434.99L3442.93,1445.06Z" style="fill:rgb(114,197,211);"/>
            </g>
        </g>
    </g>
</svg>
