<?xml version="1.0" encoding="UTF-8" standalone="no"?>
<!DOCTYPE svg PUBLIC "-//W3C//DTD SVG 1.1//EN" "http://www.w3.org/Graphics/SVG/1.1/DTD/svg11.dtd">
<svg width="100%" height="100%" viewBox="0 0 4000 4000" version="1.1" xmlns="http://www.w3.org/2000/svg" xmlns:xlink="http://www.w3.org/1999/xlink" xml:space="preserve" xmlns:serif="http://www.serif.com/" style="fill-rule:evenodd;clip-rule:evenodd;stroke-linejoin:round;stroke-miterlimit:2;">
    <rect id="Artboard1" x="0" y="0" width="4000" height="4000" style="fill:none;"/>
    <clipPath id="_clip1">
        <rect id="Artboard11" serif:id="Artboard1" x="0" y="0" width="4000" height="4000"/>
    </clipPath>
    <g clip-path="url(#_clip1)">
        <g id="Layer1">
            <rect x="0" y="0" width="4000" height="4000" style="fill:rgb(202,186,233);"/>
        </g>
        <path d="M720.102,818.321L698.664,830.795L837.994,914.411L857.526,899.393L720.102,818.321Z" style="fill:rgb(229,224,244);"/>
        <g transform="matrix(0.967835,0,0,0.980745,-16.3094,41.8029)">
            <path d="M720.102,818.321L698.664,830.795L837.994,914.411L857.526,899.393L720.102,818.321Z" style="fill:rgb(229,224,244);"/>
        </g>
        <g transform="matrix(0.967835,0,0,0.980745,-56.9585,68.2472)">
            <path d="M720.102,818.321L698.664,830.795L837.994,914.411L857.526,899.393L720.102,818.321Z" style="fill:rgb(229,224,244);"/>
        </g>
        <g transform="matrix(1,0,0,1,-118.212,74.0907)">
            <path d="M720.102,818.321L698.664,830.795L837.994,914.411L857.526,899.393L720.102,818.321Z" style="fill:rgb(229,224,244);"/>
        </g>
        <g transform="matrix(1.06761,0,0,1.05401,-211.471,55.4095)">
            <path d="M720.102,818.321L698.664,830.795L837.994,914.411L857.526,899.393L720.102,818.321Z" style="fill:rgb(229,224,244);"/>
        </g>
        <g id="street">
            <g>
                <g transform="matrix(1.04699,0,0,1.05572,0,0)">
                    <path d="M208.04,0C208.04,0 205.014,141.474 203.745,200.8C203.402,216.842 194.955,231.64 181.262,240.188C128.723,272.983 0,353.333 0,353.333L0,0L208.04,0Z" style="fill:rgb(154,105,167);"/>
                </g>
                <g transform="matrix(0.994382,0,0,1,0,0)">
                    <path d="M208.04,0C208.04,0 205.063,139.174 203.776,199.331C203.414,216.288 194.498,231.926 180.052,240.943C126.776,274.198 0,353.333 0,353.333L0,0L208.04,0Z" style="fill:rgb(245,232,188);"/>
                </g>
            </g>
            <g>
                <g transform="matrix(1.0031,0,0,1.02977,-6.00815,-8.17124e-14)">
                    <path d="M475.987,0C475.987,0 473.892,165.46 472.945,240.227C472.662,262.574 460.585,283.203 440.985,294.819C405.828,315.654 346.981,350.529 294.529,381.615C271.082,395.511 256.729,420.275 256.629,447.01C256.529,473.746 270.696,498.611 294.039,512.674C450.085,606.678 733.314,777.3 875.151,862.745C927.719,894.413 994.137,894.454 1046.75,862.851C1217.13,760.5 1596.64,532.527 1771.16,427.689C1821.99,397.153 1839,332.966 1809.69,282.278C1745.85,171.863 1646.47,0 1646.47,0L475.987,0Z" style="fill:rgb(154,105,167);"/>
                </g>
                <path d="M471.455,0C471.455,0 467.92,162.734 466.305,237.102C465.813,259.738 453.884,280.582 434.617,292.472C401.016,313.208 345.373,347.547 295.101,378.571C271.608,393.069 257.364,418.758 257.512,446.364C257.66,473.97 272.179,499.505 295.825,513.75C452.742,608.279 735.672,778.721 876.514,863.566C928.445,894.85 993.41,894.891 1045.38,863.672C1214.11,762.316 1591.75,535.461 1768.09,429.532C1820.3,398.171 1837.72,330.743 1807.23,278.021C1743.33,167.504 1646.47,0 1646.47,0L471.455,0Z" style="fill:rgb(255,242,200);"/>
            </g>
            <g>
                <g transform="matrix(1.03278,0,0,1.00538,0,-3.50111)">
                    <path d="M0,650.8C0,650.8 484.27,947.772 665.259,1058.76C679.536,1067.52 688.339,1083.28 688.489,1100.36C688.638,1117.44 680.113,1133.36 665.993,1142.38C584.321,1194.54 448.976,1280.97 387.254,1320.39C380.629,1324.62 376.733,1332.19 377.054,1340.19C377.375,1348.2 381.864,1355.41 388.805,1359.06C450.793,1391.72 582.748,1461.23 659.237,1501.53C672.075,1508.29 680.728,1521.25 682.25,1535.99C683.773,1550.72 677.958,1565.26 666.787,1574.64C639.918,1597.2 607.608,1624.33 583.724,1644.38C576.312,1650.6 572.516,1660.29 573.664,1670.05C574.812,1679.82 580.744,1688.3 589.385,1692.53C713.222,1753.17 1093.46,1939.38 1261.03,2021.44C1278.73,2030.11 1290.94,2047.41 1293.45,2067.39C1295.96,2087.37 1288.43,2107.29 1273.45,2120.29C1176.35,2204.58 999.883,2357.76 906.622,2438.71C869.519,2470.92 816.948,2476.35 774.345,2452.38C571.152,2338.05 0,2016.68 0,2016.68L0,650.8Z" style="fill:rgb(154,105,167);"/>
                </g>
                <path d="M0,650.8C0,650.8 492.759,940.814 678.755,1050.28C693.583,1059.01 702.778,1074.85 703.007,1092.05C703.236,1109.26 694.464,1125.33 679.873,1134.45C599.307,1184.79 469.281,1266.05 409.359,1303.49C402.65,1307.68 398.656,1315.11 398.857,1323.02C399.057,1330.93 403.423,1338.14 410.335,1341.99C471.886,1376.24 604.668,1450.13 681.646,1492.96C694.611,1500.18 703.088,1513.42 704.211,1528.22C705.335,1543.01 698.955,1557.38 687.228,1566.47C662.865,1585.36 634.573,1607.29 612.694,1624.25C604.864,1630.31 600.693,1639.97 601.645,1649.84C602.597,1659.69 608.539,1668.38 617.385,1672.84C743.994,1736.65 1131.67,1932.06 1302.19,2018.01C1320.21,2027.1 1332.42,2044.68 1334.62,2064.75C1336.83,2084.81 1328.74,2104.63 1313.11,2117.42C1212.99,2199.35 1031.86,2347.56 936.081,2425.94C897.805,2457.26 844.35,2462.22 800.967,2438.47C592.206,2324.19 0,2000 0,2000L0,650.8Z" style="fill:rgb(245,232,188);"/>
            </g>
        </g>
        <path d="M851.032,640.262L963.379,709.705L785.919,808.966L873.932,862.062L887.917,869.945L1156.6,706.623L945.028,580.804L851.032,640.262Z" style="fill:rgb(255,213,169);"/>
        <g transform="matrix(1.00357,0,0,1.06882,12.6203,-58.6369)">
            <path d="M521.815,959.053L172.649,1150.14L181.055,1267.47L621.994,1014.59L521.815,959.053Z" style="fill:rgb(255,213,169);"/>
        </g>
        <g id="bakery">
            <g transform="matrix(1,0,0,1,-322.879,-241.77)">
                <path d="M917.155,528.979L1146.75,400.173L1268.54,471.942L1042.09,603.988L917.155,528.979Z" style="fill:rgb(244,167,199);"/>
            </g>
            <g transform="matrix(1,0,0,1,-322.879,-241.77)">
                <path d="M1274.11,824.893L1272.65,683.156C1280.99,670.839 1285.45,658.607 1287.74,647.832C1287.74,647.832 1303.92,671.773 1318.92,659.181C1330.67,649.313 1345.39,638.452 1349.19,608.375C1349.19,608.375 1351.16,613.653 1354.96,618.801L1354.38,778.033L1274.11,824.893Z" style="fill:rgb(221,111,156);"/>
            </g>
            <g transform="matrix(1,0,0,1,-322.879,-241.77)">
                <path d="M1230.04,850.623L1228.22,688.525C1234.03,694.555 1253.69,711.16 1272.63,683.19L1272.65,683.156L1274.11,824.893L1230.04,850.623Z" style="fill:rgb(203,100,147);"/>
            </g>
            <g transform="matrix(1,0,0,1,-322.879,-241.77)">
                <path d="M1180.36,879.624L1182.93,733.494C1189.93,734.358 1198.23,732.523 1206.51,724.047C1217.77,712.524 1223.84,700.212 1226.51,686.611C1226.51,686.611 1227.11,687.376 1228.22,688.525L1230.04,850.623L1180.36,879.624Z" style="fill:rgb(203,100,147);"/>
            </g>
            <g transform="matrix(1,0,0,1,-322.879,-241.77)">
                <path d="M1355.09,489.17L1051.81,667.832L1051.78,641.025L1355.09,463.507L1355.09,489.17Z" style="fill:rgb(202,97,140);"/>
            </g>
            <g transform="matrix(1,0,0,1,-322.879,-241.77)">
                <path d="M1268.54,471.942L1146.75,400.173L917.155,528.979L891.05,513.306L1141.72,372.293L1288.98,460.022L1268.54,471.942Z" style="fill:rgb(203,100,147);"/>
            </g>
            <g transform="matrix(1,0,0,1,-322.879,-241.77)">
                <path d="M826.586,513.174L1141.32,337.315L1355.09,463.507L1051.78,641.025L826.586,513.174ZM1042.09,603.988L1288.98,460.022L1141.72,372.293L891.05,513.306L1042.09,603.988Z" style="fill:rgb(238,129,171);"/>
            </g>
            <g transform="matrix(1,0,0,1,-322.879,-241.77)">
                <path d="M1052.18,954.451L1051.81,667.885L1104.58,718.538C1104.58,718.538 1094.43,786.463 1134.08,767.189C1153.63,757.69 1161.66,741.028 1164.75,724.699C1165.2,725.14 1172.66,732.225 1182.93,733.494L1180.36,879.624L1052.18,954.451Z" style="fill:rgb(221,111,156);"/>
            </g>
            <g transform="matrix(1,0,0,1,-322.879,-241.77)">
                <path d="M1272.65,683.156L1274.11,824.893" style="fill:none;"/>
            </g>
            <g transform="matrix(1,0,0,1,-322.879,-241.77)">
                <path d="M1182.93,733.494L1180.36,879.624" style="fill:none;"/>
            </g>
            <g transform="matrix(1,0,0,1,-322.879,-241.77)">
                <path d="M984.073,703.9L908.573,761.72L905.338,764.311" style="fill:none;"/>
            </g>
            <g transform="matrix(1,0,0,1,-322.879,-241.77)">
                <path d="M942.8,680.073L865.076,739.064" style="fill:none;"/>
            </g>
            <g transform="matrix(1,0,0,1,-322.879,-241.77)">
                <path d="M923.509,668.935L865.266,711.485" style="fill:none;"/>
            </g>
            <g transform="matrix(1,0,0,1,-322.879,-241.77)">
                <path d="M890.528,649.894L865.564,668.145" style="fill:none;"/>
            </g>
            <g transform="matrix(1,0,0,1,-322.879,-241.77)">
                <path d="M1349.19,608.375C1350.23,600.072 1350.45,590.304 1349.54,578.688L1349.28,578.422L1412.25,542.236C1412.76,546.928 1415.99,585.28 1390.88,615.733C1364.08,648.224 1349.19,608.375 1349.19,608.375Z" style="fill:rgb(185,232,224);"/>
            </g>
            <g transform="matrix(1,0,0,1,-322.879,-241.77)">
                <path d="M1226.51,686.611C1228.78,675.054 1228.6,662.567 1227.07,648.842L1226.79,648.562L1288.95,612.969C1289.5,617.193 1291.38,630.663 1287.74,647.832C1285.45,658.617 1280.98,670.861 1272.63,683.19C1250.08,716.488 1226.51,686.611 1226.51,686.611Z" style="fill:rgb(185,232,224);"/>
            </g>
            <g transform="matrix(1,0,0,1,-322.879,-241.77)">
                <path d="M1051.78,667.852L1355.09,489.17L1412.2,541.758C1412.2,541.758 1412.22,541.922 1412.25,542.236L1349.28,578.422L1104.58,718.538L1051.78,667.852Z" style="fill:none;"/>
                <clipPath id="_clip2">
                    <path d="M1051.78,667.852L1355.09,489.17L1412.2,541.758C1412.2,541.758 1412.22,541.922 1412.25,542.236L1349.28,578.422L1104.58,718.538L1051.78,667.852Z"/>
                </clipPath>
                <g clip-path="url(#_clip2)">
                    <path d="M1104.58,718.538L1051.78,667.852L1113.17,631.684L1165.74,683.516L1104.58,718.538Z" style="fill:rgb(231,77,184);"/>
                    <g transform="matrix(1,0,0,1,322.879,241.77)">
                        <path d="M728.934,426.115L728.934,426.062L790.294,389.914L842.862,441.746L781.7,476.768L728.934,426.115Z" style="fill:rgb(223,255,250);"/>
                    </g>
                    <g transform="matrix(1,0,0,1,322.879,241.77)">
                        <path d="M851.009,354.147L912.888,317.694L965.975,370.463C965.998,370.664 966.03,370.91 966.068,371.199L903.907,406.792L851.009,354.147Z" style="fill:rgb(223,255,250);"/>
                    </g>
                    <g transform="matrix(1,0,0,1,322.879,241.77)">
                        <path d="M1032.21,247.4L1089.32,299.988C1089.32,299.988 1089.34,300.152 1089.37,300.466L1026.4,336.652L974.026,281.678L1032.21,247.4Z" style="fill:rgb(223,255,250);"/>
                    </g>
                    <g transform="matrix(1,0,0,1,322.879,241.77)">
                        <path d="M851.009,354.147L903.907,406.792L842.862,441.746L790.294,389.914L851.009,354.147Z" style="fill:rgb(114,197,211);"/>
                    </g>
                    <g transform="matrix(1,0,0,1,322.879,241.77)">
                        <path d="M1026.4,336.652L966.068,371.199C966.03,370.91 965.998,370.664 965.975,370.463L912.888,317.694L974.026,281.678L1026.4,336.652Z" style="fill:rgb(114,197,211);"/>
                    </g>
                </g>
            </g>
            <g transform="matrix(1,0,0,1,-322.879,-241.77)">
                <path d="M1287.74,647.832C1291.38,630.663 1289.5,617.193 1288.95,612.969L1349.28,578.422L1349.54,578.688C1350.45,590.304 1350.23,600.072 1349.19,608.375C1345.39,638.452 1330.67,649.313 1318.92,659.181C1303.92,671.773 1287.74,647.832 1287.74,647.832Z" style="fill:rgb(75,177,189);"/>
            </g>
            <g transform="matrix(1,0,0,1,-322.879,-241.77)">
                <path d="M1164.75,724.699C1167.92,707.895 1165.87,691.444 1165.74,683.516L1226.79,648.562L1227.07,648.842C1228.6,662.567 1228.78,675.054 1226.51,686.611C1223.84,700.212 1217.77,712.524 1206.51,724.047C1186.08,744.963 1165.51,725.44 1164.75,724.699Z" style="fill:rgb(75,177,189);"/>
            </g>
            <g transform="matrix(1,0,0,1,-322.879,-241.77)">
                <path d="M1104.58,718.538L1165.74,683.516C1165.87,691.444 1167.92,707.895 1164.75,724.699C1161.66,741.028 1153.63,757.69 1134.08,767.189C1094.43,786.463 1104.58,718.538 1104.58,718.538Z" style="fill:rgb(185,232,224);"/>
            </g>
            <g transform="matrix(1,0,0,1,-322.879,-241.77)">
                <path d="M1104.58,718.538L1165.74,683.516" style="fill:none;"/>
            </g>
            <g transform="matrix(1,0,0,1,-322.879,-241.77)">
                <path d="M1165.74,683.516L1226.79,648.562" style="fill:none;"/>
            </g>
            <g transform="matrix(1,0,0,1,-322.879,-241.77)">
                <path d="M1226.79,648.562L1288.95,612.969" style="fill:none;"/>
            </g>
            <g transform="matrix(1,0,0,1,-322.879,-241.77)">
                <path d="M1288.95,612.969L1349.28,578.422" style="fill:none;"/>
            </g>
            <g transform="matrix(1,0,0,1,-322.879,-241.77)">
                <path d="M1349.28,578.422L1412.25,542.236" style="fill:none;"/>
            </g>
            <g transform="matrix(1,0,0,1,-322.879,-241.77)">
                <path d="M1349.19,608.375C1349.19,608.375 1364.08,648.224 1390.88,615.733C1417.67,583.242 1412.2,541.758 1412.2,541.758L1355.09,489.17" style="fill:none;"/>
            </g>
            <g transform="matrix(1,0,0,1,-322.879,-241.77)">
                <path d="M1287.74,647.832C1287.74,647.832 1303.92,671.773 1318.92,659.181C1330.67,649.313 1345.39,638.452 1349.19,608.375" style="fill:none;"/>
            </g>
            <g transform="matrix(1,0,0,1,-322.879,-241.77)">
                <path d="M1349.19,608.375C1350.23,600.072 1350.45,590.304 1349.54,578.688L1349.28,578.422" style="fill:none;"/>
            </g>
            <g transform="matrix(1,0,0,1,-322.879,-241.77)">
                <path d="M1349.28,578.422L1296.9,523.448" style="fill:none;"/>
            </g>
            <g transform="matrix(1,0,0,1,-322.879,-241.77)">
                <path d="M1226.51,686.611C1226.51,686.611 1250.08,716.488 1272.63,683.19C1280.98,670.861 1285.45,658.617 1287.74,647.832" style="fill:none;"/>
            </g>
            <g transform="matrix(1,0,0,1,-322.879,-241.77)">
                <path d="M1287.74,647.832C1291.38,630.663 1289.5,617.193 1288.95,612.969" style="fill:none;"/>
            </g>
            <g transform="matrix(1,0,0,1,-322.879,-241.77)">
                <path d="M1288.95,612.969C1288.91,612.68 1288.88,612.434 1288.85,612.233L1235.77,559.464" style="fill:none;"/>
            </g>
            <g transform="matrix(1,0,0,1,-322.879,-241.77)">
                <path d="M1164.72,724.677C1164.72,724.677 1164.73,724.685 1164.75,724.699" style="fill:none;"/>
            </g>
            <g transform="matrix(1,0,0,1,-322.879,-241.77)">
                <path d="M1164.75,724.699C1165.51,725.44 1186.08,744.963 1206.51,724.047C1217.77,712.524 1223.84,700.212 1226.51,686.611" style="fill:none;"/>
            </g>
            <g transform="matrix(1,0,0,1,-322.879,-241.77)">
                <path d="M1226.51,686.611C1228.78,675.054 1228.6,662.567 1227.07,648.842L1226.79,648.562" style="fill:none;"/>
            </g>
            <g transform="matrix(1,0,0,1,-322.879,-241.77)">
                <path d="M1226.79,648.562L1173.89,595.917" style="fill:none;"/>
            </g>
            <g transform="matrix(1,0,0,1,-322.879,-241.77)">
                <path d="M1051.78,667.852L1104.58,718.538" style="fill:none;"/>
            </g>
            <g transform="matrix(1,0,0,1,-322.879,-241.77)">
                <path d="M1104.58,718.538C1104.58,718.538 1094.43,786.463 1134.08,767.189C1153.63,757.69 1161.66,741.028 1164.75,724.699" style="fill:none;"/>
            </g>
            <g transform="matrix(1,0,0,1,-322.879,-241.77)">
                <path d="M1164.75,724.699C1167.92,707.895 1165.87,691.444 1165.74,683.516" style="fill:none;"/>
            </g>
            <g transform="matrix(1,0,0,1,-322.879,-241.77)">
                <path d="M1165.74,683.516L1113.17,631.684" style="fill:none;"/>
            </g>
            <g transform="matrix(1,0,0,1,-322.879,-241.77)">
                <path d="M1051.78,667.852L1355.09,489.17" style="fill:none;"/>
            </g>
            <g transform="matrix(1,0,0,1,-322.879,-241.77)">
                <path d="M1355.09,489.17L1355.09,463.507" style="fill:none;"/>
            </g>
            <g transform="matrix(1,0,0,1,-322.879,-241.77)">
                <path d="M917.155,528.979L1146.75,400.173L1268.54,471.942" style="fill:none;"/>
            </g>
            <g transform="matrix(1,0,0,1,-322.879,-241.77)">
                <path d="M891.05,513.306L1141.72,372.293L1288.98,460.022L1042.09,603.988L891.05,513.306Z" style="fill:none;"/>
            </g>
            <g transform="matrix(1,0,0,1,-322.879,-241.77)">
                <path d="M1052.18,954.451L1354.38,778.033L1354.96,618.801" style="fill:none;"/>
            </g>
            <g transform="matrix(1,0,0,1,-322.879,-241.77)">
                <path d="M826.586,513.174L1141.32,337.315L1355.09,463.507L1051.78,641.025" style="fill:none;"/>
            </g>
            <g transform="matrix(1,0,0,1,-322.879,-241.77)">
                <path d="M826.586,513.174L826.502,825.722L1052.18,954.451L1051.78,641.025L826.586,513.174Z" style="fill:none;"/>
                <clipPath id="_clip3">
                    <path d="M826.586,513.174L826.502,825.722L1052.18,954.451L1051.78,641.025L826.586,513.174Z"/>
                </clipPath>
                <g clip-path="url(#_clip3)">
                    <g transform="matrix(1,0,0,1,322.879,241.77)">
                        <path d="M503.698,300.42L728.903,426.08L728.9,426.082L728.934,426.115L729.302,712.681L503.622,583.951L503.698,300.42ZM533.215,376.595L530.99,505.589L682.706,593.38L685.543,463.738L533.215,376.595Z" style="fill:rgb(238,129,171);"/>
                    </g>
                    <g transform="matrix(1,0,0,1,322.879,241.77)">
                        <path d="M542.197,497.294L619.921,438.303L661.193,462.13L585.694,519.95L582.459,522.541L542.18,499.681L542.197,497.294Z" style="fill:rgb(244,167,199);"/>
                    </g>
                    <g transform="matrix(1,0,0,1,322.879,241.77)">
                        <path d="M600.629,427.165L542.386,469.715L542.684,426.375L567.648,408.124L600.629,427.165Z" style="fill:rgb(244,167,199);"/>
                    </g>
                    <g transform="matrix(1,0,0,1,322.879,241.77)">
                        <path d="M582.459,522.541L661.193,462.13L673.931,469.484L672.433,573.607L582.459,522.541Z" style="fill:rgb(244,150,187);"/>
                    </g>
                    <g transform="matrix(1,0,0,1,322.879,241.77)">
                        <path d="M619.921,438.303L542.197,497.294L542.386,469.715L600.629,427.165L619.921,438.303Z" style="fill:rgb(244,150,187);"/>
                    </g>
                    <g transform="matrix(1,0,0,1,322.879,241.77)">
                        <path d="M567.648,408.124L542.684,426.375L542.908,393.841L567.648,408.124Z" style="fill:rgb(244,150,187);"/>
                    </g>
                    <g transform="matrix(1,0,0,1,322.879,241.77)">
                        <path d="M533.215,376.595L685.543,463.738L682.706,593.38L530.99,505.589L533.215,376.595ZM542.908,393.841L542.18,499.681L672.433,573.607L673.931,469.484L542.908,393.841Z" style="fill:rgb(191,88,136);"/>
                    </g>
                    <g transform="matrix(1,0,0,1,322.879,241.77)">
                        <path d="M503.706,271.404L728.9,399.255L728.934,426.062L728.903,426.08L503.698,300.42L503.706,271.404Z" style="fill:rgb(203,100,147);"/>
                    </g>
                </g>
            </g>
            <g transform="matrix(1.00012,6.51783e-05,6.51783e-05,1.00004,-323.011,-241.844)">
                <path d="M826.578,542.19L1051.78,667.847" style="fill:none;"/>
            </g>
        </g>
        <path d="M0,1288.64C0,1288.64 202.169,1169.77 199.936,1170C197.702,1170.23 199.936,1509.61 199.936,1509.61L0,1634.07L0,1288.64Z" style="fill:rgb(78,127,232);"/>
        <path d="M0,1055.6L199.936,1170L0,1288.64L0,1055.6Z" style="fill:rgb(122,174,249);"/>
    </g>
</svg>
