<?xml version="1.0" encoding="UTF-8" standalone="no"?>
<!DOCTYPE svg PUBLIC "-//W3C//DTD SVG 1.1//EN" "http://www.w3.org/Graphics/SVG/1.1/DTD/svg11.dtd">
<svg width="100%" height="100%" viewBox="0 0 964 717" version="1.1" xmlns="http://www.w3.org/2000/svg" xmlns:xlink="http://www.w3.org/1999/xlink" xml:space="preserve" xmlns:serif="http://www.serif.com/" style="fill-rule:evenodd;clip-rule:evenodd;stroke-linejoin:round;stroke-miterlimit:2;">
    <g transform="matrix(1,0,0,1,-4151.88,1486.54)">
        <g>
            <g transform="matrix(0.837525,0,0,0.588434,4169.32,-2534.85)">
                <path d="M496.558,2951.78C530.874,2981.42 573.916,2981.49 608.275,2951.95C711.547,2863.17 932.497,2673.22 1051.06,2571.3C1067.42,2557.23 1077.29,2531.83 1076.97,2504.63C1076.65,2477.42 1066.18,2452.51 1049.49,2439.24C917.773,2334.49 661.954,2131.05 570.587,2058.39C549.897,2041.94 524.612,2042.44 504.25,2059.7C416.311,2134.25 174.225,2339.49 51.915,2443.19C36.566,2456.2 27.132,2479.71 27.058,2505.14C26.984,2530.57 36.281,2554.2 51.555,2567.39C167.437,2667.49 392.152,2861.6 496.558,2951.78Z" style="fill:rgb(237,110,74);"/>
            </g>
            <g transform="matrix(0.831825,0,0,0.583074,4172.13,-2529.84)">
                <path d="M496.271,2951.53C530.774,2981.34 574.015,2981.4 608.563,2951.7C672.529,2896.71 957.689,2651.57 1050.28,2571.97C1066.79,2557.78 1076.75,2532.13 1076.42,2504.64C1076.09,2477.15 1065.53,2451.99 1048.7,2438.61C916.839,2333.75 662.088,2131.16 570.757,2058.53C549.955,2041.99 524.554,2042.49 504.081,2059.84C416.173,2134.37 175.086,2338.76 52.628,2442.58C37.148,2455.71 27.63,2479.46 27.556,2505.15C27.482,2530.84 36.862,2554.7 52.266,2568C168.247,2668.19 391.954,2861.42 496.271,2951.53Z" style="fill:rgb(252,153,114);"/>
            </g>
            <g transform="matrix(1.32201,0,0,1.3619,1847.23,-1833.82)">
                <path d="M2371.99,413.218L2363.98,415.786L2355.97,413.641L2363.98,410.65L2371.99,413.218Z" style="fill:rgb(82,8,42);"/>
            </g>
            <g transform="matrix(1.32201,0,0,1.3619,1847.23,-1833.82)">
                <path d="M2355.97,477.874L2355.97,413.641L2363.98,415.786L2363.98,574.51L2355.97,571.612L2355.97,499.653L2362.27,496.01L2362.11,479.25L2358.65,476.328L2355.97,477.874Z" style="fill:rgb(117,37,74);"/>
            </g>
            <g transform="matrix(1.32201,0,0,1.3619,1847.23,-1833.82)">
                <path d="M2371.99,413.218L2371.99,436.224L2369.92,435.018L2365.85,437.801L2366.25,455.678L2371.99,459.09L2371.99,571.612L2363.98,574.51L2363.98,415.786L2371.99,413.218Z" style="fill:rgb(175,62,103);"/>
            </g>
            <g transform="matrix(1.32201,0,0,1.3619,1847.23,-1833.82)">
                <path d="M2362.11,479.25L2362.27,496.01L2355.97,499.653L2355.97,482.772L2362.11,479.25Z" style="fill:rgb(224,144,173);"/>
            </g>
            <g transform="matrix(1.32201,0,0,1.3619,1847.23,-1833.82)">
                <path d="M2355.97,499.653L2309.26,526.66L2294.71,526.442L2309.04,509.711L2355.97,482.772L2355.97,499.653Z" style="fill:rgb(224,144,173);"/>
            </g>
            <g transform="matrix(1.32201,0,0,1.3619,1847.23,-1833.82)">
                <path d="M2365.85,437.801L2371.99,441.289L2371.99,459.09L2366.25,455.678L2365.85,437.801Z" style="fill:rgb(224,144,173);"/>
            </g>
            <g transform="matrix(1.32201,0,0,1.3619,1847.23,-1833.82)">
                <path d="M2371.99,459.09L2371.99,441.289L2418.98,467.929L2432.58,485.392L2418.75,486.875L2371.99,459.09Z" style="fill:rgb(224,144,173);"/>
            </g>
            <g transform="matrix(1.32201,0,0,1.3619,1847.23,-1833.82)">
                <path d="M2429.06,396.86L2416.48,414.94L2375.91,438.494L2371.99,436.224L2371.99,421.651L2417.8,394.998L2429.06,396.86Z" style="fill:rgb(224,144,173);"/>
            </g>
            <g transform="matrix(1.32201,0,0,1.3619,1847.23,-1833.82)">
                <path d="M2414.92,392.227L2429.06,396.86L2417.8,394.998L2414.92,392.227Z" style="fill:rgb(183,92,125);"/>
            </g>
            <g transform="matrix(1.32201,0,0,1.3619,1847.23,-1833.82)">
                <path d="M2421.98,465.238L2435.91,482.624L2432.58,485.392L2418.98,467.929L2421.98,465.238Z" style="fill:rgb(183,92,125);"/>
            </g>
            <g transform="matrix(1.32201,0,0,1.3619,1847.23,-1833.82)">
                <path d="M2305.87,506.848L2309.04,509.711L2294.71,526.442L2291.83,523.315L2305.87,506.848Z" style="fill:rgb(183,92,125);"/>
            </g>
            <g transform="matrix(1.32201,0,0,1.3619,1847.23,-1833.82)">
                <path d="M2362.11,479.25L2355.97,482.772L2355.97,477.874L2358.65,476.328L2362.11,479.25Z" style="fill:rgb(203,104,140);"/>
            </g>
            <g transform="matrix(1.32201,0,0,1.3619,1847.23,-1833.82)">
                <path d="M2355.97,477.874L2355.97,482.772L2309.04,509.711L2305.87,506.848L2355.97,477.874Z" style="fill:rgb(203,104,140);"/>
            </g>
            <g transform="matrix(1.32201,0,0,1.3619,1847.23,-1833.82)">
                <path d="M2371.99,416.877L2414.92,392.227L2417.8,394.998L2371.99,421.651L2371.99,416.877Z" style="fill:rgb(203,104,140);"/>
            </g>
            <g transform="matrix(1.32201,0,0,1.3619,1847.23,-1833.82)">
                <path d="M2365.85,437.801L2369.92,435.018L2371.99,436.224L2371.99,441.289L2365.85,437.801Z" style="fill:rgb(203,104,140);"/>
            </g>
            <g transform="matrix(1.32201,0,0,1.3619,1847.23,-1833.82)">
                <path d="M2371.99,436.224L2421.98,465.238L2418.98,467.929L2371.99,441.289L2371.99,436.224Z" style="fill:rgb(203,104,140);"/>
            </g>
            <g transform="matrix(0.081134,0,0,0.11852,4200.8,-1531.65)">
                <path d="M9380.16,2203.54L9510.7,2228.19L9641.25,2198.68L9510.7,2169.17L9380.16,2203.54Z" style="fill:none;"/>
            </g>
            <g transform="matrix(0.081134,0,0,0.11852,4200.8,-1531.65)">
                <path d="M9380.16,4018.76L9380.16,2203.54" style="fill:none;"/>
            </g>
            <g transform="matrix(0.0587921,0,0,0.0605659,4006.88,-2439.89)">
                <path d="M16465.2,19851.4L16474.4,20253.3L17654.8,20954.8L17965.9,20921.5L17660,20528.8L16465.2,19851.4Z" style="fill:none;"/>
            </g>
            <g transform="matrix(0.0587921,0,0,0.0605659,4006.88,-2439.89)">
                <path d="M16465.2,19851.4L16556.8,19788.8L17727.6,20468.3L18040.6,20859.2L17965.9,20921.5" style="fill:none;"/>
            </g>
            <g transform="matrix(0.0587921,0,0,0.0605659,4006.88,-2439.89)">
                <path d="M17660,20528.8L17727.6,20468.3" style="fill:none;"/>
            </g>
            <g transform="matrix(0.0587921,0,0,0.0605659,4006.88,-2439.89)">
                <path d="M16381.2,20783.4L16384.9,21160.2L15192.9,21849.4L14865.7,21844.5L15187.9,21468.3L16381.2,20783.4Z" style="fill:none;"/>
            </g>
            <g transform="matrix(0.0587921,0,0,0.0605659,4006.88,-2439.89)">
                <path d="M16381.2,20783.4L16303.4,20717.7L15116.5,21403.9L14800.9,21774.2L14865.7,21844.5" style="fill:none;"/>
            </g>
            <g transform="matrix(0.0587921,0,0,0.0605659,4006.88,-2439.89)">
                <path d="M15116.5,21403.9L15187.9,21468.3" style="fill:none;"/>
            </g>
            <g transform="matrix(0.0587921,0,0,0.0605659,4006.88,-2439.89)">
                <path d="M16603.5,19488.2L17633.5,18888.9L17886.7,18930.7L17603.8,19337.3L16691.5,19866.9" style="fill:none;"/>
            </g>
            <g transform="matrix(0.0587921,0,0,0.0605659,4006.88,-2439.89)">
                <path d="M16603.5,19380.8L17568.7,18826.5L17886.7,18930.7" style="fill:none;"/>
            </g>
            <g transform="matrix(0.0587921,0,0,0.0605659,4006.88,-2439.89)">
                <path d="M17568.7,18826.5L17633.5,18888.9" style="fill:none;"/>
            </g>
            <g transform="matrix(0.081134,0,0,0.11852,3808.06,-3999.82)">
                <path d="M14351.4,23053.2L14351.4,24877" style="fill:none;"/>
            </g>
            <g transform="matrix(0.081134,0,0,0.11852,3808.06,-3999.82)">
                <path d="M14481.9,23023.7L14481.9,24843.7" style="fill:none;"/>
            </g>
            <g transform="matrix(0.081134,0,0,0.11852,3808.06,-3999.82)">
                <path d="M14481.9,24843.7L14351.4,24877" style="fill:none;"/>
            </g>
            <g transform="matrix(0.081134,0,0,0.11852,3808.06,-3999.82)">
                <path d="M14351.4,24877L14220.8,24843.7" style="fill:none;"/>
            </g>
            <g transform="matrix(0.7388,0,0,0.7388,1527.28,-4758.89)">
                <path d="M3785.89,4829.86C3785.89,4829.86 3774.72,4821.19 3770.85,4816.34C3770.85,4816.34 3751.45,4817.98 3745.73,4804.45C3747.26,4804.82 3748.88,4805.15 3750.58,4805.42C3750.68,4805.44 3750.73,4805.45 3750.73,4805.44C3750.73,4805.42 3759.84,4812.87 3767.59,4811.2C3767.59,4811.2 3769.73,4811.02 3770.17,4806.16C3771.61,4806.08 3773.09,4805.96 3774.61,4805.82L3774.47,4813.5C3775.3,4815.57 3785.92,4821.58 3785.92,4821.58L3785.89,4829.86Z" style="fill:rgb(51,12,60);"/>
            </g>
            <g transform="matrix(0.7388,0,0,0.7388,1527.28,-4758.89)">
                <path d="M3804.98,4839.6C3803.63,4840.32 3802.23,4841.01 3800.77,4841.66C3800.77,4841.66 3796.87,4838.75 3799.41,4834.1C3799.41,4834.1 3801.67,4833.38 3805.02,4831.73C3805.01,4834.14 3804.99,4836.78 3804.98,4839.6Z" style="fill:rgb(51,12,60);"/>
            </g>
            <g transform="matrix(0.7388,0,0,0.7388,1527.28,-4758.89)">
                <path d="M3830.43,4816.34C3830.43,4816.34 3821.8,4830.6 3804.98,4839.6C3804.99,4836.78 3805.01,4834.14 3805.02,4831.73C3809.99,4829.28 3817.39,4824.77 3823.41,4817.54C3825.66,4817.26 3828.01,4816.87 3830.43,4816.34Z" style="fill:rgb(51,12,60);"/>
            </g>
            <g transform="matrix(0.7388,0,0,0.7388,1527.28,-4758.89)">
                <path d="M3805.26,4817.3C3797.5,4816.05 3791.45,4813.46 3787.16,4811L3791.37,4805.29L3805.72,4809.32C3805.72,4809.32 3805.5,4815.67 3805.26,4817.3Z" style="fill:rgb(100,28,78);"/>
            </g>
            <g transform="matrix(0.7388,0,0,0.7388,1527.28,-4758.89)">
                <path d="M3787.16,4811C3791.45,4813.46 3797.5,4816.05 3805.26,4817.3C3805.23,4817.47 3805.21,4817.59 3805.18,4817.65C3805.12,4817.79 3805.07,4823.35 3805.02,4831.73C3801.67,4833.38 3799.41,4834.1 3799.41,4834.1C3796.87,4838.75 3800.77,4841.66 3800.77,4841.66C3802.23,4841.01 3803.63,4840.32 3804.98,4839.6C3804.87,4867.89 3804.82,4913.47 3804.82,4913.47C3792.87,4920.74 3785.56,4913.66 3785.56,4913.66L3785.96,4812.63L3787.16,4811Z" style="fill:rgb(100,28,78);"/>
            </g>
            <g transform="matrix(0.738458,0,0,0.742345,1529.01,-4775.09)">
                <path d="M3858.59,4674.54C3858.59,4674.54 3876.59,4730.5 3828.95,4736.23C3828.95,4736.23 3840.66,4752.6 3818.88,4755.92C3818.88,4755.92 3833.92,4795.7 3785.56,4783.43C3785.56,4783.43 3755.93,4820.07 3717.95,4775.5C3716.97,4768.53 3718.05,4763.15 3718.05,4763.15C3695.93,4761.68 3705.3,4735.87 3705.3,4735.87C3697.26,4733.36 3679.36,4712.15 3689.91,4689.82C3700.46,4667.49 3724.97,4670.72 3725.08,4670.29C3725.19,4669.86 3732.12,4643.29 3758.52,4634.49C3784.92,4625.69 3805.72,4645.42 3805.72,4645.42C3820.61,4636.51 3826.03,4654.57 3826.03,4654.57C3852.27,4645.88 3858.59,4674.54 3858.59,4674.54Z" style="fill:rgb(132,137,73);"/>
            </g>
            <g transform="matrix(0.7388,0,0,0.7388,1527.28,-4758.89)">
                <path d="M3717.95,4775.5C3755.93,4820.07 3785.56,4783.43 3785.56,4783.43C3833.92,4795.7 3818.88,4755.92 3818.88,4755.92C3840.66,4752.6 3828.95,4736.23 3828.95,4736.23C3876.59,4730.5 3858.59,4674.54 3858.59,4674.54C3858.59,4674.54 3878.48,4663.56 3893.68,4693.45C3908.89,4723.33 3884.13,4752.68 3884.13,4752.68C3890.39,4781.59 3858.66,4805.29 3858.66,4805.29C3848.26,4811.05 3838.84,4814.5 3830.43,4816.34L3823.41,4817.54C3816.58,4818.39 3810.52,4818.15 3805.26,4817.3C3805.5,4815.67 3805.72,4809.32 3805.72,4809.32L3791.37,4805.29L3787.16,4811C3782.01,4808.05 3779.4,4805.29 3779.4,4805.29C3777.76,4805.5 3776.17,4805.67 3774.61,4805.82C3773.09,4805.96 3771.61,4806.08 3770.17,4806.16C3762.69,4806.61 3756.26,4806.31 3750.73,4805.44C3750.68,4805.44 3750.63,4805.43 3750.58,4805.42C3749.75,4805.27 3745.73,4804.45 3745.73,4804.45C3725.29,4799.46 3719.38,4785.76 3717.95,4775.5Z" style="fill:rgb(98,99,42);"/>
            </g>
            <g transform="matrix(1.22859,0,0,1.22859,-991.763,-5642.86)">
                <path d="M4327,3613.52L4326.75,3674.28C4326.75,3674.28 4331.15,3678.53 4338.34,3674.16C4338.34,3674.16 4338.4,3616.89 4338.56,3616.54C4338.72,3616.19 4338.88,3611.53 4338.88,3611.53L4330.25,3609.11L4327,3613.52Z" style="fill:none;"/>
            </g>
            <g transform="matrix(1.22859,0,0,1.22859,-991.763,-5642.86)">
                <path d="M4323.05,3609.11C4323.05,3609.11 4339.44,3626.4 4370.72,3609.11C4370.72,3609.11 4389.79,3594.86 4386.03,3577.47C4386.03,3577.47 4400.92,3559.82 4391.77,3541.85C4382.63,3523.88 4370.67,3530.48 4370.67,3530.48C4370.67,3530.48 4366.87,3513.25 4351.09,3518.48C4351.09,3518.48 4347.83,3507.62 4338.88,3512.97C4338.88,3512.97 4326.37,3501.11 4310.5,3506.4C4294.62,3511.69 4290.45,3527.66 4290.39,3527.92C4290.32,3528.18 4275.58,3526.24 4269.24,3539.67C4262.9,3553.1 4273.66,3565.86 4278.49,3567.36C4278.49,3567.36 4272.86,3582.88 4286.16,3583.76C4286.16,3583.76 4279.96,3614.57 4323.05,3609.11Z" style="fill:none;"/>
            </g>
            <g transform="matrix(1.15926,0,0,1.22859,-695.924,-5642.86)">
                <path d="M4370.67,3530.48C4370.67,3530.48 4381.5,3564.13 4352.85,3567.58C4352.85,3567.58 4359.89,3577.42 4346.79,3579.42C4346.79,3579.42 4355.84,3603.34 4326.75,3595.96C4326.75,3595.96 4308.94,3617.99 4286.1,3591.19" style="fill:none;"/>
            </g>
            <g transform="matrix(1.22859,0,0,1.22859,-991.763,-5642.86)">
                <path d="M4335.09,3626.43C4335.09,3626.43 4343.46,3623.75 4349.52,3616.47L4353.74,3615.75C4353.74,3615.75 4347.68,3625.76 4335.9,3630.98C4335.9,3630.98 4333.56,3629.23 4335.09,3626.43Z" style="fill:none;"/>
            </g>
            <g transform="matrix(1.22859,0,0,1.22859,-991.763,-5642.86)">
                <path d="M4326.97,3618.91C4326.97,3618.91 4320.59,3615.29 4320.09,3614.04L4320.17,3609.43" style="fill:none;"/>
            </g>
            <g transform="matrix(1.22859,0,0,1.22859,-991.763,-5642.86)">
                <path d="M4326.95,3623.89C4326.95,3623.89 4320.24,3618.67 4317.91,3615.75C4317.91,3615.75 4306.24,3616.74 4302.8,3608.6C4302.8,3608.6 4305.82,3609.22 4305.81,3609.2C4305.81,3609.19 4311.29,3613.66 4315.95,3612.66C4315.95,3612.66 4317.24,3612.55 4317.51,3609.63" style="fill:none;"/>
            </g>
            <g transform="matrix(1.56235,0,0,1.56235,4114.43,-1539.5)">
                <path d="M409.371,278.758L409.371,273.781L409.349,273.781C409.212,270.599 406.862,267.275 402.361,264.677L350.378,234.664C341.901,229.77 328.959,229.233 321.618,233.472L302.981,244.437C299.567,246.408 297.965,249.08 298.056,251.865L298.033,251.861L298.033,256.598L298.046,256.602C298.034,259.878 300.397,263.336 305.047,266.02L357.03,296.032C365.507,300.927 378.448,301.463 385.789,297.225L404.426,286.26C407.872,284.27 409.473,281.566 409.349,278.753L409.371,278.758Z" style="fill:rgb(70,2,55);fill-rule:nonzero;"/>
            </g>
            <g transform="matrix(1.56235,0,0,1.56235,4114.44,-1539.5)">
                <path d="M385.789,292.246L404.426,281.28C411.767,277.042 410.838,269.57 402.361,264.677L350.378,234.664C341.901,229.77 328.959,229.233 321.618,233.472L302.981,244.437C295.641,248.675 296.57,256.147 305.047,261.041L357.03,291.054C365.507,295.948 378.448,296.484 385.789,292.246Z" style="fill:rgb(90,28,76);fill-rule:nonzero;"/>
            </g>
            <g transform="matrix(1.56235,0,0,1.56235,4114.44,-1539.5)">
                <path d="M343.856,256.193L318.239,241.403L318.239,192.317L343.856,207.107L343.856,256.193Z" style="fill:rgb(76,8,61);fill-rule:nonzero;"/>
            </g>
            <g transform="matrix(1.56235,0,0,1.56235,4114.44,-1539.5)">
                <path d="M343.856,256.193L349.879,252.714L349.879,203.628L343.856,207.107L343.856,256.193Z" style="fill:rgb(119,40,85);fill-rule:nonzero;"/>
            </g>
            <g transform="matrix(1.56235,0,0,1.56235,4114.44,-1539.5)">
                <path d="M388.066,282.881L362.448,268.09L362.448,219.004L388.066,233.794L388.066,282.881Z" style="fill:rgb(76,8,61);fill-rule:nonzero;"/>
            </g>
            <g transform="matrix(1.56235,0,0,1.56235,4114.44,-1539.5)">
                <path d="M388.066,282.881L394.088,279.401L394.088,230.315L388.066,233.794L388.066,282.881Z" style="fill:rgb(119,40,85);fill-rule:nonzero;"/>
            </g>
            <g transform="matrix(1.56235,0,0,1.56235,4114.44,-1539.5)">
                <path d="M451.838,286.095L262.496,176.778L262.496,37.082L451.838,146.398L451.838,286.095Z" style="fill:rgb(183,92,125);fill-rule:nonzero;"/>
            </g>
            <g transform="matrix(1.56235,0,0,1.56235,4114.44,-1539.5)">
                <path d="M451.838,273.781L262.496,164.464L262.496,46.576L451.838,155.892L451.838,273.781Z" style="fill:rgb(90,28,76);fill-rule:nonzero;"/>
            </g>
            <g transform="matrix(1.56235,0,0,1.56235,4114.44,-1539.5)">
                <path d="M359.386,97.645C359.386,99.06 358.393,99.633 357.167,98.926C355.941,98.218 354.948,96.498 354.948,95.083C354.948,93.668 355.941,93.095 357.167,93.803C358.393,94.51 359.386,96.23 359.386,97.645Z" style="fill:white;fill-rule:nonzero;"/>
            </g>
            <g transform="matrix(1.56235,0,0,1.56235,4114.44,-1539.5)">
                <path d="M363.692,100.131C363.692,100.784 363.234,101.048 362.669,100.722C362.104,100.396 361.646,99.603 361.646,98.95C361.646,98.297 362.104,98.033 362.669,98.359C363.234,98.686 363.692,99.479 363.692,100.131Z" style="fill:white;fill-rule:nonzero;"/>
            </g>
            <g transform="matrix(1.56235,0,0,1.56235,4114.44,-1539.5)">
                <path d="M457.348,143.17L451.838,146.351L451.838,286.095L457.348,282.914L457.348,143.17Z" style="fill:rgb(164,65,110);fill-rule:nonzero;"/>
            </g>
            <g transform="matrix(1.56235,0,0,1.56235,4114.44,-1539.5)">
                <path d="M457.348,143.17L451.838,146.351L262.495,37.08L268.006,33.899L457.348,143.17Z" style="fill:rgb(171,74,118);fill-rule:nonzero;"/>
            </g>
            <g transform="matrix(1.56235,0,0,1.56235,4114.02,-1505.97)">
                <path d="M456.325,350.815C438.277,361.235 409.015,361.235 390.966,350.815C383.372,346.432 378.987,340.9 377.783,335.188C378.987,329.478 383.372,323.946 390.966,319.563C409.015,309.142 438.277,309.142 456.326,319.563C463.919,323.946 468.305,329.477 469.509,335.188C468.305,340.9 463.919,346.431 456.325,350.815ZM479.845,329.088C478.729,321.728 473.301,314.545 463.544,308.912C441.509,296.189 405.783,296.19 383.748,308.912C372.729,315.273 367.221,323.611 367.221,331.949L367.221,338.432C367.221,339.727 367.358,341.018 367.631,342.282C367.803,343.122 368.021,343.959 368.307,344.791L368.315,344.825L368.321,344.831C370.427,350.926 375.564,356.741 383.747,361.465C385.23,362.322 386.781,363.116 388.38,363.857L388.389,363.864L388.401,363.866C410.557,374.124 442.999,373.327 463.544,361.465C473.286,355.841 478.706,348.671 479.834,341.322C479.869,341.093 479.883,340.861 479.883,340.628L479.845,329.088Z" style="fill:rgb(172,62,113);fill-rule:nonzero;"/>
            </g>
            <g transform="matrix(1.56235,0,0,1.56235,4114.02,-1505.97)">
                <path d="M456.325,354.055C438.277,364.476 409.015,364.476 390.966,354.055C372.917,343.635 372.917,326.74 390.966,316.319C409.015,305.899 438.277,305.899 456.326,316.319C474.374,326.74 474.374,343.635 456.325,354.055Z" style="fill:rgb(255,216,228);fill-rule:nonzero;"/>
            </g>
            <g transform="matrix(1.56235,0,0,1.56235,4114.02,-1505.97)">
                <path d="M461.038,319.503C446.966,333.575 432.894,347.648 418.82,361.721C424.69,362.074 430.655,361.781 436.368,360.841L468.48,328.728C467.077,325.467 464.603,322.328 461.038,319.503Z" style="fill:white;fill-rule:nonzero;"/>
            </g>
            <g transform="matrix(1.56235,0,0,1.56235,4114.02,-1505.97)">
                <path d="M467.253,344.038L458.769,352.522C462.575,349.957 465.408,347.076 467.253,344.038Z" style="fill:white;fill-rule:nonzero;"/>
            </g>
            <g transform="matrix(1.56235,0,0,1.56235,4114.02,-1505.97)">
                <path d="M467.253,344.038L467.001,343.786L458.517,352.27L458.968,352.818C462.809,350.229 465.68,347.314 467.558,344.223L469.093,341.694L467.001,343.786L467.253,344.038L466.948,343.853C465.136,346.838 462.342,349.685 458.569,352.227L458.769,352.522L459.021,352.774L467.505,344.29L467.253,344.038L466.948,343.853L467.253,344.038Z" style="fill-rule:nonzero;"/>
            </g>
            <g transform="matrix(1.56235,0,0,1.56235,4114.02,-1505.97)">
                <path d="M456.325,350.815C438.277,361.235 409.015,361.235 390.966,350.815C372.917,340.395 372.917,323.5 390.966,313.08C409.015,302.659 438.277,302.659 456.326,313.079C474.374,323.5 474.374,340.395 456.325,350.815ZM463.544,308.912C441.509,296.189 405.783,296.19 383.748,308.912C361.712,321.634 361.712,342.261 383.747,354.982C405.782,367.705 441.509,367.705 463.544,354.982C485.579,342.261 485.579,321.634 463.544,308.912Z" style="fill:rgb(227,133,171);fill-rule:nonzero;"/>
            </g>
            <g transform="matrix(1.56235,0,0,1.56235,4114.02,-1505.97)">
                <path d="M362.388,371.377C361.207,369.332 361.914,366.692 363.96,365.512L380.263,356.1C382.308,354.919 384.946,355.626 386.127,357.671C387.308,359.716 386.601,362.355 384.556,363.536L368.253,372.948C366.208,374.129 363.568,373.422 362.388,371.377Z" style="fill:rgb(53,3,78);fill-rule:nonzero;"/>
            </g>
            <g transform="matrix(1.56235,0,0,1.56235,4114.02,-1505.97)">
                <path d="M313.629,399.941C310.734,394.927 312.468,388.455 317.483,385.56L357.463,362.478C362.478,359.582 368.949,361.316 371.845,366.331C374.74,371.346 373.006,377.818 367.991,380.714L328.012,403.796C322.997,406.69 316.524,404.957 313.629,399.941Z" style="fill:rgb(227,133,171);fill-rule:nonzero;"/>
            </g>
            <g transform="matrix(1.56235,0,0,1.56235,4114.02,-1505.97)">
                <path d="M313.749,389.232C311.837,392.413 311.652,396.517 313.629,399.941C315.675,403.485 319.507,405.381 323.349,405.172C323.684,402.705 323.248,399.781 321.942,396.935C320.05,392.808 316.846,389.954 313.749,389.232Z" style="fill:rgb(172,62,113);fill-rule:nonzero;"/>
            </g>
            <g transform="matrix(1.56235,0,0,1.56235,4114.44,-1539.5)">
                <path d="M356.71,335.693L273.917,383.494C268.029,386.894 259.04,387.266 253.942,384.322L207.528,357.524C202.429,354.581 201.174,349.909 206.862,344.774L291.755,298.192C297.643,294.793 306.631,294.42 311.729,297.364L358.145,321.473C363.242,324.416 362.598,332.295 356.71,335.693Z" style="fill:rgb(240,222,165);fill-rule:nonzero;"/>
            </g>
            <g transform="matrix(1.56235,0,0,1.56235,4114.44,-1539.5)">
                <path d="M356.71,333.005L273.917,380.806C268.029,384.204 259.04,384.577 253.942,381.633L207.528,354.836C202.429,351.892 203.075,346.702 208.962,343.304L291.755,295.503C297.643,292.104 306.631,291.731 311.729,294.675L358.145,321.473C363.242,324.416 362.598,329.605 356.71,333.005Z" style="fill:rgb(255,242,200);fill-rule:nonzero;"/>
            </g>
            <g transform="matrix(1.56235,0,0,1.56235,4114.44,-1539.5)">
                <path d="M208.219,355.234L289.566,342.04L312.42,295.074L317.955,298.27L296.685,346.149L213.154,358.084L208.219,355.234Z" style="fill:rgb(240,222,165);fill-rule:nonzero;"/>
            </g>
            <g transform="matrix(1.56235,0,0,1.56235,4114.44,-1539.5)">
                <path d="M272.705,344.774L267.525,345.615L253.252,381.234L253.942,381.633C255.705,382.651 257.937,383.263 260.342,383.5L272.705,344.774Z" style="fill:rgb(240,222,165);fill-rule:nonzero;"/>
            </g>
            <g transform="matrix(1.56235,0,0,1.56235,4114.44,-1539.5)">
                <path d="M294.303,332.306L295.758,329.314L357.453,321.073C359.457,322.23 360.721,323.658 361.258,325.157L294.303,332.306Z" style="fill:rgb(240,222,165);fill-rule:nonzero;"/>
            </g>
            <path d="M4457.4,-1220.4L4440.05,-1210.39C4439.98,-1210.43 4439.92,-1210.47 4439.86,-1210.51C4434.92,-1213.49 4431.8,-1212.13 4431.8,-1212.13C4434.87,-1214.09 4437.31,-1214.7 4442.93,-1218.67C4448.76,-1222.79 4452.17,-1222.85 4457.4,-1220.4Z" style="fill:rgb(110,17,60);"/>
            <path d="M4532.15,-1161.36L4514.88,-1150.93L4514.88,-1151.02C4514.28,-1165.33 4506.3,-1171.9 4501.41,-1174.93L4518.54,-1184.93C4520.04,-1183.87 4521.36,-1182.82 4522.44,-1181.79C4529.44,-1175.1 4531.44,-1168.91 4532.06,-1162.31C4532.09,-1161.99 4532.12,-1161.68 4532.15,-1161.36Z" style="fill:rgb(175,81,124);"/>
            <path d="M4511.99,-1073.09C4513.49,-1075.66 4513.67,-1076 4514.55,-1080.5C4515.43,-1084.99 4514.63,-1096.88 4514.88,-1115.5C4515.13,-1133.66 4515.62,-1133.05 4514.88,-1150.93L4532.15,-1161.36C4532.67,-1155.07 4532.54,-1148.71 4532.3,-1141.31C4532.06,-1133.54 4532.43,-1105.87 4532.47,-1096.06C4532.51,-1086.25 4531.69,-1084.44 4528.67,-1082.28C4525.65,-1080.12 4522.2,-1077.67 4514.49,-1074.27C4513.53,-1073.85 4512.71,-1073.45 4511.99,-1073.09Z" style="fill:rgb(146,44,91);"/>
            <path d="M4518.54,-1184.93L4501.41,-1174.93C4501.38,-1174.95 4501.34,-1174.97 4501.31,-1174.99C4500.24,-1175.65 4499.33,-1176.13 4498.68,-1176.49C4495.06,-1178.5 4476.49,-1189.31 4471.73,-1192.19C4467.02,-1195.04 4445.34,-1207.22 4440.05,-1210.39L4457.4,-1220.4C4458.26,-1220 4459.16,-1219.53 4460.13,-1219C4467.04,-1215.24 4479.67,-1207.92 4488.88,-1202.01C4496.67,-1197.01 4510.3,-1190.79 4518.54,-1184.93Z" style="fill:rgb(130,29,76);"/>
            <path d="M4442.98,-1167.27L4454.44,-1161.36L4454.06,-1118.09L4442.58,-1124.73L4442.98,-1167.27Z" style="fill:white;"/>
            <path d="M4461.73,-1156.17L4472.62,-1150.13L4472.86,-1144.04C4475.19,-1146.55 4476.03,-1146.33 4478.86,-1146.53C4481.68,-1146.73 4486.85,-1142.98 4490.66,-1139.67C4494.47,-1136.36 4497.06,-1128.22 4497.68,-1122.82C4498.3,-1117.42 4497.43,-1092.82 4497.43,-1092.82L4486.31,-1099.59C4486.31,-1099.59 4485.82,-1116.55 4486.06,-1121.35C4486.29,-1126.16 4485.13,-1130.11 4483.58,-1132.34C4482.03,-1134.58 4478.27,-1136.63 4475.36,-1135.32C4472.45,-1134.01 4473.13,-1127.29 4473.13,-1127.29L4473.2,-1107.04L4461.47,-1113.72L4461.73,-1156.17Z" style="fill:white;"/>
            <path d="M4431.8,-1212.13C4431.8,-1212.13 4434.92,-1213.49 4439.86,-1210.51C4439.92,-1210.47 4439.98,-1210.43 4440.05,-1210.39C4445.34,-1207.22 4467.02,-1195.04 4471.73,-1192.19C4476.49,-1189.31 4495.06,-1178.5 4498.68,-1176.49C4499.33,-1176.13 4500.24,-1175.65 4501.31,-1174.99C4506.19,-1171.99 4514.28,-1165.43 4514.88,-1151.02C4515.63,-1133.05 4515.13,-1133.69 4514.88,-1115.5C4514.63,-1096.88 4515.43,-1084.99 4514.55,-1080.5C4513.67,-1076 4513.49,-1075.66 4511.99,-1073.09C4507.01,-1070.57 4507.25,-1069.78 4499.98,-1073.2C4491.68,-1077.1 4444.38,-1102.42 4434.57,-1112.24C4424.76,-1122.07 4426.05,-1132.95 4426.05,-1132.95L4426.13,-1202.48C4427,-1204.92 4425.55,-1207.41 4429.77,-1210.7C4430.5,-1211.26 4431.16,-1211.73 4431.8,-1212.13ZM4442.98,-1167.27L4442.58,-1124.73L4454.06,-1118.09L4454.44,-1161.36L4442.98,-1167.27ZM4461.73,-1156.17L4461.47,-1113.72L4473.2,-1107.04L4473.13,-1127.29C4473.13,-1127.29 4472.45,-1134.01 4475.36,-1135.32C4478.27,-1136.63 4482.03,-1134.58 4483.58,-1132.34C4485.13,-1130.11 4486.29,-1126.16 4486.06,-1121.35C4485.82,-1116.55 4486.31,-1099.59 4486.31,-1099.59L4497.43,-1092.82C4497.43,-1092.82 4498.3,-1117.42 4497.68,-1122.82C4497.06,-1128.22 4494.47,-1136.36 4490.66,-1139.67C4486.85,-1142.98 4481.68,-1146.73 4478.86,-1146.53C4476.03,-1146.33 4475.19,-1146.55 4472.86,-1144.04L4472.62,-1150.13L4461.73,-1156.17ZM4443.64,-1186.27C4440.97,-1184.72 4440.98,-1179.69 4443.67,-1175.03C4446.37,-1170.38 4450.72,-1167.86 4453.39,-1169.41C4456.07,-1170.95 4456.05,-1175.99 4453.36,-1180.64C4450.67,-1185.29 4446.31,-1187.81 4443.64,-1186.27Z" style="fill:rgb(172,62,113);"/>
            <path d="M4426.13,-1202.48L4426.05,-1132.95C4426.05,-1132.95 4424.76,-1122.07 4434.57,-1112.24C4444.38,-1102.42 4491.68,-1077.1 4499.98,-1073.2C4508.29,-1069.29 4506.78,-1070.88 4514.49,-1074.27C4522.2,-1077.67 4525.65,-1080.12 4528.67,-1082.28C4531.69,-1084.44 4532.51,-1086.25 4532.47,-1096.06C4532.43,-1105.87 4532.06,-1133.54 4532.3,-1141.31C4532.55,-1149.09 4532.68,-1155.71 4532.06,-1162.31C4531.44,-1168.91 4529.44,-1175.1 4522.44,-1181.79C4515.43,-1188.49 4498.09,-1196.1 4488.88,-1202.01C4479.67,-1207.92 4467.04,-1215.24 4460.13,-1219C4453.22,-1222.76 4449.71,-1223.46 4442.93,-1218.67C4436.15,-1213.88 4434,-1213.98 4429.77,-1210.7C4425.55,-1207.41 4427,-1204.92 4426.13,-1202.48Z" style="fill:none;"/>
            <path d="M4431.8,-1212.13C4431.8,-1212.13 4434.92,-1213.49 4439.86,-1210.51C4444.79,-1207.53 4466.96,-1195.08 4471.73,-1192.19C4476.49,-1189.31 4495.06,-1178.5 4498.68,-1176.49C4502.29,-1174.49 4514.15,-1168.59 4514.88,-1151.02C4515.63,-1133.05 4515.13,-1133.69 4514.88,-1115.5C4514.63,-1096.88 4515.43,-1084.99 4514.55,-1080.5C4513.67,-1076 4513.49,-1075.66 4511.99,-1073.09" style="fill:none;"/>
            <path d="M4440.05,-1210.39L4457.4,-1220.4" style="fill:none;"/>
            <path d="M4501.41,-1174.93L4518.54,-1184.93" style="fill:none;"/>
            <path d="M4514.88,-1150.93L4532.15,-1161.36" style="fill:none;"/>
            <path d="M4442.98,-1167.27L4442.58,-1124.73L4454.06,-1118.09L4454.44,-1161.36L4442.98,-1167.27Z" style="fill:none;"/>
            <path d="M4461.73,-1156.17L4461.47,-1113.72L4473.2,-1107.04L4473.13,-1127.29C4473.13,-1127.29 4472.45,-1134.01 4475.36,-1135.32C4478.27,-1136.63 4482.03,-1134.58 4483.58,-1132.34C4485.13,-1130.11 4486.29,-1126.16 4486.06,-1121.35C4485.82,-1116.55 4486.31,-1099.59 4486.31,-1099.59L4497.43,-1092.82C4497.43,-1092.82 4498.3,-1117.42 4497.68,-1122.82C4497.06,-1128.22 4494.47,-1136.36 4490.66,-1139.67C4486.85,-1142.98 4481.68,-1146.73 4478.86,-1146.53C4476.03,-1146.33 4475.19,-1146.55 4472.86,-1144.04L4472.62,-1150.13L4461.73,-1156.17Z" style="fill:none;"/>
            <g transform="matrix(0.767957,-0.444344,0.569712,0.98463,1702.46,1957.11)">
                <ellipse cx="4448.49" cy="-1176.37" rx="6.306" ry="8.561" style="fill:white;"/>
            </g>
            <g transform="matrix(0.692849,0,0,0.692849,4164.42,-1857.84)">
                <path d="M321.139,1140.74L337.547,1131.6L337.457,1170.17C329.311,1173.8 320.977,1169.58 320.977,1169.58L321.139,1140.74Z" style="fill:rgb(51,12,60);"/>
            </g>
            <g transform="matrix(0.692849,0,0,0.692849,4164.42,-1857.84)">
                <path d="M243.938,1183.73L258.729,1175.5L258.148,1217.4C248.011,1221.77 243.198,1216.57 243.198,1216.57L243.938,1183.73Z" style="fill:rgb(51,12,60);"/>
            </g>
            <g transform="matrix(0.370099,0,0,0.370099,6168.62,-3573.68)">
                <path d="M-4999.49,6749.06L-4981.72,6760.63L-4982.58,6801.24L-5000.94,6785.57L-4999.49,6749.06Z" style="fill:rgb(242,242,242);"/>
            </g>
            <g transform="matrix(0.370099,0,0,0.370099,6168.62,-3573.68)">
                <path d="M-4999.49,6749.06L-4975.38,6734.74C-4975.14,6734.69 -4956.05,6745.73 -4955.92,6745.71L-4981.72,6760.63L-4999.49,6749.06Z" style="fill:rgb(242,242,242);"/>
            </g>
            <g transform="matrix(0.370099,0,0,0.370099,6168.62,-3573.68)">
                <path d="M-4930.93,6708.35L-4891.52,6684.95L-4872.12,6697.24L-4913.45,6721.14L-4930.93,6708.35Z" style="fill:rgb(242,242,242);"/>
            </g>
            <g transform="matrix(0.370099,0,0,0.370099,6168.62,-3573.68)">
                <path d="M-4851.07,6660.94L-4806.71,6634.6L-4789.44,6649.42L-4832.14,6674.12L-4851.07,6660.94Z" style="fill:rgb(242,242,242);"/>
            </g>
            <g transform="matrix(0.370099,0,0,0.370099,6168.62,-3573.68)">
                <path d="M-4958.62,6852.18C-4958.76,6851.93 -4982.58,6801.24 -4982.58,6801.24L-4981.72,6760.63L-4955.92,6745.71C-4955.8,6745.69 -4917.99,6829.56 -4917.99,6829.56L-4958.62,6852.18Z" style="fill:white;"/>
            </g>
            <g transform="matrix(0.370099,0,0,0.370099,6168.62,-3573.68)">
                <path d="M-4872.43,6804.18C-4872.43,6804.18 -4872.43,6804.19 -4872.43,6804.18C-4872.93,6803.88 -4913.45,6721.14 -4913.45,6721.14L-4872.12,6697.24C-4872.12,6697.24 -4832.62,6781.41 -4832.44,6781.92L-4872.43,6804.18Z" style="fill:white;"/>
            </g>
            <g transform="matrix(0.370099,0,0,0.370099,6168.62,-3573.68)">
                <path d="M-4789.28,6757.88C-4789.51,6757.44 -4832.14,6674.12 -4832.14,6674.12L-4789.44,6649.42L-4789.44,6649.42L-4758.48,6714.53L-4758.31,6740.63L-4789.28,6757.88Z" style="fill:white;"/>
            </g>
            <g transform="matrix(0.370099,0,0,0.370099,6168.62,-3573.68)">
                <path d="M-4891.52,6684.95L-4851.07,6660.94L-4832.14,6674.12L-4872.12,6697.24L-4891.52,6684.95Z" style="fill:rgb(174,72,84);"/>
            </g>
            <g transform="matrix(0.370099,0,0,0.370099,6168.62,-3573.68)">
                <path d="M-4975.38,6734.74L-4930.93,6708.35L-4913.45,6721.14L-4955.92,6745.71C-4956.05,6745.73 -4975.14,6734.69 -4975.38,6734.74Z" style="fill:rgb(174,72,84);"/>
            </g>
            <g transform="matrix(0.370099,0,0,0.370099,6168.62,-3573.68)">
                <path d="M-5000.94,6785.57L-4982.58,6801.24L-4983.97,6866.3L-5003.71,6855.26L-5000.94,6785.57Z" style="fill:rgb(174,72,84);"/>
            </g>
            <g transform="matrix(0.370099,0,0,0.370099,6168.62,-3573.68)">
                <path d="M-4983.97,6866.3L-4982.58,6801.24C-4982.58,6801.24 -4958.76,6851.93 -4958.62,6852.18L-4983.97,6866.3Z" style="fill:rgb(226,89,105);"/>
            </g>
            <g transform="matrix(0.370099,0,0,0.370099,6168.62,-3573.68)">
                <path d="M-4758.48,6714.53L-4789.44,6649.42L-4789.44,6649.42L-4759.02,6631.82L-4758.48,6714.53Z" style="fill:rgb(226,89,105);"/>
            </g>
            <g transform="matrix(0.370099,0,0,0.370099,6168.62,-3573.68)">
                <path d="M-4832.44,6781.92C-4832.62,6781.41 -4872.12,6697.24 -4872.12,6697.24L-4832.14,6674.12C-4832.14,6674.12 -4789.51,6757.44 -4789.28,6757.88L-4814.1,6771.7L-4832.44,6781.92Z" style="fill:rgb(226,89,105);"/>
            </g>
            <g transform="matrix(0.370099,0,0,0.370099,6168.62,-3573.68)">
                <path d="M-4917.99,6829.56C-4917.99,6829.56 -4955.8,6745.69 -4955.92,6745.71L-4913.45,6721.14C-4913.45,6721.14 -4872.93,6803.88 -4872.43,6804.18L-4917.99,6829.56Z" style="fill:rgb(226,89,105);"/>
            </g>
            <g transform="matrix(0.370099,0,0,0.370099,6168.62,-3573.68)">
                <path d="M-4981.72,6760.63L-4983.97,6866.3L-4758.31,6740.63L-4759.02,6631.82L-4981.72,6760.63Z" style="fill:none;"/>
            </g>
            <g transform="matrix(0.370099,0,0,0.370099,6168.62,-3573.68)">
                <path d="M-4981.72,6760.63L-4999.49,6749.06L-5003.71,6855.26L-4983.97,6866.3" style="fill:none;"/>
            </g>
            <g transform="matrix(0.370099,0,0,0.370099,6168.62,-3573.68)">
                <path d="M-4958.62,6852.18L-4960.01,6913.66C-4960.01,6913.66 -4951,6923.38 -4932.02,6915.21L-4930.93,6836.76" style="fill:none;"/>
            </g>
            <g transform="matrix(0.370099,0,0,0.370099,6168.62,-3573.68)">
                <path d="M-4814.1,6771.7L-4814.4,6825.7C-4814.4,6825.7 -4798.8,6833.59 -4783.55,6826.81L-4783.38,6754.59" style="fill:none;"/>
            </g>
            <g transform="matrix(0.370099,0,0,0.370099,6168.62,-3573.68)">
                <path d="M-5000.94,6785.57L-4982.58,6801.24C-4982.58,6801.24 -4958.76,6851.93 -4958.62,6852.18" style="fill:none;"/>
            </g>
            <g transform="matrix(0.370099,0,0,0.370099,6168.62,-3573.68)">
                <path d="M-4975.38,6734.74C-4975.14,6734.69 -4956.05,6745.73 -4955.92,6745.71C-4955.8,6745.69 -4917.99,6829.56 -4917.99,6829.56" style="fill:none;"/>
            </g>
            <g transform="matrix(0.370099,0,0,0.370099,6168.62,-3573.68)">
                <path d="M-4930.93,6708.35L-4913.45,6721.14" style="fill:none;"/>
            </g>
            <g transform="matrix(0.370099,0,0,0.370099,6168.62,-3573.68)">
                <path d="M-4913.45,6721.14C-4913.45,6721.14 -4872.48,6804.8 -4872.43,6804.18" style="fill:none;"/>
            </g>
            <g transform="matrix(0.370099,0,0,0.370099,6168.62,-3573.68)">
                <path d="M-4891.52,6684.95L-4872.12,6697.24C-4872.12,6697.24 -4832.16,6782.39 -4832.44,6781.92" style="fill:none;"/>
            </g>
            <g transform="matrix(0.370099,0,0,0.370099,6168.62,-3573.68)">
                <path d="M-4851.07,6660.94L-4832.14,6674.12C-4832.14,6674.12 -4789.51,6757.44 -4789.28,6757.88" style="fill:none;"/>
            </g>
            <g transform="matrix(0.370099,0,0,0.370099,6168.62,-3573.68)">
                <path d="M-4806.71,6634.6L-4789.44,6649.42L-4758.29,6714.94" style="fill:none;"/>
            </g>
            <g transform="matrix(0.370099,0,0,0.370099,6168.63,-3573.62)">
                <path d="M-4806.71,6634.6L-4778.94,6618.11L-4759.02,6631.82L-4789.44,6649.42L-4806.71,6634.6Z" style="fill:rgb(174,72,84);"/>
            </g>
        </g>
    </g>
</svg>
