<?xml version="1.0" encoding="UTF-8" standalone="no"?>
<!DOCTYPE svg PUBLIC "-//W3C//DTD SVG 1.1//EN" "http://www.w3.org/Graphics/SVG/1.1/DTD/svg11.dtd">
<svg width="100%" height="100%" viewBox="0 0 4000 4000" version="1.1" xmlns="http://www.w3.org/2000/svg" xmlns:xlink="http://www.w3.org/1999/xlink" xml:space="preserve" xmlns:serif="http://www.serif.com/" style="fill-rule:evenodd;clip-rule:evenodd;stroke-linejoin:round;stroke-miterlimit:2;">
    <rect id="Artboard1" x="0" y="0" width="4000" height="4000" style="fill:none;"/>
    <clipPath id="_clip1">
        <rect id="Artboard11" serif:id="Artboard1" x="0" y="0" width="4000" height="4000"/>
    </clipPath>
    <g clip-path="url(#_clip1)">
        <g id="Layer1">
            <rect x="0" y="0" width="4000" height="4000" style="fill:rgb(202,186,233);"/>
        </g>
        <g>
            <g transform="matrix(1.0031,0,0,1.02977,-6.00815,-8.17124e-14)">
                <path d="M475.987,0C475.987,0 473.892,165.46 472.945,240.227C472.662,262.574 460.585,283.203 440.985,294.819C405.828,315.654 346.981,350.529 294.529,381.615C271.082,395.511 256.729,420.275 256.629,447.01C256.529,473.746 270.696,498.611 294.039,512.674C450.085,606.678 733.314,777.3 875.151,862.745C927.719,894.413 994.137,894.454 1046.75,862.851C1217.13,760.5 1596.64,532.527 1771.16,427.689C1821.99,397.153 1839,332.966 1809.69,282.278C1745.85,171.863 1646.47,0 1646.47,0L475.987,0Z" style="fill:rgb(154,105,167);"/>
            </g>
            <path d="M471.455,0C471.455,0 467.92,162.734 466.305,237.102C465.813,259.738 453.884,280.582 434.617,292.472C401.016,313.208 345.373,347.547 295.101,378.571C271.608,393.069 257.364,418.758 257.512,446.364C257.66,473.97 272.179,499.505 295.825,513.75C452.742,608.279 735.672,778.721 876.514,863.566C928.445,894.85 993.41,894.891 1045.38,863.672C1214.11,762.316 1591.75,535.461 1768.09,429.532C1820.3,398.171 1837.72,330.743 1807.23,278.021C1743.33,167.504 1646.47,0 1646.47,0L471.455,0Z" style="fill:rgb(255,242,200);"/>
        </g>
        <g transform="matrix(1,0,0,1,-322.879,-241.77)">
            <path d="M917.155,528.979L1146.75,400.173L1268.54,471.942L1042.09,603.988L917.155,528.979Z" style="fill:rgb(146,201,212);"/>
        </g>
        <g transform="matrix(1,0,0,1,-322.879,-241.77)">
            <path d="M1274.11,824.893L1272.65,683.156C1280.99,670.839 1285.45,658.607 1287.74,647.832C1287.74,647.832 1303.92,671.773 1318.92,659.181C1330.67,649.313 1345.39,638.452 1349.19,608.375C1349.19,608.375 1351.16,613.653 1354.96,618.801L1354.38,778.033L1274.11,824.893Z" style="fill:rgb(146,201,212);"/>
        </g>
        <g transform="matrix(1,0,0,1,-322.879,-241.77)">
            <path d="M1230.04,850.623L1228.22,688.525C1234.03,694.555 1253.69,711.16 1272.63,683.19L1272.65,683.156L1274.11,824.893L1230.04,850.623Z" style="fill:rgb(89,167,182);"/>
        </g>
        <g transform="matrix(1,0,0,1,-322.879,-241.77)">
            <path d="M1180.36,879.624L1182.93,733.494C1189.93,734.358 1198.23,732.523 1206.51,724.047C1217.77,712.524 1223.84,700.212 1226.51,686.611C1226.51,686.611 1227.11,687.376 1228.22,688.525L1230.04,850.623L1180.36,879.624Z" style="fill:rgb(89,167,182);"/>
        </g>
        <g transform="matrix(1,0,0,1,-322.879,-241.77)">
            <path d="M1355.09,489.17L1051.81,667.832L1051.78,641.025L1355.09,463.507L1355.09,489.17Z" style="fill:rgb(89,167,182);"/>
        </g>
        <g transform="matrix(1,0,0,1,-322.879,-241.77)">
            <path d="M1268.54,471.942L1146.75,400.173L917.155,528.979L891.05,513.306L1141.72,372.293L1288.98,460.022L1268.54,471.942Z" style="fill:rgb(89,167,182);"/>
        </g>
        <g transform="matrix(1,0,0,1,-322.879,-241.77)">
            <path d="M826.586,513.174L1141.32,337.315L1355.09,463.507L1051.78,641.025L826.586,513.174ZM1042.09,603.988L1288.98,460.022L1141.72,372.293L891.05,513.306L1042.09,603.988Z" style="fill:rgb(105,186,201);"/>
        </g>
        <g transform="matrix(1,0,0,1,-322.879,-241.77)">
            <path d="M1052.18,954.451L1051.81,667.885L1104.58,718.538C1104.58,718.538 1094.43,786.463 1134.08,767.189C1153.63,757.69 1161.66,741.028 1164.75,724.699C1165.2,725.14 1172.66,732.225 1182.93,733.494L1180.36,879.624L1052.18,954.451Z" style="fill:rgb(146,201,212);"/>
        </g>
        <g transform="matrix(1,0,0,1,-322.879,-241.77)">
            <path d="M1272.65,683.156L1274.11,824.893" style="fill:none;"/>
        </g>
        <g transform="matrix(1,0,0,1,-322.879,-241.77)">
            <path d="M1182.93,733.494L1180.36,879.624" style="fill:none;"/>
        </g>
        <g transform="matrix(1,0,0,1,-322.879,-241.77)">
            <path d="M984.073,703.9L908.573,761.72L905.338,764.311" style="fill:rgb(105,186,201);"/>
        </g>
        <g transform="matrix(1,0,0,1,-322.879,-241.77)">
            <path d="M942.8,680.073L865.076,739.064" style="fill:none;"/>
        </g>
        <g transform="matrix(1,0,0,1,-322.879,-241.77)">
            <path d="M923.509,668.935L865.266,711.485" style="fill:none;"/>
        </g>
        <g transform="matrix(1,0,0,1,-322.879,-241.77)">
            <path d="M890.528,649.894L865.564,668.145" style="fill:none;"/>
        </g>
        <g transform="matrix(1,0,0,1,-322.879,-241.77)">
            <path d="M865.787,635.611L865.06,741.451L995.312,815.377L996.81,711.254L865.787,635.611Z" style="fill:rgb(105,186,201);"/>
        </g>
        <g transform="matrix(1,0,0,1,-322.879,-241.77)">
            <path d="M856.095,618.365L853.869,747.359L1005.59,835.15L1008.42,705.508L856.095,618.365Z" style="fill:rgb(105,186,201);"/>
        </g>
        <g transform="matrix(1,0,0,1,-322.879,-241.77)">
            <path d="M1349.19,608.375C1350.23,600.072 1350.45,590.304 1349.54,578.688L1349.28,578.422L1412.25,542.236C1412.76,546.928 1415.99,585.28 1390.88,615.733C1364.08,648.224 1349.19,608.375 1349.19,608.375Z" style="fill:rgb(215,100,180);"/>
        </g>
        <g transform="matrix(1,0,0,1,-322.879,-241.77)">
            <path d="M1226.51,686.611C1228.78,675.054 1228.6,662.567 1227.07,648.842L1226.79,648.562L1288.95,612.969C1289.5,617.193 1291.38,630.663 1287.74,647.832C1285.45,658.617 1280.98,670.861 1272.63,683.19C1250.08,716.488 1226.51,686.611 1226.51,686.611Z" style="fill:rgb(215,100,180);"/>
        </g>
        <g transform="matrix(1,0,0,1,-322.879,-241.77)">
            <path d="M1051.78,667.852L1355.09,489.17L1412.2,541.758C1412.2,541.758 1412.22,541.922 1412.25,542.236L1349.28,578.422L1104.58,718.538L1051.78,667.852Z" style="fill:rgb(77,126,231);"/>
            <clipPath id="_clip2">
                <path d="M1051.78,667.852L1355.09,489.17L1412.2,541.758C1412.2,541.758 1412.22,541.922 1412.25,542.236L1349.28,578.422L1104.58,718.538L1051.78,667.852Z"/>
            </clipPath>
            <g clip-path="url(#_clip2)">
                <path d="M1104.58,718.538L1051.78,667.852L1113.17,631.684L1165.74,683.516L1104.58,718.538Z" style="fill:rgb(231,77,184);"/>
                <path d="M1113.17,631.684L1173.89,595.917L1226.79,648.562L1165.74,683.516L1113.17,631.684Z" style="fill:rgb(252,152,221);"/>
                <path d="M1235.77,559.464L1296.9,523.448L1349.28,578.422L1288.95,612.969C1288.91,612.68 1288.88,612.434 1288.85,612.233L1235.77,559.464Z" style="fill:rgb(252,152,221);"/>
                <path d="M1051.81,667.885L1051.81,667.832L1113.17,631.684L1165.74,683.516L1104.58,718.538L1051.81,667.885Z" style="fill:rgb(226,118,193);"/>
                <path d="M1173.89,595.917L1235.77,559.464L1288.85,612.233C1288.88,612.434 1288.91,612.68 1288.95,612.969L1226.79,648.562L1173.89,595.917Z" style="fill:rgb(226,118,193);"/>
                <path d="M1355.09,489.17L1412.2,541.758C1412.2,541.758 1412.22,541.922 1412.25,542.236L1349.28,578.422L1296.9,523.448L1355.09,489.17Z" style="fill:rgb(226,118,193);"/>
            </g>
        </g>
        <g transform="matrix(1,0,0,1,-322.879,-241.77)">
            <path d="M1287.74,647.832C1291.38,630.663 1289.5,617.193 1288.95,612.969L1349.28,578.422L1349.54,578.688C1350.45,590.304 1350.23,600.072 1349.19,608.375C1345.39,638.452 1330.67,649.313 1318.92,659.181C1303.92,671.773 1287.74,647.832 1287.74,647.832Z" style="fill:rgb(238,129,204);"/>
        </g>
        <g transform="matrix(1,0,0,1,-322.879,-241.77)">
            <path d="M1164.75,724.699C1167.92,707.895 1165.87,691.444 1165.74,683.516L1226.79,648.562L1227.07,648.842C1228.6,662.567 1228.78,675.054 1226.51,686.611C1223.84,700.212 1217.77,712.524 1206.51,724.047C1186.08,744.963 1165.51,725.44 1164.75,724.699Z" style="fill:rgb(238,129,204);"/>
        </g>
        <g transform="matrix(1,0,0,1,-322.879,-241.77)">
            <path d="M1104.58,718.538L1165.74,683.516C1165.87,691.444 1167.92,707.895 1164.75,724.699C1161.66,741.028 1153.63,757.69 1134.08,767.189C1094.43,786.463 1104.58,718.538 1104.58,718.538Z" style="fill:rgb(215,100,180);"/>
        </g>
        <g transform="matrix(1,0,0,1,-322.879,-241.77)">
            <path d="M1104.58,718.538L1165.74,683.516" style="fill:none;"/>
        </g>
        <g transform="matrix(1,0,0,1,-322.879,-241.77)">
            <path d="M1165.74,683.516L1226.79,648.562" style="fill:none;"/>
        </g>
        <g transform="matrix(1,0,0,1,-322.879,-241.77)">
            <path d="M1226.79,648.562L1288.95,612.969" style="fill:none;"/>
        </g>
        <g transform="matrix(1,0,0,1,-322.879,-241.77)">
            <path d="M1288.95,612.969L1349.28,578.422" style="fill:none;"/>
        </g>
        <g transform="matrix(1,0,0,1,-322.879,-241.77)">
            <path d="M1349.28,578.422L1412.25,542.236" style="fill:none;"/>
        </g>
        <g transform="matrix(1,0,0,1,-322.879,-241.77)">
            <path d="M1349.19,608.375C1349.19,608.375 1364.08,648.224 1390.88,615.733C1417.67,583.242 1412.2,541.758 1412.2,541.758L1355.09,489.17" style="fill:none;"/>
        </g>
        <g transform="matrix(1,0,0,1,-322.879,-241.77)">
            <path d="M1287.74,647.832C1287.74,647.832 1303.92,671.773 1318.92,659.181C1330.67,649.313 1345.39,638.452 1349.19,608.375" style="fill:none;"/>
        </g>
        <g transform="matrix(1,0,0,1,-322.879,-241.77)">
            <path d="M1349.19,608.375C1350.23,600.072 1350.45,590.304 1349.54,578.688L1349.28,578.422" style="fill:none;"/>
        </g>
        <g transform="matrix(1,0,0,1,-322.879,-241.77)">
            <path d="M1349.28,578.422L1296.9,523.448" style="fill:none;"/>
        </g>
        <g transform="matrix(1,0,0,1,-322.879,-241.77)">
            <path d="M1226.51,686.611C1226.51,686.611 1250.08,716.488 1272.63,683.19C1280.98,670.861 1285.45,658.617 1287.74,647.832" style="fill:none;"/>
        </g>
        <g transform="matrix(1,0,0,1,-322.879,-241.77)">
            <path d="M1287.74,647.832C1291.38,630.663 1289.5,617.193 1288.95,612.969" style="fill:none;"/>
        </g>
        <g transform="matrix(1,0,0,1,-322.879,-241.77)">
            <path d="M1288.95,612.969C1288.91,612.68 1288.88,612.434 1288.85,612.233L1235.77,559.464" style="fill:none;"/>
        </g>
        <g transform="matrix(1,0,0,1,-322.879,-241.77)">
            <path d="M1164.72,724.677C1164.72,724.677 1164.73,724.685 1164.75,724.699" style="fill:none;"/>
        </g>
        <g transform="matrix(1,0,0,1,-322.879,-241.77)">
            <path d="M1164.75,724.699C1165.51,725.44 1186.08,744.963 1206.51,724.047C1217.77,712.524 1223.84,700.212 1226.51,686.611" style="fill:none;"/>
        </g>
        <g transform="matrix(1,0,0,1,-322.879,-241.77)">
            <path d="M1226.51,686.611C1228.78,675.054 1228.6,662.567 1227.07,648.842L1226.79,648.562" style="fill:none;"/>
        </g>
        <g transform="matrix(1,0,0,1,-322.879,-241.77)">
            <path d="M1226.79,648.562L1173.89,595.917" style="fill:none;"/>
        </g>
        <g transform="matrix(1,0,0,1,-322.879,-241.77)">
            <path d="M1051.78,667.852L1104.58,718.538" style="fill:none;"/>
        </g>
        <g transform="matrix(1,0,0,1,-322.879,-241.77)">
            <path d="M1104.58,718.538C1104.58,718.538 1094.43,786.463 1134.08,767.189C1153.63,757.69 1161.66,741.028 1164.75,724.699" style="fill:none;"/>
        </g>
        <g transform="matrix(1,0,0,1,-322.879,-241.77)">
            <path d="M1164.75,724.699C1167.92,707.895 1165.87,691.444 1165.74,683.516" style="fill:none;"/>
        </g>
        <g transform="matrix(1,0,0,1,-322.879,-241.77)">
            <path d="M1165.74,683.516L1113.17,631.684" style="fill:none;"/>
        </g>
        <g transform="matrix(1,0,0,1,-322.879,-241.77)">
            <path d="M1051.78,667.852L1355.09,489.17" style="fill:none;"/>
        </g>
        <g transform="matrix(1,0,0,1,-322.879,-241.77)">
            <path d="M1355.09,489.17L1355.09,463.507" style="fill:none;"/>
        </g>
        <g transform="matrix(1,0,0,1,-322.879,-241.77)">
            <path d="M917.155,528.979L1146.75,400.173L1268.54,471.942" style="fill:none;"/>
        </g>
        <g transform="matrix(1,0,0,1,-322.879,-241.77)">
            <path d="M891.05,513.306L1141.72,372.293L1288.98,460.022L1042.09,603.988L891.05,513.306Z" style="fill:none;"/>
        </g>
        <g transform="matrix(1,0,0,1,-322.879,-241.77)">
            <path d="M1052.18,954.451L1354.38,778.033L1354.96,618.801" style="fill:none;"/>
        </g>
        <g transform="matrix(1,0,0,1,-322.879,-241.77)">
            <path d="M826.586,513.174L1141.32,337.315L1355.09,463.507L1051.78,641.025" style="fill:none;"/>
        </g>
        <g transform="matrix(1,0,0,1,-322.879,-241.77)">
            <path d="M826.586,513.174L826.502,825.722L1052.18,954.451L1051.78,641.025L826.586,513.174Z" style="fill:rgb(105,186,201);"/>
            <clipPath id="_clip3">
                <path d="M826.586,513.174L826.502,825.722L1052.18,954.451L1051.78,641.025L826.586,513.174Z"/>
            </clipPath>
            <g clip-path="url(#_clip3)">
                <path d="M826.586,513.174L1051.78,641.025L1052.18,954.451L826.502,825.722L826.586,513.174ZM856.095,618.365L853.869,747.359L1005.59,835.15L1008.42,705.508L856.095,618.365Z" style="fill:rgb(105,186,201);"/>
                <path d="M856.095,618.365L1008.42,705.508L1005.59,835.15L853.869,747.359L856.095,618.365ZM865.787,635.611L865.06,741.451L995.312,815.377L996.81,711.254L865.787,635.611Z" style="fill:rgb(61,136,164);"/>
                <path d="M865.076,739.064L942.8,680.073L984.073,703.9L908.573,761.72L905.338,764.311L865.06,741.451L865.076,739.064Z" style="fill:rgb(188,211,219);"/>
                <path d="M923.509,668.935L865.266,711.485L865.787,635.611L923.509,668.935Z" style="fill:rgb(188,211,219);"/>
                <path d="M1051.81,667.867L826.578,542.19L826.586,513.174L1051.78,641.025L1051.81,667.867Z" style="fill:rgb(61,136,164);"/>
                <path d="M905.338,764.311L984.073,703.9L996.81,711.254L995.312,815.377L905.338,764.311Z" style="fill:rgb(146,201,212);"/>
                <path d="M942.8,680.073L865.076,739.064L865.266,711.485L923.509,668.935L942.8,680.073Z" style="fill:rgb(146,201,212);"/>
                <path d="M890.528,649.894L865.564,668.145L865.787,635.611L890.528,649.894Z" style="fill:rgb(146,201,212);"/>
                <path d="M826.586,513.174L1051.78,641.025L1051.81,667.832L1051.78,667.85L826.578,542.19L826.586,513.174Z" style="fill:rgb(89,167,182);"/>
                <path d="M856.095,618.365L1008.42,705.508L1005.59,835.15L853.869,747.359L856.095,618.365ZM865.787,635.611L865.06,741.451L995.312,815.377L996.81,711.254L865.787,635.611Z" style="fill:rgb(89,167,182);"/>
            </g>
        </g>
        <g transform="matrix(1.00012,6.51783e-05,6.51783e-05,1.00004,-323.011,-241.844)">
            <path d="M826.578,542.19L1051.78,667.847" style="fill:none;"/>
        </g>
        <g transform="matrix(1.04699,0,0,1.05572,0,0)">
            <path d="M208.04,0C208.04,0 205.014,141.474 203.745,200.8C203.402,216.842 194.955,231.64 181.262,240.188C128.723,272.983 0,353.333 0,353.333L0,0L208.04,0Z" style="fill:rgb(154,105,167);"/>
        </g>
        <g transform="matrix(0.994382,0,0,1,0,0)">
            <path d="M208.04,0C208.04,0 205.063,139.174 203.776,199.331C203.414,216.288 194.498,231.926 180.052,240.943C126.776,274.198 0,353.333 0,353.333L0,0L208.04,0Z" style="fill:rgb(245,232,188);"/>
        </g>
    </g>
</svg>
